<svg xmlns="http://www.w3.org/2000/svg" version="1.1" xmlns:xlink="http://www.w3.org/1999/xlink" xmlns:svgjs="http://svgjs.com/svgjs" width="1000" height="1000"><rect width="1000" height="1000" rx="300" ry="300" fill="#ffffff"></rect><g transform="matrix(33.333333333333336,0,0,33.333333333333336,100.0007323424021,100.0002235571543)"><svg xmlns="http://www.w3.org/2000/svg" version="1.1" xmlns:xlink="http://www.w3.org/1999/xlink" xmlns:svgjs="http://svgjs.com/svgjs" width="24" height="24"><svg width="24" height="24" viewBox="0 0 24 24" fill="none" xmlns="http://www.w3.org/2000/svg">
<path fill-rule="evenodd" clip-rule="evenodd" d="M16.1591 4.49561C13.7371 4.49561 11.9002 5.1079 11.3353 5.34298C11.0804 5.44908 10.7877 5.32842 10.6816 5.07348C10.5755 4.81854 10.6962 4.52585 10.9511 4.41974C11.6133 4.14413 13.5812 3.49561 16.1591 3.49561C16.4353 3.49561 16.6591 3.71946 16.6591 3.99561C16.6591 4.27175 16.4353 4.49561 16.1591 4.49561ZM17.1485 4.00652C17.1701 3.73123 17.4108 3.52557 17.6861 3.54718C19.107 3.65871 20.2919 4.20491 21.1331 4.77581C21.5541 5.06154 21.8959 5.35803 22.144 5.61875C22.2678 5.74879 22.373 5.87482 22.4541 5.9908C22.5261 6.09374 22.6105 6.23207 22.6456 6.38024C22.6848 6.54525 22.6376 6.71885 22.5203 6.84136C22.403 6.96387 22.2317 7.01858 22.0651 6.98668C21.1246 6.80659 20.2983 6.81853 19.5403 6.98409C19.2705 7.04301 19.0041 6.87208 18.9451 6.6023C18.8862 6.33251 19.0571 6.06605 19.3269 6.00712C19.8365 5.89583 20.3652 5.84472 20.9195 5.85773C20.8131 5.77386 20.697 5.68839 20.5715 5.60325C19.8396 5.10651 18.8185 4.63914 17.6079 4.54412C17.3326 4.52251 17.1269 4.28182 17.1485 4.00652ZM10.2336 5.28656C10.3289 5.54572 10.1961 5.83311 9.93699 5.92846C9.35304 6.1433 7.77445 6.99076 6.19226 8.02722C5.40784 8.54107 4.6381 9.09135 4.00444 9.61944C3.35892 10.1574 2.89753 10.6376 2.68371 11.0076C2.24806 11.7612 2.06848 12.3472 2.16473 13.0089C2.20448 13.2822 2.01517 13.5359 1.74191 13.5757C1.46864 13.6154 1.21489 13.4261 1.17514 13.1528C1.03308 12.1762 1.32758 11.3555 1.81793 10.5071C2.12503 9.97584 2.70328 9.40207 3.36423 8.85124C4.03703 8.29054 4.84055 7.71723 5.64429 7.19072C7.23841 6.14645 8.89566 5.24605 9.59169 4.98996C9.85085 4.89461 10.1382 5.0274 10.2336 5.28656ZM14.4128 7.14027C13.1448 6.86977 12.1499 6.98266 10.2565 7.70298C9.99841 7.80117 9.70959 7.67154 9.6114 7.41344C9.51321 7.15535 9.64284 6.86652 9.90094 6.76833C11.8981 6.00855 13.0986 5.83743 14.6214 6.16228C15.3939 6.32707 15.9016 6.42376 16.3788 6.44876C16.8444 6.47315 17.2983 6.42974 17.9495 6.28828C18.2193 6.22965 18.4856 6.40088 18.5442 6.67072C18.6028 6.94057 18.4316 7.20685 18.1618 7.26548C17.4514 7.41982 16.9052 7.47771 16.3265 7.44739C15.7594 7.41769 15.1786 7.30366 14.4128 7.14027ZM22.3606 7.41348C22.6368 7.41348 22.8606 7.63734 22.8606 7.91348C22.8606 8.39085 22.7574 9.11613 22.0116 9.51188C21.8557 9.5946 21.6913 9.61653 21.5624 9.62209C21.4297 9.62781 21.2889 9.61741 21.156 9.60376C21.0477 9.59263 20.944 9.57968 20.8384 9.56649C20.6579 9.54396 20.4719 9.52073 20.2477 9.5047C19.5841 9.45725 18.776 9.49621 17.8827 9.94282C17.6358 10.0663 17.3354 9.9662 17.2119 9.71921C17.0884 9.47222 17.1885 9.17189 17.4355 9.04839C18.5423 8.49501 19.5468 8.45202 20.319 8.50725C20.5635 8.52473 20.8088 8.55499 21.0078 8.57954C21.1038 8.59138 21.1891 8.60189 21.2582 8.609C21.3783 8.62133 21.4609 8.62553 21.5193 8.62302C21.539 8.62216 21.5519 8.62066 21.5593 8.61956C21.7863 8.49099 21.8606 8.27254 21.8606 7.91348C21.8606 7.63734 22.0845 7.41348 22.3606 7.41348ZM16.7776 10.0179C16.8922 10.2691 16.7815 10.5657 16.5303 10.6804C14.9604 11.3966 13.246 12.8591 11.675 14.2262C11.6148 14.2786 11.5548 14.3309 11.495 14.383C10.7881 14.9986 10.1133 15.5862 9.51896 16.0398C9.19574 16.2865 8.88473 16.5025 8.59507 16.6656C8.31198 16.825 8.01393 16.9543 7.7225 16.9916C6.82008 17.1069 5.54648 16.8654 4.41525 16.4762C3.8403 16.2784 3.28035 16.035 2.79881 15.7625C2.32457 15.4941 1.89384 15.1793 1.6092 14.8263C1.43586 14.6113 1.46961 14.2966 1.68457 14.1232C1.89953 13.9499 2.21431 13.9836 2.38765 14.1986C2.55853 14.4105 2.86565 14.6513 3.29134 14.8922C3.70971 15.129 4.21176 15.3486 4.74061 15.5306C5.81699 15.901 6.91822 16.0862 7.59577 15.9996C7.69933 15.9864 7.86521 15.929 8.10446 15.7943C8.33714 15.6632 8.60688 15.4779 8.9123 15.2448C9.47955 14.8119 10.1299 14.2456 10.8456 13.6225C10.9028 13.5726 10.9605 13.5224 11.0185 13.4719C12.56 12.1305 14.3874 10.5589 16.1152 9.77057C16.3664 9.65595 16.663 9.76669 16.7776 10.0179ZM21.1154 9.99752C21.3905 9.97335 21.633 10.1768 21.6572 10.4518C21.7262 11.2368 21.6634 12.6051 21.1064 13.7192C21.0417 13.8485 20.9393 13.971 20.8429 14.074C20.7393 14.1846 20.6109 14.3057 20.4653 14.4335C20.1737 14.6895 19.791 14.9918 19.3493 15.3199C18.4647 15.9771 17.3196 16.7556 16.1389 17.504C14.9586 18.2521 13.7345 18.9754 12.6917 19.52C12.1708 19.7921 11.6883 20.0231 11.2752 20.1908C10.8774 20.3523 10.4935 20.4765 10.189 20.4947C9.2481 20.5511 7.98759 20.3543 6.9037 20.0767C6.35664 19.9366 5.83854 19.7718 5.41185 19.5992C5.00739 19.4356 4.61591 19.2386 4.38607 19.0087C3.98227 18.6049 3.8093 18.0789 3.73146 17.6973C3.69135 17.5007 3.67339 17.3268 3.66535 17.2014C3.66132 17.1383 3.65973 17.0866 3.65919 17.0492C3.65892 17.0306 3.65891 17.0154 3.65898 17.0042L3.65914 16.9903L3.65923 16.9856L3.65927 16.9839L3.6593 16.9828C3.6593 16.9827 3.6593 16.9825 4.15913 16.9956L3.6593 16.9828C3.66652 16.7068 3.89617 16.4886 4.17222 16.4958C4.44771 16.503 4.66531 16.7317 4.659 17.007L4.65896 17.0109C4.65893 17.0154 4.65892 17.0235 4.65909 17.0347C4.65941 17.0573 4.66043 17.0924 4.66331 17.1375C4.66912 17.2281 4.68227 17.3552 4.71129 17.4974C4.77168 17.7936 4.88896 18.0974 5.09317 18.3016C5.16733 18.3758 5.38875 18.5112 5.78678 18.6722C6.16257 18.8242 6.63654 18.976 7.15182 19.108C8.1926 19.3745 9.33785 19.5439 10.1292 19.4965C10.2579 19.4888 10.5113 19.4216 10.8991 19.2642C11.2717 19.113 11.7232 18.8977 12.2288 18.6336C13.2391 18.106 14.4379 17.3982 15.6036 16.6594C16.7689 15.9207 17.8928 15.1562 18.753 14.5171C19.1838 14.1971 19.5426 13.9129 19.8056 13.682C19.9373 13.5664 20.0395 13.4689 20.1128 13.3906C20.181 13.3178 20.2063 13.2802 20.2112 13.273C20.212 13.2717 20.2123 13.2713 20.2119 13.272C20.6549 12.3861 20.7214 11.2256 20.6611 10.5394C20.6369 10.2643 20.8403 10.0217 21.1154 9.99752ZM4.659 17.007C4.65901 17.0067 4.65901 17.0068 4.659 17.007Z" fill="#231F20"></path>
</svg></svg></g></svg>