<?xml version="1.0" standalone="no"?>
<!DOCTYPE svg PUBLIC "-//W3C//DTD SVG 1.1//EN" "http://www.w3.org/Graphics/SVG/1.1/DTD/svg11.dtd" >
<svg xmlns="http://www.w3.org/2000/svg">
<metadata>
<json>
<![CDATA[
{
	"fontFamily": "SET",
	"majorVersion": 1,
	"minorVersion": 0,
	"copyright": "",
	"designer": "SET",
	"version": "Version 1.0",
	"fontId": "SET",
	"psName": "SET",
	"subFamily": "Regular",
	"fullName": "SET",
	"description": "Font generated by IcoMoon."
}
]]>
</json>
</metadata>
<defs>
<font id="SET" horiz-adv-x="1024">
<font-face units-per-em="1024" ascent="960" descent="-64" />
<missing-glyph horiz-adv-x="1024" />
<glyph unicode="&#x20;" horiz-adv-x="512" d="" />
<glyph unicode="&#xe900;" glyph-name="Access-alarm" data-tags="Access alarm" d="M938.667 715.947l-196.267 164.693-55.040-65.28 196.267-164.693 55.040 65.28zM336.213 815.36l-54.613 65.28-196.267-164.267 55.040-65.28 195.84 164.266zM533.333 618.667h-64v-256l202.667-121.6 32 52.48-170.667 101.12v224zM512 789.334c-212.053 0-384-171.947-384-384s171.52-384 384-384c212.053 0 384 171.947 384 384s-171.947 384-384 384zM512 106.667c-165.12 0-298.667 133.547-298.667 298.667s133.547 298.667 298.667 298.667c165.12 0 298.667-133.547 298.667-298.667s-133.547-298.667-298.667-298.667z" />
<glyph unicode="&#xe901;" glyph-name="Account-circle" data-tags="Account circle" d="M512 874.667c-235.52 0-426.667-191.147-426.667-426.667s191.147-426.667 426.667-426.667c235.52 0 426.667 191.147 426.667 426.667s-191.147 426.667-426.667 426.667zM301.653 180.053c18.347 38.4 130.133 75.947 210.347 75.947s192.427-37.547 210.347-75.947c-58.027-46.080-130.987-73.387-210.347-73.387s-152.32 27.307-210.347 73.387zM783.36 241.92c-61.013 74.24-209.067 99.413-271.36 99.413s-210.347-25.173-271.36-99.413c-43.52 57.173-69.973 128.427-69.973 206.080 0 188.16 153.173 341.333 341.333 341.333s341.333-153.173 341.333-341.333c0-77.653-26.453-148.907-69.973-206.080zM512 704c-82.773 0-149.333-66.56-149.333-149.333s66.56-149.333 149.333-149.333c82.773 0 149.333 66.56 149.333 149.333s-66.56 149.333-149.333 149.333zM512 490.667c-35.413 0-64 28.587-64 64s28.587 64 64 64c35.413 0 64-28.587 64-64s-28.587-64-64-64z" />
<glyph unicode="&#xe902;" glyph-name="Add" data-tags="Add" d="M810.667 405.333h-256v-256h-85.333v256h-256v85.333h256v256h85.333v-256h256v-85.333z" />
<glyph unicode="&#xe903;" glyph-name="Alert" data-tags="Alert" d="M469.333 320h85.333v-85.333h-85.333v85.333zM469.333 661.333h85.333v-256h-85.333v256zM810.667 832h-178.347c-17.92 49.493-64.853 85.333-120.32 85.333s-102.4-35.84-120.32-85.333h-178.347c-5.973 0-11.52-0.427-17.067-1.707-16.64-3.413-31.573-11.947-43.093-23.467-7.68-7.68-14.080-17.067-18.347-27.307-4.267-9.813-6.827-20.907-6.827-32.853v-597.333c0-11.52 2.56-23.040 6.827-33.28s10.667-19.2 18.347-27.307c11.52-11.52 26.453-20.053 43.093-23.467 5.547-0.853 11.093-1.28 17.067-1.28h597.333c46.933 0 85.333 38.4 85.333 85.333v597.333c0 46.933-38.4 85.333-85.333 85.333zM512 842.667c17.493 0 32-14.507 32-32s-14.507-32-32-32c-17.493 0-32 14.507-32 32s14.507 32 32 32zM810.667 149.333h-597.333v597.333h597.333v-597.333z" />
<glyph unicode="&#xe904;" glyph-name="Approve" data-tags="Approve" d="M383.996 270.080l-177.92 177.92-60.587-60.16 238.507-238.507 512 511.999-60.16 60.16-451.84-451.412z" />
<glyph unicode="&#xe905;" glyph-name="Approves" data-tags="Approves" d="M853.333 789.333v-512h-512v512h512zM853.333 874.667h-512c-46.933 0-85.333-38.4-85.333-85.333v-512c0-46.933 38.4-85.333 85.333-85.333h512c46.933 0 85.333 38.4 85.333 85.333v512c0 46.933-38.4 85.333-85.333 85.333zM532.053 362.667l-148.053 149.333 59.733 60.16 88.32-88.747 218.88 220.587 59.733-60.16-278.613-281.173zM170.667 704h-85.333v-597.333c0-46.933 38.4-85.333 85.333-85.333h597.333v85.333h-597.333v597.333z" />
<glyph unicode="&#xe906;" glyph-name="Approves-filled" data-tags="Approves filled" d="M853.333 874.667h-512c-46.933 0-85.333-38.4-85.333-85.333v-512c0-46.933 38.4-85.333 85.333-85.333h512c46.933 0 85.333 38.4 85.333 85.333v512c0 46.933-38.4 85.333-85.333 85.333zM532.053 362.667l-148.053 149.333 59.733 60.16 88.32-88.747 218.88 220.587 59.733-60.16-278.613-281.173zM170.667 704h-85.333v-597.333c0-46.933 38.4-85.333 85.333-85.333h597.333v85.333h-597.333v597.333z" />
<glyph unicode="&#xe907;" glyph-name="Assign" data-tags="Assign" d="M682.667 618.667c0-94.293-76.373-170.667-170.667-170.667s-170.667 76.373-170.667 170.667c0 94.293 76.373 170.667 170.667 170.667s170.667-76.373 170.667-170.667zM170.667 192c0 113.493 227.413 170.667 341.333 170.667 56.947 0 142.251-14.285 213.333-42.752v-85.248h-256v-128h-298.667v85.333zM938.667 106.667l-165.926-128v85.333h-218.074v85.333h218.074v85.333l165.926-128z" />
<glyph unicode="&#xe908;" glyph-name="Attachment" data-tags="Attachment" d="M789.333 277.333h-490.667c-94.293 0-170.667 76.373-170.667 170.667s76.373 170.667 170.667 170.667h533.333c58.88 0 106.667-47.787 106.667-106.667s-47.787-106.667-106.667-106.667h-448c-23.467 0-42.667 19.2-42.667 42.667s19.2 42.667 42.667 42.667h405.333v64h-405.333c-58.88 0-106.667-47.787-106.667-106.667s47.787-106.667 106.667-106.667h448c94.293 0 170.667 76.373 170.667 170.667s-76.373 170.667-170.667 170.667h-533.333c-129.707 0-234.667-104.96-234.667-234.667s104.96-234.667 234.667-234.667h490.667v64z" />
<glyph unicode="&#xe909;" glyph-name="Auditor" data-tags="Auditor" d="M426.667 448c94.293 0 170.667 76.373 170.667 170.667s-76.373 170.667-170.667 170.667c-94.293 0-170.667-76.373-170.667-170.667s76.373-170.667 170.667-170.667zM426.667 704c46.933 0 85.333-38.4 85.333-85.333s-38.4-85.333-85.333-85.333c-46.933 0-85.333 38.4-85.333 85.333s38.4 85.333 85.333 85.333zM170.667 192c9.387 30.72 141.227 85.333 256 85.333 0 29.867 5.547 58.453 14.933 84.907-116.48 4.267-356.267-53.76-356.267-170.24v-85.333h407.040c-22.187 24.747-39.68 53.333-50.773 85.333h-270.933zM853.333 277.333c0-31.573-8.96-61.013-24.32-86.187 45.342-45.086 52.817-52.612 65.097-64.973 8.286-8.341 18.765-18.889 44.557-44.681l-60.16-60.16-109.653 109.653c-25.173-14.933-54.613-24.32-86.187-24.32-94.293 0-170.667 76.373-170.667 170.667s76.373 170.667 170.667 170.667c94.293 0 170.667-76.373 170.667-170.667zM597.333 277.333c0-46.933 38.4-85.333 85.333-85.333s85.333 38.4 85.333 85.333c0 46.933-38.4 85.333-85.333 85.333s-85.333-38.4-85.333-85.333z" />
<glyph unicode="&#xe90a;" glyph-name="Back" data-tags="Back" d="M579.84 192l60.16 60.16-195.413 195.84 195.413 195.84-60.16 60.16-256-256 256-256z" />
<glyph unicode="&#xe90b;" glyph-name="Back-Android" data-tags="Back Android" d="M853.333 490.667h-519.253l238.507 238.507-60.587 60.16-341.333-341.333 341.333-341.333 60.16 60.16-238.080 238.507h519.253v85.333z" />
<glyph unicode="&#xe90c;" glyph-name="Back-iOS" data-tags="Back iOS" d="M497.92 794.88l-75.52 75.52-422.4-422.4 422.4-422.4 75.52 75.52-346.88 346.88 346.88 346.88z" />
<glyph unicode="&#xe90d;" glyph-name="Bookmark" data-tags="Bookmark" d="M768 832h-512c-46.933 0-85.333-36.48-85.333-81.067v-605.867c0-44.587 38.4-81.067 85.333-81.067h512c46.933 0 85.333 36.48 85.333 81.067v605.867c0 44.587-38.4 81.067-85.333 81.067zM384 750.933h85.333v-245.333l-42.667 30.4-42.667-30.4v245.333zM768 145.067h-512v605.867h42.667v-407.467l128 91.2 128-91.2v407.467h213.333v-605.867z" />
<glyph unicode="&#xe90e;" glyph-name="Bookmarks-filled" data-tags="Bookmarks filled" d="M810.667 192l85.333-42.667v682.667c0 46.933-38.4 85.333-85.333 85.333h-427.093c-46.933 0-84.907-38.4-84.907-85.333h426.667c46.933 0 85.333-38.4 85.333-85.333v-554.667zM640 746.667h-426.667c-46.933 0-85.333-38.4-85.333-85.333v-682.667l298.667 128 298.667-128v682.667c0 46.933-38.4 85.333-85.333 85.333z" />
<glyph unicode="&#xe90f;" glyph-name="Business" data-tags="Business" d="M512 661.333v170.667h-426.667v-768h853.333v597.333h-426.667zM256 149.333h-85.333v85.333h85.333v-85.333zM256 320h-85.333v85.333h85.333v-85.333zM256 490.667h-85.333v85.333h85.333v-85.333zM256 661.333h-85.333v85.333h85.333v-85.333zM426.667 149.333h-85.333v85.333h85.333v-85.333zM426.667 320h-85.333v85.333h85.333v-85.333zM426.667 490.667h-85.333v85.333h85.333v-85.333zM426.667 661.333h-85.333v85.333h85.333v-85.333zM853.333 149.333h-341.333v85.333h85.333v85.333h-85.333v85.333h85.333v85.333h-85.333v85.333h341.333v-426.667zM768 490.667h-85.333v-85.333h85.333v85.333zM768 320h-85.333v-85.333h85.333v85.333z" />
<glyph unicode="&#xe910;" glyph-name="Calendar" data-tags="Calendar" d="M785.067 762.182h-34.133v69.818h-68.267v-69.818h-341.333v69.818h-68.267v-69.818h-34.133c-37.547 0-68.267-31.418-68.267-69.818v-558.544c0-38.4 30.72-69.82 68.267-69.82h546.133c37.547 0 68.267 31.42 68.267 69.82v558.544c0 38.4-30.72 69.818-68.267 69.818zM785.067 133.82h-546.133v384h546.133v-384zM785.067 587.636h-546.133v104.727h546.133v-104.727z" />
<glyph unicode="&#xe911;" glyph-name="Callcenter" data-tags="Callcenter" d="M298.24 636.16c-10.24 35.413-16.64 72.533-19.2 110.507h-64.427c3.84-56.32 14.933-110.507 32.427-161.707l51.2 51.2zM810.667 214.613c-37.547 2.56-74.667 8.96-110.933 19.2l-51.2-50.773c51.627-17.067 105.813-28.16 162.133-32v63.573zM170.667 832h149.333c23.467 0 42.667-19.2 42.667-42.667 0-53.333 8.533-104.533 24.32-152.32 4.693-14.933 1.28-31.573-10.667-43.52l-93.867-93.867c61.44-120.747 160.427-219.307 281.173-281.173l93.867 93.867c8.533 8.107 19.2 12.373 30.293 12.373 4.267 0 8.96-0.427 13.227-2.133 47.787-15.787 99.413-24.32 152.32-24.32 23.467 0 42.667-19.2 42.667-42.667v-148.907c0-23.467-19.2-42.667-42.667-42.667-400.64 0-725.333 324.693-725.333 725.333 0 23.467 19.2 42.667 42.667 42.667zM512 405.333v426.667h384v-298.667h-256l-128-128z" />
<glyph unicode="&#xe912;" glyph-name="Category" data-tags="Category" d="M752.213 710.827c-15.36 21.76-40.96 35.84-69.547 35.84l-469.333-0.427c-46.933 0-85.333-37.973-85.333-84.907v-426.667c0-46.933 38.4-84.907 85.333-84.907l469.333-0.427c28.587 0 54.187 14.080 69.547 35.84l186.453 262.827-186.453 262.827zM682.667 234.667h-469.333v426.667h469.333l151.467-213.333-151.467-213.333z" />
<glyph unicode="&#xe913;" glyph-name="Check-list" data-tags="Check list" d="M516.369 779.89h88.649c4.356 0 8.759-0.108 13.184-0.218 8.098-0.199 16.256-0.4 24.252 0.061 0.175 4.042 0.085 8.121 0 12.183-0.051 2.342-0.102 4.678-0.102 6.999 0 3.438 0.585 6.766 1.655 9.899-4.723 0.032-9.472-0.086-14.199-0.204-4.156-0.104-8.294-0.207-12.39-0.207h-31.258c-2.483-0.575-5.060-0.88-7.701-0.88-19.238 0-34.761 15.92-34.999 35-0.017 1.035-0.047 2.065-0.098 3.093-0.461 2.097-1.020 4.163-1.69 6.208-0.973 1.877-2.039 3.702-3.196 5.475-1.395 1.539-2.863 3.005-4.403 4.402-1.792 1.17-3.635 2.246-5.538 3.227-1.993 0.656-4.019 1.209-6.076 1.659-2.074 0.105-4.143 0.107-6.217 0.007-2.138-0.468-4.25-1.039-6.34-1.722-1.852-0.966-3.648-2.020-5.402-3.162-1.519-1.384-2.978-2.833-4.365-4.357-1.169-1.785-2.244-3.622-3.226-5.514-0.678-2.063-1.246-4.153-1.707-6.28-0.030-0.518-0.051-1.036-0.068-1.553l0.004-0.564v-0.88h-0.038v-0.039c-0.239-19.080-15.718-35-34.999-35-2.641 0-5.218 0.305-7.701 0.88h-31.26c-4.078 0-8.205 0.103-12.352 0.207-7.554 0.189-15.17 0.379-22.665-0.050-0.138-3.742-0.064-7.514 0.009-11.272v-0.001c0.044-2.209 0.087-4.413 0.087-6.604 0-2.061-0.039-4.139-0.078-6.224-0.029-1.521-0.057-3.045-0.070-4.569h130.298zM387.939 878.443h44.322c5.18 13.021 13.15 24.895 23.799 33.8 19.238 16.12 44.518 27.4 70.199 24.12 13.798-1.76 25.481-4.36 37.961-11 8.96-4.761 17.758-11.28 24.401-19.040 7.373-8.585 13.282-17.894 17.493-27.88h31.906c1.681 0 3.371 0.015 5.065 0.030 9.344 0.083 18.812 0.168 27.853-2.27 22.861-6.122 40.154-23.25 47.548-44.646h18.863c7.339 0 14.686 0.060 22.042 0.119v0h0.009c15.219 0.123 30.455 0.246 45.641-0.156 24.132-0.634 51.042-5.595 68.083-23.427 17.707-18.54 22.758-42.527 22.878-66.961l-0.009-0.812v-628.097c0-23.987-5.013-47.377-21.781-65.916-16.294-18.057-42.697-23.915-66.594-24.772-6.054-0.213-12.109-0.179-18.163-0.141-2.33 0.013-4.655 0.030-6.985 0.030h-542.393c-2.296 0-4.602-0.021-6.912-0.047h-0.063c-7.244-0.068-14.528-0.137-21.7 0.457-14.807 1.229-27.421 3.729-40.858 9.626-11.517 5.073-20.448 13.653-27.695 23.39-12.105 16.188-14.847 38.161-14.847 57.446v628.8c0 18.839 2.507 41.669 14.847 57.299 7.482 9.475 15.943 18.429 27.695 23.241 13.672 5.596 25.854 8.431 40.858 9.513 16.085 1.15 32.419 0.89 48.667 0.631 6.941-0.111 13.865-0.221 20.748-0.221h39.147c6.323 16.663 17.614 31.989 34.336 39.447 10.961 4.88 21.56 7.44 33.64 7.44zM827.439 741.143l0.004 0.462c-0.038 3.68-0.179 7.361-0.516 11.041-0.546 2.849-1.25 5.653-2.176 8.401-0.299 0.526-0.606 1.046-0.926 1.559l-0.247 0.234c-0.563 0.325-1.139 0.637-1.715 0.938-2.833 0.856-5.726 1.515-8.649 2.032l-0.691 0.054c-16.085 1.15-32.422 0.89-48.67 0.631-6.942-0.111-13.867-0.221-20.749-0.221h-21.069c-0.316-3.644-0.87-7.263-1.822-10.831-1.801-6.64-4.399-13.56-8.358-19.2-6.199-8.76-11.281-13.801-19.639-20.201-15.966-12.166-35.136-12.144-53.973-12.122l-246.835 0.001c-9.212-0.006-18.876-0.013-27.51 3.441-10.36 4.119-19.56 8.52-27.48 16.76-7.422 7.731-11.85 15.424-15.806 25.071-2.994 5.508-4.824 11.227-5.939 17.080l-83.627 0.005c-6.983 0.016-13.961 0.032-20.906-0.534-2.742-0.491-5.444-1.118-8.096-1.926-0.61-0.313-1.213-0.639-1.807-0.98l-0.204-0.194c-0.344-0.543-0.675-1.094-0.992-1.65-0.878-2.622-1.555-5.297-2.088-8.001-0.387-4.342-0.513-8.699-0.513-13.056v-614.882l-0.012-4.314c-0.028-6.857-0.056-13.734 0.548-20.557 0.534-2.692 1.211-5.346 2.088-7.957 0.331-0.589 0.675-1.169 1.034-1.741l0.396-0.38c0.564-0.32 1.136-0.631 1.716-0.93 2.786-0.849 5.625-1.506 8.509-2.022 8.224-0.687 16.59-0.61 24.885-0.533h0.020c2.59 0.021 5.174 0.047 7.744 0.047h542.308c1.788 0 3.575-0.009 5.367-0.021v0c7.433-0.034 14.878-0.073 22.272 0.529 2.82 0.508 5.594 1.152 8.32 1.98 0.341 0.175 0.683 0.358 1.020 0.542l0.841 0.474 0.222 0.205c0.375 0.597 0.738 1.203 1.084 1.818 0.9 2.662 1.587 5.385 2.129 8.145 0.363 4.023 0.503 8.055 0.503 12.105v628.687l0.004 0.012zM826.308 757.807c0.094-0.612 0.175-1.223 0.252-1.835l-0.252 1.835zM816.909 765.452l1.489-0.185-0.734 0.094-0.755 0.090zM562.155 583.046h148.8c19.081 0 34.999-15.92 34.999-35 0-19.082-15.919-35.001-34.999-35.001h-189.999c-19.081 0-34.999 15.919-34.999 35.001 0 19.080 15.919 35 34.999 35h41.199zM520.977 233.847h189.999c19.076 0 34.999 15.919 34.999 34.999s-15.923 34.999-34.999 34.999h-189.999c-19.081 0-34.999-15.919-34.999-34.999s15.919-34.999 34.999-34.999zM331.010 561.776l46.78 46.781c13.48 13.48 36.040 13.48 49.478 0 13.483-13.48 13.483-36 0-49.48l-71.518-71.521c-13.48-13.478-36-13.478-49.48 0l-40.16 40.162c-13.48 13.478-13.48 35.998 0 49.478s36 13.48 49.48 0l15.421-15.421zM297.221 268.843l-16.361-16.363c-13.48-13.478-13.48-35.998 0-49.476 13.48-13.483 36-13.483 49.48 0l16.361 16.358 16.361-16.358c13.48-13.483 36-13.483 49.48 0 13.48 13.478 13.48 35.998 0 49.476l-16.361 16.363 16.358 16.358c13.48 13.478 13.48 36.002 0 49.481s-36 13.478-49.479 0l-16.359-16.358-16.358 16.358c-13.48 13.478-36 13.478-49.48 0s-13.48-36.002 0-49.481l16.358-16.358z" />
<glyph unicode="&#xe914;" glyph-name="Checkbox" data-tags="Checkbox" d="M810.667 746.667v-597.333h-597.333v597.333h597.333zM810.667 832h-597.333c-46.933 0-85.333-38.4-85.333-85.333v-597.333c0-46.933 38.4-85.333 85.333-85.333h597.333c46.933 0 85.333 38.4 85.333 85.333v597.333c0 46.933-38.4 85.333-85.333 85.333z" />
<glyph unicode="&#xe915;" glyph-name="Checkbox-selected" data-tags="Checkbox-selected" d="M810.667 832h-597.333c-46.933 0-85.333-38.4-85.333-85.333v-597.333c0-46.933 38.4-85.333 85.333-85.333h597.333c46.933 0 85.333 38.4 85.333 85.333v597.333c0 46.933-38.4 85.333-85.333 85.333zM810.667 149.333h-597.333v597.333h597.333v-597.333zM767.573 576l-60.16 60.587-281.173-281.173-110.080 109.653-60.587-60.16 170.667-170.24 341.333 341.333z" />
<glyph unicode="&#xe916;" glyph-name="Checked" data-tags="Checked" d="M853.333 832h-682.667c-46.933 0-85.333-38.4-85.333-85.333v-597.333c0-46.933 38.4-85.333 85.333-85.333h682.667c46.933 0 85.333 38.4 85.333 85.333v597.333c0 46.933-38.4 85.333-85.333 85.333zM170.667 149.333v597.333h682.667v-597.333h-682.667zM828.16 515.413l-60.587 60.587-135.253-135.253-60.16 60.587-60.16-60.16 120.32-121.173 195.84 195.413zM213.333 661.333h213.333v-85.333h-213.333v85.333zM426.667 490.667h-213.333v-85.333h213.333v85.333zM213.333 320h213.333v-85.333h-213.333v85.333z" />
<glyph unicode="&#xe917;" glyph-name="Circle-filled" data-tags="Circle filled" d="M938.667 448c0-235.641-191.025-426.667-426.667-426.667s-426.667 191.025-426.667 426.667c0 235.641 191.025 426.667 426.667 426.667s426.667-191.025 426.667-426.667z" />
<glyph unicode="&#xe918;" glyph-name="Close-or-Reject" data-tags="Close-or-Reject" d="M810.667 686.507l-60.16 60.16-238.507-238.507-238.507 238.507-60.16-60.16 238.507-238.507-238.507-238.507 60.16-60.16 238.507 238.507 238.507-238.507 60.16 60.16-238.507 238.507 238.507 238.507z" />
<glyph unicode="&#xe919;" glyph-name="Company" data-tags="Company" d="M170.667 533.333v-298.667h128v298.667h-128zM448 533.333v-298.667h128v298.667h-128zM85.333 21.333h853.333v128h-853.333v-128zM725.333 533.333v-298.667h128v298.667h-128zM512 917.333l-426.667-213.333v-85.333h853.333v85.333l-426.667 213.333z" />
<glyph unicode="&#xe91a;" glyph-name="DOC" data-tags="DOC" d="M256 874.667h341.333l256-256v-512c0-46.933-38.4-85.333-85.333-85.333h-512.427c-46.933 0-84.907 38.4-84.907 85.333v682.667c0 46.933 38.4 85.333 85.333 85.333zM256 106.667h512v469.333h-213.333v213.333h-298.667v-682.667zM613.001 298.167c-1.557-7.334-2.334-14.891-2.334-22.669 0-14.332 1.89-26.944 5.666-37.833 3.78-10.889 9.225-19.998 16.333-27.332 7.113-7.223 15.778-12.723 26.001-16.499 10.223-3.669 21.833-5.5 34.833-5.5 6.11 0 12.058 0.666 17.835 1.997 5.777 1.225 11.166 2.944 16.166 5.167s9.553 4.834 13.666 7.834c4.109 3.11 7.612 6.447 10.5 10.001s5.001 7.279 6.332 11.166c1.003 2.889 1.502 5.833 1.502 8.836 0 0.998-0.055 1.997-0.166 2.999-0.222 2.219-0.836 4.22-1.835 5.999s-2.278 3.332-3.831 4.668c-1.557 1.331-3.392 2.334-5.5 2.999-2.112 0.666-4.39 0.887-6.835 0.666-2.889-0.222-5.333-1.109-7.334-2.667s-3.942-3.499-5.833-5.833c-1.89-2.334-3.831-4.89-5.833-7.667s-4.335-5.278-7.002-7.501c-2.556-2.223-5.611-4.109-9.165-5.666-3.443-1.557-7.667-2.334-12.668-2.334-8.222 0-15.223 1.502-21.001 4.501-5.777 3.11-10.5 7.223-14.165 12.331-3.665 5.222-6.391 11.226-8.166 18.001-1.668 6.891-2.5 14.11-2.5 21.666 0 9.003 1.22 17.003 3.665 24 2.445 7.113 5.666 13.056 9.668 17.835 3.998 4.89 8.666 8.555 13.999 10.999 5.444 2.556 11.166 3.836 17.169 3.836 4.331 0 8.055-0.448 11.166-1.335 3.11-0.777 5.833-1.89 8.166-3.332 2.334-1.446 4.331-3.055 5.999-4.834s3.221-3.61 4.668-5.5c1.442-1.89 2.778-3.721 3.998-5.5 1.335-1.779 2.722-3.388 4.169-4.834 1.553-1.442 3.332-2.611 5.333-3.499 2.001-0.781 4.39-1.169 7.168-1.169 5.222-0.111 9.387 1.391 12.497 4.501 2.889 2.889 4.335 6.78 4.335 11.665v1.003c-0.111 2.889-0.832 5.943-2.167 9.165-1.331 3.221-3.332 6.447-5.999 9.668-2.556 3.221-5.722 6.332-9.502 9.331-3.776 2.999-8.166 5.611-13.167 7.834s-10.556 4.002-16.666 5.333c-5.999 1.335-12.668 2.001-19.998 2.001-9.003 0-17.225-1.054-24.67-3.166-7.441-2.112-14.221-5.111-20.331-9.003-6.003-3.776-11.281-8.388-15.834-13.833-4.557-5.333-8.388-11.221-11.503-17.664-2.999-6.447-5.278-13.389-6.831-20.834zM428.834 275.332c0 7.556 0.721 14.946 2.167 22.17 1.553 7.219 3.831 14.054 6.831 20.497 3.11 6.447 6.946 12.39 11.499 17.835 4.668 5.444 10.057 10.112 16.171 13.999 6.11 3.891 12.996 6.946 20.663 9.169 7.667 2.219 16.055 3.332 25.169 3.332 9.331 0 17.83-1.114 25.498-3.332 7.778-2.223 14.724-5.278 20.834-9.169 6.221-3.887 11.669-8.555 16.333-13.999 4.668-5.444 8.499-11.388 11.503-17.835 3.11-6.443 5.389-13.278 6.831-20.497 1.557-7.223 2.334-14.613 2.334-22.17s-0.777-14.942-2.334-22.165c-1.442-7.223-3.721-14.054-6.831-20.501-3.004-6.332-6.835-12.22-11.503-17.664-4.663-5.333-10.112-9.946-16.333-13.837-6.11-3.887-13.056-6.886-20.834-8.998-7.667-2.112-16.166-3.166-25.498-3.166-9.225 0-17.668 1.054-25.335 3.166-7.556 2.112-14.387 5.111-20.497 8.998-6.114 3.891-11.503 8.503-16.171 13.837-4.553 5.444-8.388 11.332-11.499 17.664-2.999 6.447-5.278 13.278-6.831 20.501-1.446 7.223-2.167 14.609-2.167 22.165zM464.998 275.332c0-4.553 0.393-9.109 1.169-13.666 0.777-4.446 1.946-8.721 3.499-12.834 1.557-4.109 3.554-7.945 5.999-11.499 2.556-3.443 5.555-6.498 9.003-9.165 3.443-2.556 7.39-4.557 11.831-6.003 4.335-1.442 9.28-2.167 14.835-2.167s10.611 0.725 15.164 2.167c4.557 1.446 8.614 3.447 12.169 6.003 3.554 2.667 6.554 5.722 8.998 9.165 2.445 3.554 4.501 7.39 6.17 11.499 1.664 4.113 2.833 8.388 3.499 12.834 0.777 4.446 1.165 9.003 1.165 13.666 0 4.557-0.388 9.058-1.165 13.5-0.666 4.557-1.835 8.892-3.499 13.001-1.668 4.113-3.725 7.945-6.17 11.503-2.445 3.554-5.444 6.609-8.998 9.165-3.554 2.667-7.556 4.723-11.998 6.165-4.668 1.557-9.779 2.334-15.334 2.334s-10.556-0.777-15.002-2.334c-4.335-1.442-8.222-3.499-11.665-6.165-3.447-2.556-6.447-5.611-9.003-9.165-2.445-3.558-4.442-7.39-5.999-11.503-1.553-4.109-2.722-8.444-3.499-13.001-0.777-4.442-1.169-8.943-1.169-13.5zM270.667 214.165v122.167c0 4.224 0.5 7.723 1.5 10.5s2.444 5.056 4.333 6.835c1.889 1.775 4.166 2.999 6.833 3.665s5.612 0.998 8.834 0.998h45.167c6.667 0 13.222-0.555 19.667-1.664 6.555-1.003 12.666-2.778 18.333-5.333 5.777-2.556 11.055-5.943 15.833-10.167 4.889-4.113 9.056-9.28 12.5-15.501 3.555-6.11 6.333-13.333 8.333-21.666 1.889-8.222 2.833-17.779 2.833-28.668 0-13.222-1.778-24.998-5.333-35.332-3.444-10.334-8.5-19.055-15.167-26.167-6.667-7.108-14.833-12.557-24.5-16.333-9.667-3.665-20.722-5.5-33.167-5.5h-44.5c-3.222 0-6.167 0.333-8.834 0.998-2.667 0.781-4.944 2.001-6.833 3.669-1.889 1.775-3.334 4.053-4.333 6.831-1 2.889-1.5 6.447-1.5 10.667zM306.667 221.167h32c4.889 0 9.278 0.721 13.167 2.167 3.889 1.553 7.278 3.61 10.167 6.165 3 2.556 5.5 5.555 7.5 8.998 2.111 3.558 3.833 7.334 5.167 11.337 1.333 3.998 2.278 8.166 2.833 12.497 0.556 4.446 0.833 8.781 0.833 13.001 0 8.222-0.833 15.612-2.5 22.17-1.555 6.665-4 12.331-7.333 16.998-3.222 4.668-7.334 8.222-12.333 10.667-5 2.556-10.833 3.831-17.5 3.831h-32v-107.831z" />
<glyph unicode="&#xe91b;" glyph-name="Date" data-tags="Date" d="M384 490.667h-85.333v-85.333h85.333v85.333zM554.667 490.667h-85.333v-85.333h85.333v85.333zM725.333 490.667h-85.333v-85.333h85.333v85.333zM810.667 789.333h-42.667v85.333h-85.333v-85.333h-341.333v85.333h-85.333v-85.333h-42.667c-47.36 0-84.907-38.4-84.907-85.333l-0.427-597.333c0-46.933 37.973-85.333 85.333-85.333h597.333c46.933 0 85.333 38.4 85.333 85.333v597.333c0 46.933-38.4 85.333-85.333 85.333zM810.667 106.667h-597.333v469.333h597.333v-469.333z" />
<glyph unicode="&#xe91c;" glyph-name="Decrease" data-tags="Decrease" d="M512 277.333l-256 256h512l-256-256z" />
<glyph unicode="&#xe91d;" glyph-name="Delete" data-tags="Delete" d="M256 149.333c0-46.933 38.4-85.333 85.333-85.333h341.333c46.933 0 85.333 38.4 85.333 85.333v512h-512v-512zM341.333 576h341.333v-426.667h-341.333v426.667zM661.333 789.333l-42.667 42.667h-213.333l-42.667-42.667h-149.333v-85.333h597.333v85.333h-149.333z" />
<glyph unicode="&#xe91e;" glyph-name="Document" data-tags="Document" d="M341.333 277.333h341.333v-85.333h-341.333v85.333zM341.333 448h341.333v-85.333h-341.333v85.333zM597.333 874.667h-341.333c-46.933 0-85.333-38.4-85.333-85.333v-682.667c0-46.933 37.973-85.333 84.907-85.333h512.427c46.933 0 85.333 38.4 85.333 85.333v512l-256 256zM768 106.667h-512v682.667h298.667v-213.333h213.333v-469.333z" />
<glyph unicode="&#xe91f;" glyph-name="Document-1" data-tags="Document-1" d="M341.333 277.333h341.333v-85.333h-341.333v85.333zM341.333 448h341.333v-85.333h-341.333v85.333zM597.333 874.667h-341.333c-46.933 0-85.333-38.4-85.333-85.333v-682.667c0-46.933 37.973-85.333 84.907-85.333h512.427c46.933 0 85.333 38.4 85.333 85.333v512l-256 256zM768 106.667h-512v682.667h298.667v-213.333h213.333v-469.333z" />
<glyph unicode="&#xe920;" glyph-name="Documents" data-tags="Documents" d="M682.667 917.333h-512c-46.933 0-85.333-38.4-85.333-85.333v-597.333h85.333v597.333h512v85.333zM640 746.667h-298.667c-46.933 0-84.907-38.4-84.907-85.333l-0.427-597.333c0-46.933 37.973-85.333 84.907-85.333h469.76c46.933 0 85.333 38.4 85.333 85.333v426.667l-256 256zM341.333 64v597.333h256v-213.333h213.333v-384h-469.333z" />
<glyph unicode="&#xe921;" glyph-name="Down" data-tags="Down" d="M461.308 144.102l-440.291 478.16c-28.022 30.417-28.022 79.732 0 110.134 27.997 30.404 73.406 30.404 101.401 0l389.591-423.098 389.577 423.085c28.006 30.404 73.412 30.404 101.41 0 28.006-30.405 28.006-79.718 0-110.135l-440.299-478.16c-14.007-15.202-32.341-22.793-50.688-22.793-18.355 0-36.702 7.607-50.701 22.805z" />
<glyph unicode="&#xe922;" glyph-name="Download" data-tags="Download" d="M825.6 531.627c-29.013 147.2-158.293 257.707-313.6 257.707-123.307 0-230.4-69.973-283.733-172.373-128.427-13.653-228.267-122.453-228.267-254.293 0-141.227 114.773-256 256-256h554.667c117.76 0 213.333 95.573 213.333 213.333 0 112.64-87.467 203.947-198.4 211.627zM810.667 192h-554.667c-94.293 0-170.667 76.373-170.667 170.667 0 87.467 65.28 160.427 151.893 169.387l45.653 4.693 21.333 40.533c40.533 78.080 119.893 126.72 207.787 126.72 111.787 0 208.213-79.36 229.973-189.013l12.8-64 65.28-4.693c66.56-4.267 118.613-60.16 118.613-126.293 0-70.4-57.6-128-128-128zM573.867 533.333h-123.733v-128h-108.8l170.667-170.667 170.667 170.667h-108.8v128z" />
<glyph unicode="&#xe923;" glyph-name="Email" data-tags="Email" d="M853.333 789.333h-682.667c-46.933 0-84.907-38.4-84.907-85.333l-0.427-512c0-46.933 38.4-85.333 85.333-85.333h682.667c46.933 0 85.333 38.4 85.333 85.333v512c0 46.933-38.4 85.333-85.333 85.333zM853.333 192h-682.667v426.667l341.333-213.333 341.333 213.333v-426.667zM512 490.667l-341.333 213.333h682.667l-341.333-213.333z" />
<glyph unicode="&#xe924;" glyph-name="Euro" data-tags="Euro" d="M640 170.667c-107.093 0-199.68 60.587-245.76 149.333h245.76v85.333h-273.92c-2.133 14.080-3.413 28.16-3.413 42.667s1.28 28.587 3.413 42.667h273.92v85.333h-245.76c46.080 88.747 139.093 149.333 245.76 149.333 68.693 0 131.84-25.173 180.48-66.987l75.52 75.52c-67.84 61.013-157.867 98.133-256 98.133-167.253 0-308.907-107.093-361.813-256h-150.187v-85.333h130.56c-1.707-14.080-2.56-28.16-2.56-42.667s0.853-28.587 2.56-42.667h-130.56v-85.333h150.187c52.907-148.907 194.56-256 361.813-256 98.56 0 188.16 37.12 256 98.133l-75.947 75.52c-48.213-41.813-110.933-66.987-180.053-66.987z" />
<glyph unicode="&#xe925;" glyph-name="Exit" data-tags="Exit" d="M430.507 294.827l60.16-60.16 213.333 213.333-213.333 213.333-60.16-60.16 110.080-110.507h-412.587v-85.333h412.587l-110.080-110.507zM810.667 832h-597.333c-47.36 0-85.333-38.4-85.333-85.333v-170.667h85.333v170.667h597.333v-597.333h-597.333v170.667h-85.333v-170.667c0-46.933 37.973-85.333 85.333-85.333h597.333c46.933 0 85.333 38.4 85.333 85.333v597.333c0 46.933-38.4 85.333-85.333 85.333z" />
<glyph unicode="&#xe926;" glyph-name="External-link" data-tags="External link" d="M810.667 149.333h-597.333v597.333h298.667v85.333h-298.667c-47.36 0-85.333-38.4-85.333-85.333v-597.333c0-46.933 37.973-85.333 85.333-85.333h597.333c46.933 0 85.333 38.4 85.333 85.333v298.667h-85.333v-298.667zM597.333 832v-85.333h153.173l-419.413-419.413 60.16-60.16 419.413 419.413v-153.173h85.333v298.667h-298.667z" />
<glyph unicode="&#xe927;" glyph-name="Eye" data-tags="Eye" d="M512 704c161.707 0 305.92-90.88 376.32-234.667-70.4-143.787-214.187-234.667-376.32-234.667s-305.92 90.88-376.32 234.667c70.4 143.787 214.613 234.667 376.32 234.667zM512 789.333c-213.333 0-395.52-132.693-469.333-320 73.813-187.307 256-320 469.333-320s395.52 132.693 469.333 320c-73.813 187.307-256 320-469.333 320zM512 576c58.88 0 106.667-47.787 106.667-106.667s-47.787-106.667-106.667-106.667c-58.88 0-106.667 47.787-106.667 106.667s47.787 106.667 106.667 106.667zM512 661.333c-105.813 0-192-86.187-192-192s86.187-192 192-192c105.813 0 192 86.187 192 192s-86.187 192-192 192z" />
<glyph unicode="&#xe928;" glyph-name="Eye-close" data-tags="Eye close" d="M512 716.477c161.707 0 305.92-94.914 376.32-245.083-25.173-54.362-60.587-101.154-102.827-139.029l60.16-62.831c59.307 54.81 106.24 123.435 135.68 201.86-73.813 195.621-256 334.204-469.333 334.204-54.187 0-106.24-8.912-155.307-25.399l70.4-73.525c27.733 5.793 55.893 9.804 84.907 9.804zM466.347 665.678l88.32-92.24c24.32-11.14 43.947-31.638 54.613-57.039l88.32-92.237c3.413 15.147 5.973 31.189 5.973 47.676 0.427 110.512-85.76 200.079-191.573 200.079-15.787 0-30.72-2.228-45.653-6.238zM85.76 811.391l114.347-119.422c-69.547-57.038-124.587-132.791-157.44-220.575 73.813-195.622 256-334.204 469.333-334.204 64.853 0 127.147 12.924 184.32 36.54l145.92-152.397 60.16 62.831-756.48 790.502-60.16-63.276zM405.76 477.188l111.36-116.305c-1.707-0.444-3.413-0.892-5.12-0.892-58.88 0-106.667 49.907-106.667 111.403 0 2.227 0.427 3.567 0.427 5.794zM260.693 628.693l74.667-77.981c-9.813-24.508-15.36-51.243-15.36-79.318 0-110.511 86.187-200.521 192-200.521 26.88 0 52.48 5.79 75.52 16.038l41.813-43.669c-37.547-10.692-76.8-16.93-117.333-16.93-161.707 0-305.92 94.912-376.32 245.082 29.867 63.722 73.387 116.303 125.013 157.299z" />
<glyph unicode="&#xe929;" glyph-name="Fax" data-tags="Fax" d="M469.333 704h213.333v-85.333h-213.333v85.333zM341.333 576v256h469.333v-256c33.946 0 66.505-13.486 90.509-37.49s37.491-56.564 37.491-90.51v-256h-128v-128h-469.333v128h-42.667v384h42.667zM426.667 746.667v-170.667h298.667v170.667h-298.667zM426.667 320v-170.667h298.667v170.667h-298.667zM810.667 490.667c-11.315 0-22.17-4.497-30.17-12.497s-12.497-18.854-12.497-30.17c0-11.315 4.497-22.17 12.497-30.17s18.854-12.497 30.17-12.497c11.315 0 22.17 4.497 30.17 12.497s12.497 18.854 12.497 30.17c0 11.315-4.497 22.17-12.497 30.17s-18.854 12.497-30.17 12.497zM170.667 576h42.667c11.316 0 22.168-4.495 30.17-12.497s12.497-18.854 12.497-30.17v-298.667c0-11.315-4.495-22.17-12.497-30.17s-18.854-12.497-30.17-12.497h-42.667c-22.632 0-44.337 8.99-60.34 24.994s-24.994 37.709-24.994 60.339v213.333c0 22.63 8.99 44.337 24.994 60.34s37.708 24.994 60.34 24.994z" />
<glyph unicode="&#xe92a;" glyph-name="File-upload" data-tags="File upload" d="M768 320v-128h-512v128h-85.333v-128c0-46.933 38.4-85.333 85.333-85.333h512c46.933 0 85.333 38.4 85.333 85.333v128h-85.333zM298.667 576l60.16-60.16 110.507 110.080v-348.587h85.333v348.587l110.507-110.080 60.16 60.16-213.333 213.333-213.333-213.333z" />
<glyph unicode="&#xe92b;" glyph-name="Fill-color" data-tags="Fill color" d="M641.702 535.040l-254.292 254.293-40.107-40.107 67.698-67.698-146.489-146.489c-16.782-16.781-16.782-43.806 0-60.301l156.445-156.446c8.251-8.247 19.344-12.514 30.152-12.514s21.901 4.267 30.153 12.514l156.442 156.446c16.785 16.495 16.785 43.52 0 60.301zM318.859 504.887l136.25 136.25 136.247-136.25h-272.497zM711.108 462.221c0 0-56.887-61.722-56.887-99.554 0-31.287 25.6-56.887 56.887-56.887s56.887 25.6 56.887 56.887c0 37.833-56.887 99.554-56.887 99.554zM227.552 220.446h568.89v-113.779h-568.89v113.779z" />
<glyph unicode="&#xe92c;" glyph-name="Filter" data-tags="Filter" d="M298.664 704h426.665l-213.76-268.8-212.905 268.8zM181.33 720.64c86.187-110.507 245.333-315.307 245.333-315.307v-256c0-23.467 19.199-42.667 42.665-42.667h85.333c23.467 0 42.667 19.2 42.667 42.667v256c0 0 158.72 204.8 244.907 315.307 21.76 28.16 1.707 68.693-33.707 68.693h-593.492c-35.413 0-55.467-40.533-33.707-68.693z" />
<glyph unicode="&#xe92d;" glyph-name="Fire" data-tags="Fire" d="M791.381 436.262c-58.641 152.397-267.439 160.614-217.011 382.111 3.733 16.435-13.82 29.135-28.015 20.544-135.587-79.933-233.075-240.172-151.275-450.091 6.723-17.182-13.447-33.242-28.014-22.037-67.607 51.174-74.703 124.757-68.727 177.423 2.241 19.423-23.158 28.761-33.99 12.7-25.399-38.848-51.172-101.597-51.172-196.096 14.193-209.173 190.868-273.417 254.364-281.634 90.765-11.58 189.001 5.231 259.597 69.85 77.692 72.085 106.078 187.132 64.243 287.232zM444.757 248.384c53.786 13.073 81.429 51.921 88.9 86.285 12.322 53.41-35.861 105.702-3.362 190.118 12.326-69.845 122.138-113.549 122.138-189.747 2.991-94.498-99.354-175.552-207.676-86.656z" />
<glyph unicode="&#xe92e;" glyph-name="Help" data-tags="Help" d="M469.333 192h85.333v85.333h-85.333v-85.333zM512 874.667c-235.52 0-426.667-191.147-426.667-426.667s191.147-426.667 426.667-426.667c235.52 0 426.667 191.147 426.667 426.667s-191.147 426.667-426.667 426.667zM512 106.667c-188.16 0-341.333 153.173-341.333 341.333s153.173 341.333 341.333 341.333c188.16 0 341.333-153.173 341.333-341.333s-153.173-341.333-341.333-341.333zM512 704c-94.293 0-170.667-76.373-170.667-170.667h85.333c0 46.933 38.4 85.333 85.333 85.333s85.333-38.4 85.333-85.333c0-85.333-128-74.667-128-213.333h85.333c0 96 128 106.667 128 213.333 0 94.293-76.373 170.667-170.667 170.667z" />
<glyph unicode="&#xe92f;" glyph-name="Home" data-tags="Home" d="M512 717.227l213.333-192v-333.227h-85.333v256h-256v-256h-85.333v333.227l213.333 192zM512 832l-426.667-384h128v-341.333h256v256h85.333v-256h256v341.333h128l-426.667 384z" />
<glyph unicode="&#xe930;" glyph-name="Home-filled" data-tags="Home filled" d="M426.667 106.667v256h170.667v-256h213.333v341.333h128l-426.667 384-426.667-384h128v-341.333h213.333z" />
<glyph unicode="&#xe931;" glyph-name="Increase" data-tags="Increase" d="M768 362.667h-512l256 256 256-256z" />
<glyph unicode="&#xe932;" glyph-name="Information" data-tags="Information" d="M469.333 661.333h85.333v-85.333h-85.333v85.333zM469.333 490.667h85.333v-256h-85.333v256zM512 874.667c-235.52 0-426.667-191.147-426.667-426.667s191.147-426.667 426.667-426.667c235.52 0 426.667 191.147 426.667 426.667s-191.147 426.667-426.667 426.667zM512 106.667c-188.16 0-341.333 153.173-341.333 341.333s153.173 341.333 341.333 341.333c188.16 0 341.333-153.173 341.333-341.333s-153.173-341.333-341.333-341.333z" />
<glyph unicode="&#xe933;" glyph-name="Language" data-tags="Language" d="M511.573 874.667c-235.52 0-426.24-191.147-426.24-426.667s190.72-426.667 426.24-426.667c235.947 0 427.093 191.147 427.093 426.667s-191.147 426.667-427.093 426.667zM807.253 618.667h-125.867c-13.653 53.333-33.28 104.533-58.88 151.893 78.507-26.88 143.787-81.493 184.747-151.893zM512 787.627c35.413-51.2 63.147-107.947 81.493-168.96h-162.987c18.347 61.013 46.080 117.76 81.493 168.96zM181.76 362.667c-6.827 27.307-11.093 55.893-11.093 85.333s4.267 58.027 11.093 85.333h144.213c-3.413-28.16-5.973-56.32-5.973-85.333s2.56-57.173 5.973-85.333h-144.213zM216.747 277.333h125.867c13.653-53.333 33.28-104.533 58.88-151.893-78.507 26.88-143.787 81.067-184.747 151.893zM342.613 618.667h-125.867c40.96 70.827 106.24 125.013 184.747 151.893-25.6-47.36-45.227-98.56-58.88-151.893zM512 108.373c-35.413 51.2-63.147 107.947-81.493 168.96h162.987c-18.347-61.013-46.080-117.76-81.493-168.96zM611.84 362.667h-199.68c-3.84 28.16-6.827 56.32-6.827 85.333s2.987 57.6 6.827 85.333h199.68c3.84-27.733 6.827-56.32 6.827-85.333s-2.987-57.173-6.827-85.333zM622.507 125.44c25.6 47.36 45.227 98.56 58.88 151.893h125.867c-40.96-70.4-106.24-125.013-184.747-151.893zM698.027 362.667c3.413 28.16 5.973 56.32 5.973 85.333s-2.56 57.173-5.973 85.333h144.213c6.827-27.307 11.093-55.893 11.093-85.333s-4.267-58.027-11.093-85.333h-144.213z" />
<glyph unicode="&#xe934;" glyph-name="Link" data-tags="Link" d="M166.4 448c0 72.96 59.307 132.267 132.267 132.267h170.667v81.067h-170.667c-117.76 0-213.333-95.573-213.333-213.333s95.573-213.333 213.333-213.333h170.667v81.067h-170.667c-72.96 0-132.267 59.307-132.267 132.267zM341.333 405.333h341.333v85.333h-341.333v-85.333zM725.333 661.333h-170.667v-81.067h170.667c72.96 0 132.267-59.307 132.267-132.267s-59.307-132.267-132.267-132.267h-170.667v-81.067h170.667c117.76 0 213.333 95.573 213.333 213.333s-95.573 213.333-213.333 213.333z" />
<glyph unicode="&#xe935;" glyph-name="Location" data-tags="Location" d="M512 448c-46.933 0-85.333 38.4-85.333 85.333s38.4 85.333 85.333 85.333c46.933 0 85.333-38.4 85.333-85.333s-38.4-85.333-85.333-85.333zM768 524.8c0 154.88-113.067 264.533-256 264.533s-256-109.653-256-264.533c0-99.84 83.2-232.107 256-389.973 172.8 157.867 256 290.133 256 389.973zM512 874.667c179.2 0 341.333-137.387 341.333-349.867 0-141.653-113.92-309.333-341.333-503.467-227.413 194.133-341.333 361.813-341.333 503.467 0 212.48 162.133 349.867 341.333 349.867z" />
<glyph unicode="&#xe936;" glyph-name="Lock" data-tags="Lock" d="M725.333 576h-36.57v73.143c0 100.937-81.92 182.857-182.861 182.857-100.935 0-182.855-81.92-182.855-182.857v-73.143h-36.571c-40.229 0-73.143-32.914-73.143-73.143v-365.713c0-40.23 32.914-73.143 73.143-73.143h438.857c40.23 0 73.143 32.913 73.143 73.143v365.713c0 40.229-32.913 73.143-73.143 73.143zM396.19 649.143c0 60.708 49.007 109.714 109.713 109.714 60.71 0 109.717-49.006 109.717-109.714v-73.143h-219.43v73.143zM725.333 137.143h-438.857v365.713h438.857v-365.713zM505.903 246.857c40.23 0 73.143 32.913 73.143 73.143s-32.913 73.143-73.143 73.143c-40.226 0-73.139-32.913-73.139-73.143s32.913-73.143 73.139-73.143z" />
<glyph unicode="&#xe937;" glyph-name="Logout" data-tags="Logout" d="M725.333 618.667l-60.16-60.16 67.413-67.84h-348.587v-85.333h348.587l-67.413-67.413 60.16-60.587 170.667 170.667-170.667 170.667zM213.333 746.667h298.667v85.333h-298.667c-46.933 0-85.333-38.4-85.333-85.333v-597.333c0-46.933 38.4-85.333 85.333-85.333h298.667v85.333h-298.667v597.333z" />
<glyph unicode="&#xe938;" glyph-name="Main-Component-filled" data-tags="Main Component filled" d="M512 930.718l-211.19-211.189 211.19-211.19 211.187 211.19-211.187 211.189zM240.471 659.189l-211.189-211.189 211.189-211.187 211.19 211.187-211.19 211.189zM300.81 176.469l211.19 211.191 211.187-211.191-211.187-211.187-211.19 211.187zM783.531 659.189l-211.191-211.189 211.191-211.187 211.187 211.187-211.187 211.189z" />
<glyph unicode="&#xe939;" glyph-name="Market" data-tags="Market" d="M42.67 64h512.001v-85.333h-512.001v85.333zM223.79 615.68l120.747 120.619 603.308-603.392-120.661-120.661-603.393 603.435zM525.53 917.333l241.365-241.323-120.747-120.747-241.239 241.493 120.62 120.576zM163.203 555.307l241.365-241.365-120.661-120.661-241.365 241.365 120.661 120.661z" />
<glyph unicode="&#xe93a;" glyph-name="Maximize-arrow" data-tags="Maximize arrow" d="M780.595 545.92l-60.16 60.16-195.84-195.413-195.841 195.413-60.16-60.16 256.001-256 256 256z" />
<glyph unicode="&#xe93b;" glyph-name="Maximize-filled" data-tags="Maximize filled" d="M170.667 874.667h682.667v-85.333h-682.667v85.333zM170.667 106.667h682.667v-85.333h-682.667v85.333zM853.333 704h-682.667v-512h682.667v512z" />
<glyph unicode="&#xe93c;" glyph-name="Minimize-arrow" data-tags="Minimize arrow" d="M268.594 350.080l60.16-60.16 195.841 195.413 195.84-195.413 60.16 60.16-256 256-256.001-256z" />
<glyph unicode="&#xe93d;" glyph-name="Minimize-filled" data-tags="Minimize filled" d="M170.667 874.667h656.41v-229.744h-656.41v229.744zM170.667 579.282h656.41v-262.563h-656.41v262.563zM827.076 251.076h-656.41v-229.743h656.41v229.743z" />
<glyph unicode="&#xe93e;" glyph-name="Mobile-phone" data-tags="Mobile phone" d="M725.333 916.907l-426.667 0.427c-46.933 0-85.333-38.4-85.333-85.333v-768c0-46.933 38.4-85.333 85.333-85.333h426.667c46.933 0 85.333 38.4 85.333 85.333v768c0 46.933-38.4 84.907-85.333 84.907zM725.333 149.333h-426.667v597.333h426.667v-597.333z" />
<glyph unicode="&#xe93f;" glyph-name="More-Android" data-tags="More Android" d="M512 277.333c-46.933 0-85.333-38.4-85.333-85.333s38.4-85.333 85.333-85.333c46.933 0 85.333 38.4 85.333 85.333s-38.4 85.333-85.333 85.333zM512 533.333c-46.933 0-85.333-38.4-85.333-85.333s38.4-85.333 85.333-85.333c46.933 0 85.333 38.4 85.333 85.333s-38.4 85.333-85.333 85.333zM512 618.667c46.933 0 85.333 38.4 85.333 85.333s-38.4 85.333-85.333 85.333c-46.933 0-85.333-38.4-85.333-85.333s38.4-85.333 85.333-85.333z" />
<glyph unicode="&#xe940;" glyph-name="More-iOS" data-tags="More iOS" d="M341.333 448c0 46.933-38.4 85.333-85.333 85.333s-85.333-38.4-85.333-85.333c0-46.933 38.4-85.333 85.333-85.333s85.333 38.4 85.333 85.333zM597.333 448c0 46.933-38.4 85.333-85.333 85.333s-85.333-38.4-85.333-85.333c0-46.933 38.4-85.333 85.333-85.333s85.333 38.4 85.333 85.333zM682.667 448c0-46.933 38.4-85.333 85.333-85.333s85.333 38.4 85.333 85.333c0 46.933-38.4 85.333-85.333 85.333s-85.333-38.4-85.333-85.333z" />
<glyph unicode="&#xe941;" glyph-name="More-Hamburger" data-tags="More-Hamburger" d="M128 192h768v85.333h-768v-85.333zM128 405.333h768v85.333h-768v-85.333zM128 704v-85.333h768v85.333h-768z" />
<glyph unicode="&#xe942;" glyph-name="Move" data-tags="Move" d="M128 298.667h768v85.333h-768v-85.333zM128 597.333v-85.333h768v85.333h-768z" />
<glyph unicode="&#xe943;" glyph-name="News" data-tags="News" d="M810.667 149.333v597.333h-597.333v-597.333h597.333zM213.333 832h597.333c46.933 0 85.333-38.4 85.333-85.333v-597.333c0-46.933-38.4-85.333-85.333-85.333h-597.333c-46.933 0-85.333 38.4-85.333 85.333v597.333c0 46.933 38.4 85.333 85.333 85.333zM298.667 234.667h298.667v85.333h-298.667v-85.333zM298.667 405.333h426.667v85.333h-426.667v-85.333zM298.667 576h426.667v85.333h-426.667v-85.333z" />
<glyph unicode="&#xe944;" glyph-name="News-filled" data-tags="News filled" d="M768 832h-512c-46.933 0-85.333-38.4-85.333-85.333v-597.333c0-46.933 38.4-85.333 85.333-85.333h512c46.933 0 85.333 38.4 85.333 85.333v597.333c0 46.933-38.4 85.333-85.333 85.333zM298.667 746.667h213.333v-384l-106.667 64-106.667-64v384z" />
<glyph unicode="&#xe945;" glyph-name="Next" data-tags="Next" d="M426.671 704l-60.16-60.16 195.414-195.84-195.414-195.84 60.16-60.16 256 256-256 256z" />
<glyph unicode="&#xe946;" glyph-name="Next-big" data-tags="Next big" d="M511.996 101.12l75.52-75.52 422.4 422.4-422.4 422.402-75.52-75.52 346.88-346.882-346.88-346.88z" />
<glyph unicode="&#xe947;" glyph-name="Notification" data-tags="Notification" d="M512 0c46.933 0 85.333 38.4 85.333 85.333h-170.667c0-46.933 38.4-85.333 85.333-85.333zM768 256v213.333c0 130.987-69.547 240.64-192 269.653v29.013c0 35.413-28.587 64-64 64s-64-28.587-64-64v-29.013c-122.027-29.013-192-138.24-192-269.653v-213.333l-85.333-85.333v-42.667h682.667v42.667l-85.333 85.333zM682.667 213.333h-341.333v256c0 105.813 64.427 192 170.667 192s170.667-86.187 170.667-192v-256z" />
<glyph unicode="&#xe948;" glyph-name="Notification-filled" data-tags="Notification filled" d="M512 0c46.933 0 85.333 38.4 85.333 85.333h-170.667c0-46.933 37.973-85.333 85.333-85.333zM768 256v213.333c0 130.987-69.973 240.64-192 269.653v29.013c0 35.413-28.587 64-64 64s-64-28.587-64-64v-29.013c-122.453-29.013-192-138.24-192-269.653v-213.333l-85.333-85.333v-42.667h682.667v42.667l-85.333 85.333z" />
<glyph unicode="&#xe949;" glyph-name="PDF" data-tags="PDF" d="M256 874.667h341.333l256-256v-512c0-46.933-38.4-85.333-85.333-85.333h-512.427c-46.933 0-84.907 38.4-84.907 85.333v682.667c0 46.933 38.4 85.333 85.333 85.333zM256 106.667h512v469.333h-213.333v213.333h-298.667v-682.667zM299 207.334v134.332c0 2.445 0.445 4.723 1.333 6.835 1 2.108 2.278 3.887 3.834 5.333 1.667 1.442 3.611 2.611 5.833 3.499s4.556 1.331 7 1.331h57.5c9.333 0 17.445-1.165 24.334-3.499 7-2.334 12.833-5.777 17.5-10.334 4.667-4.442 8.167-9.941 10.5-16.499 2.334-6.443 3.499-13.777 3.499-21.999s-1.165-15.501-3.499-21.833c-2.333-6.336-5.833-11.614-10.5-15.834-4.666-4.224-10.5-7.445-17.5-9.668-6.667-2.112-14.333-3.166-23-3.166h-41v-48.499c0-2.445-0.5-4.723-1.5-6.835-0.889-2.112-2.167-3.887-3.833-5.333-1.556-1.442-3.444-2.611-5.667-3.499-2.111-0.887-4.389-1.335-6.833-1.335s-4.778 0.448-7 1.335c-2.222 0.887-4.166 2.057-5.833 3.499-1.556 1.446-2.833 3.221-3.834 5.333-0.889 2.112-1.333 4.39-1.333 6.835zM334.833 284.501h33.833c4.111 0 7.722 0.444 10.833 1.331 3.444 1.003 6.278 2.445 8.5 4.335 2.222 2.001 3.889 4.331 5 6.997 1.111 2.778 1.667 5.837 1.667 9.169s-0.556 6.332-1.667 8.998c-1.111 2.778-2.778 5.111-5 7.002-2.222 2.001-5.056 3.499-8.5 4.501-3.444 1.109-7.5 1.664-12.166 1.664h-32.5v-43.998zM452.668 214.165v122.167c0 4.224 0.499 7.723 1.498 10.5 1.003 2.778 2.445 5.056 4.335 6.835 1.89 1.775 4.169 2.999 6.831 3.665 2.671 0.666 5.615 0.998 8.836 0.998h45.167c6.665 0 13.222-0.555 19.665-1.664 6.558-1.003 12.668-2.778 18.334-5.333 5.777-2.556 11.055-5.943 15.834-10.167 4.89-4.113 9.054-9.28 12.501-15.501 3.554-6.11 6.332-13.333 8.333-21.666 1.886-8.222 2.833-17.779 2.833-28.668 0-13.222-1.779-24.998-5.333-35.332-3.443-10.334-8.499-19.055-15.168-26.167-6.665-7.108-14.831-12.557-24.499-16.333-9.668-3.665-20.723-5.5-33.169-5.5h-44.497c-3.221 0-6.165 0.333-8.836 0.998-2.662 0.781-4.941 2.001-6.831 3.669-1.89 1.775-3.332 4.053-4.335 6.831-0.998 2.889-1.498 6.447-1.498 10.667zM488.666 221.167h32c4.89 0 9.28 0.721 13.167 2.167 3.891 1.553 7.279 3.61 10.167 6.165 2.999 2.556 5.5 5.555 7.501 8.998 2.112 3.558 3.831 7.334 5.167 11.337 1.331 3.998 2.278 8.166 2.833 12.497 0.555 4.446 0.832 8.781 0.832 13.001 0 8.222-0.832 15.612-2.5 22.17-1.553 6.665-3.998 12.331-7.334 16.998-3.221 4.668-7.33 8.222-12.331 10.667-5.001 2.556-10.833 3.831-17.502 3.831h-32v-107.831zM619.332 336.333v-128.998c0-2.445 0.444-4.723 1.335-6.835 0.998-2.112 2.278-3.887 3.831-5.333 1.668-1.442 3.614-2.611 5.833-3.499 2.223-0.887 4.557-1.335 7.002-1.335s4.723 0.448 6.835 1.335c2.219 0.887 4.109 2.057 5.666 3.499 1.664 1.446 2.944 3.221 3.831 5.333 1.003 2.112 1.502 4.39 1.502 6.835v55.33h57.498c2.001 0 3.891 0.393 5.666 1.169 1.779 0.777 3.337 1.835 4.668 3.166 1.335 1.335 2.389 2.889 3.166 4.668 0.781 1.779 1.169 3.665 1.169 5.666s-0.388 3.887-1.169 5.666c-0.777 1.779-1.83 3.332-3.166 4.668-1.331 1.331-2.889 2.389-4.668 3.166-1.775 0.777-3.665 1.169-5.666 1.169h-57.498v36.497h67.665c2.112 0 4.058 0.388 5.833 1.169 1.779 0.777 3.392 1.83 4.834 3.166 1.446 1.442 2.556 3.055 3.332 4.834 0.781 1.775 1.169 3.721 1.169 5.833s-0.388 4.053-1.169 5.833c-0.777 1.779-1.886 3.388-3.332 4.834-1.442 1.442-3.11 2.556-5.001 3.332-1.775 0.777-3.665 1.165-5.666 1.165h-81.331c-3.004 0-5.892-0.61-8.67-1.83-2.667-1.225-5.001-2.833-6.997-4.834-2.001-2.001-3.614-4.335-4.834-7.002-1.114-2.667-1.668-5.555-1.668-8.666z" />
<glyph unicode="&#xe94a;" glyph-name="PDF-EN" data-tags="PDF EN" d="M256 874.667h341.333l256-256v-426.667h-85.333v384h-213.333v213.333h-298.667v-682.667h341.333v-85.333h-341.76c-46.933 0-84.907 38.4-84.907 85.333v682.667c0 46.933 38.4 85.333 85.333 85.333zM299 341.666v-134.332c0-2.445 0.445-4.723 1.333-6.835 1-2.112 2.278-3.887 3.834-5.333 1.667-1.442 3.611-2.611 5.833-3.499s4.556-1.335 7-1.335c2.444 0 4.722 0.448 6.833 1.335 2.223 0.887 4.111 2.057 5.667 3.499 1.667 1.446 2.944 3.221 3.833 5.333 1 2.112 1.5 4.39 1.5 6.835v48.499h41c8.667 0 16.334 1.054 23 3.166 7 2.223 12.833 5.444 17.5 9.668 4.667 4.22 8.167 9.498 10.5 15.834 2.334 6.332 3.499 13.611 3.499 21.833s-1.165 15.556-3.499 21.999c-2.333 6.558-5.833 12.058-10.5 16.499-4.666 4.557-10.5 8-17.5 10.334-6.889 2.334-15 3.499-24.334 3.499h-57.5c-2.444 0-4.778-0.444-7-1.331s-4.166-2.057-5.833-3.499c-1.556-1.446-2.833-3.226-3.834-5.333-0.889-2.112-1.333-4.39-1.333-6.835zM367.334 284.501h-32.5v43.998h32.5c4.666 0 8.722-0.555 12.166-1.664 3.444-1.003 6.278-2.5 8.5-4.501 2.222-1.89 3.889-4.224 5-7.002 1.111-2.667 1.667-5.666 1.667-8.998s-0.556-6.391-1.667-9.169c-1.111-2.667-2.778-4.996-5-6.997-2.222-1.89-5.056-3.332-8.5-4.335-3.111-0.887-6.722-1.331-10.833-1.331h-1.333zM452.668 336.333v-122.167c0-4.22 0.499-7.778 1.498-10.667 1.003-2.778 2.445-5.056 4.335-6.831 1.89-1.668 4.169-2.889 6.831-3.669 2.671-0.666 5.615-0.998 8.836-0.998h44.497c12.446 0 23.501 1.835 33.169 5.5 9.668 3.776 17.835 9.225 24.499 16.333 6.669 7.113 11.725 15.834 15.168 26.167 3.554 10.334 5.333 22.11 5.333 35.332 0 10.889-0.947 20.446-2.833 28.668-2.001 8.333-4.779 15.556-8.333 21.666-3.447 6.221-7.612 11.388-12.501 15.501-4.779 4.224-10.057 7.612-15.834 10.167-5.666 2.556-11.776 4.331-18.334 5.333-6.443 1.109-13.001 1.664-19.665 1.664h-45.167c-3.221 0-6.165-0.333-8.836-0.998-2.662-0.666-4.941-1.89-6.831-3.665-1.89-1.779-3.332-4.058-4.335-6.835-0.998-2.778-1.498-6.276-1.498-10.5zM520.666 221.167h-32v107.831h32c6.669 0 12.501-1.276 17.502-3.831 5.001-2.445 9.109-5.999 12.331-10.667 3.337-4.668 5.781-10.334 7.334-16.998 1.668-6.558 2.5-13.948 2.5-22.17 0-4.22-0.277-8.555-0.832-13.001-0.555-4.331-1.502-8.499-2.833-12.497-1.335-4.002-3.055-7.778-5.167-11.337-2.001-3.443-4.501-6.443-7.501-8.998-2.889-2.556-6.276-4.612-10.167-6.165-3.887-1.446-8.277-2.167-13.167-2.167zM619.332 207.334v128.998c0 3.11 0.555 5.999 1.668 8.666 1.22 2.667 2.833 5.001 4.834 7.002 1.997 2.001 4.331 3.61 6.997 4.834 2.778 1.22 5.666 1.83 8.67 1.83h81.331c2.001 0 3.891-0.388 5.666-1.165 1.89-0.777 3.558-1.89 5.001-3.332 1.446-1.446 2.556-3.055 3.332-4.834 0.781-1.779 1.169-3.721 1.169-5.833s-0.388-4.058-1.169-5.833c-0.777-1.779-1.886-3.392-3.332-4.834-1.442-1.335-3.055-2.389-4.834-3.166-1.775-0.781-3.721-1.169-5.833-1.169h-67.665v-36.497h57.498c2.001 0 3.891-0.393 5.666-1.169 1.779-0.777 3.337-1.835 4.668-3.166 1.335-1.335 2.389-2.889 3.166-4.668 0.781-1.779 1.169-3.665 1.169-5.666s-0.388-3.887-1.169-5.666c-0.777-1.779-1.83-3.332-3.166-4.668-1.331-1.331-2.889-2.389-4.668-3.166-1.775-0.777-3.665-1.169-5.666-1.169h-57.498v-55.33c0-2.445-0.499-4.723-1.502-6.835-0.887-2.112-2.167-3.887-3.831-5.333-1.557-1.442-3.447-2.611-5.666-3.499-2.112-0.887-4.39-1.335-6.835-1.335s-4.779 0.448-7.002 1.335c-2.219 0.887-4.164 2.057-5.833 3.499-1.553 1.446-2.833 3.221-3.831 5.333-0.892 2.112-1.335 4.39-1.335 6.835zM834.291 118.498v-162.082c0-7.501 1.946-13.193 5.833-17.084 3.75-3.61 9.028-5.414 15.834-5.414s12.083 1.873 15.834 5.623c3.891 3.75 5.833 9.374 5.833 16.875v117.918h0.836l80.414-127.919c1.391-2.219 2.778-4.164 4.169-5.833 1.527-1.664 3.196-2.987 5.001-3.959 1.941-0.969 4.164-1.664 6.665-2.082 2.5-0.414 5.555-0.623 9.169-0.623 9.442 0 16.247 2.569 20.416 7.706 4.164 5.141 6.251 12.292 6.251 21.461v160.414c0 7.501-1.946 13.124-5.833 16.875-3.75 3.75-9.028 5.628-15.834 5.628-6.946 0-12.292-1.877-16.043-5.628s-5.628-9.374-5.628-16.875v-121.25h-0.832l-81.25 131.251c-2.5 4.305-5.692 7.433-9.583 9.374-3.887 2.086-8.192 3.127-12.915 3.127-9.724 0-16.875-2.155-21.461-6.46-4.582-4.305-6.874-11.319-6.874-21.043zM653.457 116.416v-153.749c0-3.61 0.695-7.014 2.086-10.21 1.387-3.191 3.264-6.042 5.623-8.542 2.5-2.496 5.346-4.442 8.542-5.833 3.332-1.387 6.805-2.082 10.415-2.082h110.417c2.5 0 4.864 0.486 7.083 1.459 2.223 0.973 4.169 2.291 5.837 3.959 1.664 1.664 2.982 3.61 3.955 5.833 0.973 2.359 1.459 4.791 1.459 7.292 0 2.637-0.486 5.069-1.459 7.292s-2.291 4.164-3.955 5.833c-1.668 1.664-3.614 2.987-5.837 3.959-2.219 0.969-4.582 1.455-7.083 1.455h-92.292v51.251h84.378c2.5 0 4.86 0.486 7.083 1.459s4.164 2.291 5.833 3.959c1.668 1.664 2.987 3.61 3.959 5.833s1.459 4.582 1.459 7.083c0 2.5-0.486 4.86-1.459 7.083s-2.291 4.169-3.959 5.833c-1.668 1.668-3.61 2.987-5.833 3.959s-4.582 1.459-7.083 1.459h-84.378v45.623h91.46c2.5 0 4.928 0.486 7.292 1.459 2.359 0.973 4.373 2.291 6.042 3.959 1.668 1.805 2.987 3.819 3.959 6.042 0.969 2.223 1.455 4.651 1.455 7.292 0 2.637-0.486 5.069-1.455 7.292-0.973 2.223-2.291 4.237-3.959 6.042s-3.682 3.191-6.042 4.164c-2.364 0.973-4.791 1.459-7.292 1.459h-108.544c-3.746 0-7.36-0.764-10.833-2.291-3.332-1.527-6.246-3.541-8.747-6.042s-4.514-5.419-6.042-8.751c-1.391-3.332-2.086-6.942-2.086-10.833z" />
<glyph unicode="&#xe94b;" glyph-name="PDF-TH" data-tags="PDF TH" d="M256 874.667h341.333l256-256v-426.667h-85.333v384h-213.333v213.333h-298.667v-682.667h341.333v-85.333h-341.76c-46.933 0-84.907 38.4-84.907 85.333v682.667c0 46.933 38.4 85.333 85.333 85.333zM299 341.666v-134.332c0-2.445 0.445-4.723 1.333-6.835 1-2.112 2.278-3.887 3.834-5.333 1.667-1.442 3.611-2.611 5.833-3.499s4.556-1.335 7-1.335c2.444 0 4.722 0.448 6.833 1.335 2.223 0.887 4.111 2.057 5.667 3.499 1.667 1.446 2.944 3.221 3.833 5.333 1 2.112 1.5 4.39 1.5 6.835v48.499h41c8.667 0 16.334 1.054 23 3.166 7 2.223 12.833 5.444 17.5 9.668 4.667 4.22 8.167 9.498 10.5 15.834 2.334 6.332 3.499 13.611 3.499 21.833s-1.165 15.556-3.499 21.999c-2.333 6.558-5.833 12.058-10.5 16.499-4.666 4.557-10.5 8-17.5 10.334-6.889 2.334-15 3.499-24.334 3.499h-57.5c-2.444 0-4.778-0.444-7-1.331s-4.166-2.057-5.833-3.499c-1.556-1.446-2.833-3.226-3.834-5.333-0.889-2.112-1.333-4.39-1.333-6.835zM367.334 284.501h-32.5v43.998h32.5c4.666 0 8.722-0.555 12.166-1.664 3.444-1.003 6.278-2.5 8.5-4.501 2.222-1.89 3.889-4.224 5-7.002 1.111-2.667 1.667-5.666 1.667-8.998s-0.556-6.391-1.667-9.169c-1.111-2.667-2.778-4.996-5-6.997-2.222-1.89-5.056-3.332-8.5-4.335-3.111-0.887-6.722-1.331-10.833-1.331h-1.333zM452.668 336.333v-122.167c0-4.22 0.499-7.778 1.498-10.667 1.003-2.778 2.445-5.056 4.335-6.831 1.89-1.668 4.169-2.889 6.831-3.669 2.671-0.666 5.615-0.998 8.836-0.998h44.497c12.446 0 23.501 1.835 33.169 5.5 9.668 3.776 17.835 9.225 24.499 16.333 6.669 7.113 11.725 15.834 15.168 26.167 3.554 10.334 5.333 22.11 5.333 35.332 0 10.889-0.947 20.446-2.833 28.668-2.001 8.333-4.779 15.556-8.333 21.666-3.447 6.221-7.612 11.388-12.501 15.501-4.779 4.224-10.057 7.612-15.834 10.167-5.666 2.556-11.776 4.331-18.334 5.333-6.443 1.109-13.001 1.664-19.665 1.664h-45.167c-3.221 0-6.165-0.333-8.836-0.998-2.662-0.666-4.941-1.89-6.831-3.665-1.89-1.779-3.332-4.058-4.335-6.835-0.998-2.778-1.498-6.276-1.498-10.5zM520.666 221.167h-32v107.831h32c6.669 0 12.501-1.276 17.502-3.831 5.001-2.445 9.109-5.999 12.331-10.667 3.337-4.668 5.781-10.334 7.334-16.998 1.668-6.558 2.5-13.948 2.5-22.17 0-4.22-0.277-8.555-0.832-13.001-0.555-4.331-1.502-8.499-2.833-12.497-1.335-4.002-3.055-7.778-5.167-11.337-2.001-3.443-4.501-6.443-7.501-8.998-2.889-2.556-6.276-4.612-10.167-6.165-3.887-1.446-8.277-2.167-13.167-2.167zM619.332 207.334v128.998c0 3.11 0.555 5.999 1.668 8.666 1.22 2.667 2.833 5.001 4.834 7.002 1.997 2.001 4.331 3.61 6.997 4.834 2.778 1.22 5.666 1.83 8.67 1.83h81.331c2.001 0 3.891-0.388 5.666-1.165 1.89-0.777 3.558-1.89 5.001-3.332 1.446-1.446 2.556-3.055 3.332-4.834 0.781-1.779 1.169-3.721 1.169-5.833s-0.388-4.058-1.169-5.833c-0.777-1.779-1.886-3.392-3.332-4.834-1.442-1.335-3.055-2.389-4.834-3.166-1.775-0.781-3.721-1.169-5.833-1.169h-67.665v-36.497h57.498c2.001 0 3.891-0.393 5.666-1.169 1.779-0.777 3.337-1.835 4.668-3.166 1.335-1.335 2.389-2.889 3.166-4.668 0.781-1.779 1.169-3.665 1.169-5.666s-0.388-3.887-1.169-5.666c-0.777-1.779-1.83-3.332-3.166-4.668-1.331-1.331-2.889-2.389-4.668-3.166-1.775-0.777-3.665-1.169-5.666-1.169h-57.498v-55.33c0-2.445-0.499-4.723-1.502-6.835-0.887-2.112-2.167-3.887-3.831-5.333-1.557-1.442-3.447-2.611-5.666-3.499-2.112-0.887-4.39-1.335-6.835-1.335s-4.779 0.448-7.002 1.335c-2.219 0.887-4.164 2.057-5.833 3.499-1.553 1.446-2.833 3.221-3.831 5.333-0.892 2.112-1.335 4.39-1.335 6.835zM829.918 124.958v-169.792c0-3.055 0.555-5.901 1.664-8.542 1.25-2.637 2.85-4.86 4.791-6.665 2.086-1.805 4.514-3.264 7.292-4.378 2.778-1.109 5.696-1.664 8.751-1.664s5.905 0.555 8.542 1.664c2.778 1.114 5.141 2.573 7.083 4.378 2.086 1.805 3.682 4.028 4.791 6.665 1.25 2.641 1.877 5.487 1.877 8.542v68.749h85.414v-68.749c0-3.055 0.559-5.901 1.668-8.542 1.25-2.637 2.846-4.86 4.791-6.665 2.082-1.805 4.446-3.264 7.083-4.378 2.778-1.109 5.696-1.664 8.751-1.664s5.973 0.555 8.751 1.664c2.778 1.114 5.137 2.573 7.083 4.378 2.082 1.805 3.678 4.028 4.791 6.665 1.25 2.641 1.873 5.487 1.873 8.542v169.792c0 3.196-0.623 6.042-1.873 8.542-1.114 2.641-2.709 4.86-4.791 6.669-1.946 1.941-4.305 3.469-7.083 4.582-2.778 1.109-5.696 1.664-8.751 1.664s-5.973-0.555-8.751-1.664c-2.637-1.114-5.001-2.641-7.083-4.582-1.946-1.809-3.541-4.028-4.791-6.669-1.109-2.637-1.668-5.487-1.668-8.542v-63.539h-85.414v63.539c0 3.196-0.627 6.042-1.877 8.542-1.109 2.641-2.705 4.86-4.791 6.669-1.941 1.941-4.305 3.469-7.083 4.582-2.637 1.109-5.487 1.664-8.542 1.664s-5.973-0.555-8.751-1.664c-2.778-1.114-5.205-2.641-7.292-4.582-1.941-1.809-3.541-4.028-4.791-6.669-1.109-2.637-1.664-5.487-1.664-8.542zM642.833 132.041c-0.832-2.359-1.25-4.928-1.25-7.706s0.418-5.35 1.25-7.71c0.973-2.359 2.291-4.446 3.959-6.251 1.664-1.805 3.61-3.264 5.833-4.373 2.359-0.973 4.932-1.459 7.71-1.459h41.873v-148.958c0-3.055 0.627-5.973 1.877-8.751 1.109-2.637 2.705-4.932 4.791-6.874 2.082-1.805 4.514-3.264 7.292-4.378 2.778-1.109 5.692-1.664 8.747-1.664s5.973 0.555 8.751 1.664c2.778 1.114 5.141 2.573 7.083 4.378 2.086 1.941 3.682 4.237 4.791 6.874 1.25 2.778 1.877 5.696 1.877 8.751v148.958h42.914c2.778 0 5.278 0.486 7.501 1.459 2.364 1.109 4.378 2.569 6.042 4.373 1.668 1.805 2.918 3.891 3.75 6.251 0.973 2.359 1.459 4.932 1.459 7.71s-0.486 5.346-1.459 7.706c-0.832 2.364-2.082 4.446-3.75 6.251-1.664 1.805-3.678 3.264-6.042 4.378-2.223 1.109-4.723 1.664-7.501 1.664h-129.997c-2.778 0-5.35-0.555-7.71-1.664-2.223-1.114-4.169-2.573-5.833-4.378-1.668-1.805-2.987-3.887-3.959-6.251z" />
<glyph unicode="&#xe94c;" glyph-name="Page-filled" data-tags="Page filled" d="M853.333 405.333h-725.333c-23.467 0-42.667-19.2-42.667-42.667v-256c0-23.467 19.2-42.667 42.667-42.667h725.333c23.467 0 42.667 19.2 42.667 42.667v256c0 23.467-19.2 42.667-42.667 42.667zM853.333 832h-725.333c-23.467 0-42.667-19.2-42.667-42.667v-256c0-23.467 19.2-42.667 42.667-42.667h725.333c23.467 0 42.667 19.2 42.667 42.667v256c0 23.467-19.2 42.667-42.667 42.667z" />
<glyph unicode="&#xe94d;" glyph-name="Phone" data-tags="Phone" d="M282.453 499.627c61.44-120.747 160.427-219.307 281.173-281.173l93.867 93.867c11.52 11.52 28.587 15.36 43.52 10.24 47.787-15.787 99.413-24.32 152.32-24.32 23.467 0 42.667-19.2 42.667-42.667v-148.907c0-23.467-19.2-42.667-42.667-42.667-400.64 0-725.333 324.693-725.333 725.333 0 23.467 19.2 42.667 42.667 42.667h149.333c23.467 0 42.667-19.2 42.667-42.667 0-53.333 8.533-104.533 24.32-152.32 4.693-14.933 1.28-31.573-10.667-43.52l-93.867-93.867z" />
<glyph unicode="&#xe94e;" glyph-name="Phone-call-filled" data-tags="Phone call filled" d="M853.333 298.667c-53.333 0-104.533 8.533-152.32 24.32-14.933 4.693-31.573 1.28-43.52-10.24l-93.867-93.867c-120.747 61.44-219.733 160-281.173 280.747l93.867 94.293c11.947 11.52 15.36 28.16 10.667 43.093-15.787 47.787-24.32 98.987-24.32 152.32 0 23.467-19.2 42.667-42.667 42.667h-149.333c-23.467 0-42.667-19.2-42.667-42.667 0-400.64 324.693-725.333 725.333-725.333 23.467 0 42.667 19.2 42.667 42.667v149.333c0 23.467-19.2 42.667-42.667 42.667zM512 832v-426.667l128 128h256v298.667h-384z" />
<glyph unicode="&#xe94f;" glyph-name="Picture" data-tags="Picture" d="M810.667 746.667v-597.333h-597.333v597.333h597.333zM810.667 832h-597.333c-46.933 0-85.333-38.4-85.333-85.333v-597.333c0-46.933 38.4-85.333 85.333-85.333h597.333c46.933 0 85.333 38.4 85.333 85.333v597.333c0 46.933-38.4 85.333-85.333 85.333zM603.307 453.973l-128-165.12-91.307 110.507-128-164.693h512l-164.693 219.307z" />
<glyph unicode="&#xe950;" glyph-name="Printer" data-tags="Printer" d="M810.667 618.667h-42.667v213.333h-512v-213.333h-42.667c-70.827 0-128-57.173-128-128v-256h170.667v-170.667h512v170.667h170.667v256c0 70.827-57.173 128-128 128zM341.333 746.667h341.333v-128h-341.333v128zM682.667 149.333h-341.333v170.667h341.333v-170.667zM768 320v85.333h-512v-85.333h-85.333v170.667c0 23.467 19.2 42.667 42.667 42.667h597.333c23.467 0 42.667-19.2 42.667-42.667v-170.667h-85.333z" />
<glyph unicode="&#xe951;" glyph-name="Profile" data-tags="Profile" d="M512 708.267c49.493 0 89.6-40.107 89.6-89.6s-40.107-89.6-89.6-89.6c-49.493 0-89.6 40.107-89.6 89.6s40.107 89.6 89.6 89.6zM512 324.267c126.72 0 260.267-62.293 260.267-89.6v-46.933h-520.533v46.933c0 27.307 133.547 89.6 260.267 89.6zM512 789.333c-94.293 0-170.667-76.373-170.667-170.667s76.373-170.667 170.667-170.667c94.293 0 170.667 76.373 170.667 170.667s-76.373 170.667-170.667 170.667zM512 405.333c-113.92 0-341.333-57.173-341.333-170.667v-128h682.667v128c0 113.493-227.413 170.667-341.333 170.667z" />
<glyph unicode="&#xe952;" glyph-name="Profile-filled" data-tags="Profile filled" d="M512 448c94.293 0 170.667 76.373 170.667 170.667s-76.373 170.667-170.667 170.667c-94.293 0-170.667-76.373-170.667-170.667s76.373-170.667 170.667-170.667zM512 362.667c-113.92 0-341.333-57.173-341.333-170.667v-85.333h682.667v85.333c0 113.493-227.413 170.667-341.333 170.667z" />
<glyph unicode="&#xe953;" glyph-name="Push-pin" data-tags="Push pin" d="M597.333 789.333v-213.333c0-47.787 15.787-92.16 42.667-128h-256c27.733 36.693 42.667 81.067 42.667 128v213.333h170.667zM725.333 874.667h-426.667c-23.467 0-42.667-19.2-42.667-42.667s19.2-42.667 42.667-42.667h42.667v-213.333c0-70.827-57.173-128-128-128v-85.333h254.72v-298.667l42.667-42.667 42.667 42.667v298.667h257.28v85.333c-70.827 0-128 57.173-128 128v213.333h42.667c23.467 0 42.667 19.2 42.667 42.667s-19.2 42.667-42.667 42.667z" />
<glyph unicode="&#xe954;" glyph-name="Radio-button" data-tags="Radio button" d="M512 874.667c-235.52 0-426.667-191.147-426.667-426.667s191.147-426.667 426.667-426.667c235.52 0 426.667 191.147 426.667 426.667s-191.147 426.667-426.667 426.667zM512 106.667c-188.587 0-341.333 152.747-341.333 341.333s152.747 341.333 341.333 341.333c188.587 0 341.333-152.747 341.333-341.333s-152.747-341.333-341.333-341.333z" />
<glyph unicode="&#xe955;" glyph-name="Radio-button-selected" data-tags="Radio button selected" d="M512 661.333c-117.76 0-213.333-95.573-213.333-213.333s95.573-213.333 213.333-213.333c117.76 0 213.333 95.573 213.333 213.333s-95.573 213.333-213.333 213.333zM512 874.667c-235.52 0-426.667-191.147-426.667-426.667s191.147-426.667 426.667-426.667c235.52 0 426.667 191.147 426.667 426.667s-191.147 426.667-426.667 426.667zM512 106.667c-188.587 0-341.333 152.747-341.333 341.333s152.747 341.333 341.333 341.333c188.587 0 341.333-152.747 341.333-341.333s-152.747-341.333-341.333-341.333z" />
<glyph unicode="&#xe956;" glyph-name="Reader" data-tags="Reader" d="M554.667 448h298.667v-64h-298.667v64zM554.667 554.667h298.667v-64h-298.667v64zM554.667 341.333h298.667v-64h-298.667v64zM896 789.333h-768c-46.933 0-85.333-38.4-85.333-85.333v-554.667c0-46.933 38.4-85.333 85.333-85.333h768c46.933 0 85.333 38.4 85.333 85.333v554.667c0 46.933-38.4 85.333-85.333 85.333zM896 149.333h-384v554.667h384v-554.667z" />
<glyph unicode="&#xe957;" glyph-name="Refresh" data-tags="Refresh" d="M512 704v-128l170.667 170.667-170.667 170.667v-128c-188.587 0-341.333-152.747-341.333-341.333 0-66.987 19.627-129.28 52.907-181.76l62.293 62.293c-19.2 35.413-29.867 76.373-29.867 119.467 0 141.227 114.773 256 256 256zM800.427 629.76l-62.293-62.293c18.773-35.84 29.867-76.373 29.867-119.467 0-141.227-114.773-256-256-256v128l-170.667-170.667 170.667-170.667v128c188.587 0 341.333 152.747 341.333 341.333 0 66.987-19.627 129.28-52.907 181.76z" />
<glyph unicode="&#xe958;" glyph-name="Search" data-tags="Search" d="M661.333 362.667h-33.707l-11.947 11.52c41.813 48.64 66.987 111.787 66.987 180.48 0 153.173-124.16 277.333-277.333 277.333s-277.333-124.16-277.333-277.333c0-153.173 124.16-277.333 277.333-277.333 68.693 0 131.84 25.173 180.48 66.987l11.52-11.947v-33.707l213.333-212.907 63.573 63.573-212.907 213.333zM405.333 362.667c-106.24 0-192 85.76-192 192s85.76 192 192 192c106.24 0 192-85.76 192-192s-85.76-192-192-192z" />
<glyph unicode="&#xe959;" glyph-name="Setting" data-tags="Setting" d="M817.463 406.187c1.707 13.653 2.987 27.307 2.987 41.813s-1.28 28.16-2.987 41.813l90.027 70.4c8.107 6.4 10.24 17.92 5.12 27.307l-85.333 147.627c-3.84 6.827-11.093 10.667-18.773 10.667-2.56 0-5.12-0.427-7.253-1.28l-106.24-42.667c-22.187 17.067-46.080 31.147-72.107 41.813l-16.213 113.067c-1.28 10.24-10.24 17.92-20.907 17.92h-170.665c-10.667 0-19.627-7.68-20.907-17.92l-16.213-113.067c-26.027-10.667-49.92-25.173-72.107-41.813l-106.24 42.667c-2.56 0.853-5.12 1.28-7.68 1.28-7.253 0-14.507-3.84-18.347-10.667l-85.333-147.627c-5.547-9.387-2.987-20.907 5.12-27.307l90.027-70.4c-1.707-13.653-2.987-27.733-2.987-41.813s1.28-28.16 2.987-41.813l-90.027-70.4c-8.107-6.4-10.24-17.92-5.12-27.307l85.333-147.627c3.84-6.827 11.093-10.667 18.773-10.667 2.56 0 5.12 0.427 7.253 1.28l106.24 42.667c22.187-17.067 46.080-31.147 72.107-41.813l16.213-113.067c1.28-10.24 10.24-17.92 20.907-17.92h170.665c10.667 0 19.627 7.68 20.907 17.92l16.213 113.067c26.027 10.667 49.92 25.173 72.107 41.813l106.24-42.667c2.56-0.853 5.12-1.28 7.68-1.28 7.253 0 14.507 3.84 18.347 10.667l85.333 147.627c5.12 9.387 2.987 20.907-5.12 27.307l-90.027 70.4zM732.983 479.147c1.707-13.227 2.133-22.187 2.133-31.147s-0.853-18.347-2.133-31.147l-5.973-48.213 37.973-29.867 46.080-35.84-29.867-51.627-54.187 21.76-44.373 17.92-38.4-29.013c-18.347-13.653-35.84-23.893-53.333-31.147l-45.227-18.347-6.827-48.213-8.533-57.6h-59.733l-8.107 57.6-6.827 48.213-45.225 18.347c-18.347 7.68-35.413 17.493-52.48 30.293l-38.827 29.867-45.227-18.347-54.187-21.76-29.867 51.627 46.080 35.84 37.973 29.867-5.973 48.213c-1.28 13.227-2.133 23.040-2.133 31.573s0.853 18.347 2.133 31.147l5.973 48.213-37.973 29.867-46.080 35.84 29.867 51.627 54.187-21.76 44.373-17.92 38.4 29.013c18.347 13.653 35.84 23.893 53.333 31.147l45.225 18.347 6.827 48.213 8.533 57.6h59.307l8.107-57.6 6.827-48.213 45.227-18.347c18.347-7.68 35.413-17.493 52.48-30.293l38.827-29.867 45.227 18.347 54.187 21.76 29.867-51.627-45.653-36.267-37.973-29.867 5.973-48.213zM500.45 618.667c-94.292 0-170.665-76.373-170.665-170.667s76.373-170.667 170.665-170.667c94.293 0 170.667 76.373 170.667 170.667s-76.373 170.667-170.667 170.667zM500.45 362.667c-46.933 0-85.332 38.4-85.332 85.333s38.399 85.333 85.332 85.333c46.933 0 85.333-38.4 85.333-85.333s-38.4-85.333-85.333-85.333z" />
<glyph unicode="&#xe95a;" glyph-name="Sorting" data-tags="Sorting" d="M512 106.667l256 256h-512l256-256zM512 789.333l-256-256h512l-256 256z" />
<glyph unicode="&#xe95b;" glyph-name="Star" data-tags="Star" d="M938.667 565.76l-306.773 26.453-119.893 282.453-119.893-282.88-306.773-26.027 232.96-201.813-69.973-299.947 263.68 159.147 263.68-159.147-69.547 299.947 232.533 201.813zM512 302.933l-160.427-96.853 42.667 182.613-141.653 122.88 186.88 16.213 72.533 171.947 72.96-172.373 186.88-16.213-141.653-122.88 42.667-182.613-160.853 97.28z" />
<glyph unicode="&#xe95c;" glyph-name="Star-Filled" data-tags="Star Filled" d="M512 223.147l263.68-159.147-69.973 299.947 232.96 201.813-306.773 26.027-119.893 282.88-119.893-282.88-306.773-26.027 232.96-201.813-69.973-299.947 263.68 159.147z" />
<glyph unicode="&#xe95d;" glyph-name="Status-circle" data-tags="Status circle" d="M640 448c0-70.692-57.308-128-128-128s-128 57.308-128 128c0 70.692 57.308 128 128 128s128-57.308 128-128z" />
<glyph unicode="&#xe95e;" glyph-name="Suitcase" data-tags="Suitcase" d="M597.333 789.333v-85.333h-170.667v85.333h170.667zM170.667 533.333v42.667c0 23.467 19.2 42.667 42.667 42.667h597.333c23.467 0 42.667-19.2 42.667-42.667v-42.667h-682.667zM170.667 448h85.333v-85.333h85.333v85.333h341.333v-85.333h85.333v85.333h85.333v-256c0-23.467-19.2-42.667-42.667-42.667h-597.333c-23.467 0-42.667 19.2-42.667 42.667v256zM938.667 618.667c0 47.36-37.973 85.333-85.333 85.333h-170.667v85.333c0 47.36-37.973 85.333-85.333 85.333h-170.667c-47.36 0-85.333-37.973-85.333-85.333v-85.333h-170.667c-47.36 0-84.907-37.973-84.907-85.333l-0.427-469.333c0-47.36 37.973-85.333 85.333-85.333h682.667c47.36 0 85.333 37.973 85.333 85.333v469.333z" />
<glyph unicode="&#xe95f;" glyph-name="Supervisor" data-tags="Supervisor" d="M186.182 401.455c51.2 0 93.091 41.89 93.091 93.090s-41.891 93.091-93.091 93.091c-51.2 0-93.091-41.891-93.091-93.091s41.891-93.090 93.091-93.090zM238.778 350.255c-17.222 2.79-34.444 4.655-52.596 4.655-46.080 0-89.833-9.775-129.396-26.995-34.444-14.895-56.785-48.41-56.785-86.11v-73.079h209.455v74.94c0 38.635 10.705 74.94 29.324 106.59zM837.82 401.455c51.2 0 93.090 41.89 93.090 93.090s-41.89 93.091-93.090 93.091c-51.2 0-93.094-41.891-93.094-93.091s41.894-93.090 93.094-93.090zM1024 241.805c0 37.7-22.34 71.215-56.785 86.11-39.565 17.22-83.315 26.995-129.395 26.995-18.155 0-35.375-1.865-52.599-4.655 18.62-31.65 29.325-67.955 29.325-106.59v-74.94h209.455v73.079zM709.355 371.2c-54.46 24.205-121.485 41.89-197.355 41.89s-142.895-18.15-197.353-41.89c-50.269-22.34-81.92-72.61-81.92-127.535v-74.94h558.547v74.94c0 54.925-31.654 105.195-81.92 127.535zM329.076 261.82c4.189 10.705 6.051 18.15 42.356 32.115 45.149 17.685 92.627 26.065 140.567 26.065s95.42-8.38 140.565-26.065c35.84-13.965 37.705-21.41 42.359-32.115h-365.848zM512 634.182c25.6 0 46.545-20.945 46.545-46.545s-20.945-46.545-46.545-46.545c-25.6 0-46.545 20.945-46.545 46.545s20.945 46.545 46.545 46.545zM512 727.273c-77.265 0-139.636-62.371-139.636-139.636s62.371-139.636 139.636-139.636c77.265 0 139.635 62.37 139.635 139.636s-62.37 139.636-139.635 139.636z" />
<glyph unicode="&#xe960;" glyph-name="TXT" data-tags="TXT" d="M256 874.667h341.333l256-256v-512c0-46.933-38.4-85.333-85.333-85.333h-512.427c-46.933 0-84.907 38.4-84.907 85.333v682.667c0 46.933 38.4 85.333 85.333 85.333zM256 106.667h512v469.333h-213.333v213.333h-298.667v-682.667zM449.502 199.667c-1.003 2.223-1.502 4.501-1.502 6.831 0 2.445 0.388 4.834 1.165 7.168 0.892 2.445 2.057 4.779 3.503 7.002l38.165 56.998-38.665 54.332c-2.001 3.115-3.17 6.336-3.503 9.668s0.166 6.391 1.502 9.169c1.331 2.778 3.388 5.052 6.165 6.831 2.778 1.89 6.221 2.833 10.334 2.833 2.223 0 4.113-0.333 5.666-0.998 1.668-0.555 3.11-1.28 4.335-2.167 1.22-0.887 2.278-1.835 3.166-2.833s1.613-2.001 2.167-2.999l30.165-47.501 29.999 47.168c0.892 1.553 1.835 2.889 2.833 3.998 1.003 1.114 2.057 2.001 3.17 2.667 1.109 0.777 2.385 1.335 3.831 1.668 1.557 0.444 3.332 0.666 5.333 0.666 3.665 0 6.891-0.832 9.668-2.5 2.778-1.553 4.885-3.61 6.332-6.165s2.057-5.389 1.835-8.499c0-3.115-1.114-6.225-3.337-9.335l-39.164-56 39.164-57.668c1.779-2.662 3.059-5.218 3.836-7.663s1.054-4.779 0.832-7.002c-0.222-2.223-0.998-4.335-2.334-6.332-1.331-2.001-3.221-3.78-5.666-5.333-2.445-1.557-4.945-2.556-7.501-2.999-2.556-0.559-5.001-0.559-7.33 0-2.334 0.444-4.501 1.387-6.502 2.833-2.001 1.442-3.721 3.388-5.167 5.833l-30.831 50.001-29.167-48.337c-1.668-2.667-3.614-4.885-5.833-6.665-2.223-1.668-4.612-2.778-7.168-3.332-2.445-0.67-4.945-0.781-7.501-0.333-2.556 0.444-4.945 1.498-7.168 3.166-2.219 1.664-3.831 3.61-4.83 5.833zM309.167 342.665c0 2.223 0.334 4.279 1 6.17 0.778 1.89 1.833 3.554 3.167 5.001 1.333 1.442 2.889 2.611 4.666 3.499 1.889 0.887 3.945 1.331 6.167 1.331h104.002c2.219 0 4.22-0.444 5.999-1.331 1.89-0.887 3.499-2.057 4.834-3.499 1.331-1.446 2.334-3.11 2.999-5.001 0.777-1.89 1.165-3.947 1.165-6.17 0-2.219-0.388-4.275-1.165-6.165-0.666-1.89-1.668-3.554-2.999-5.001-1.335-1.442-2.944-2.611-4.834-3.499-1.779-0.777-3.78-1.165-5.999-1.165h-34.335v-119.168c0-2.445-0.5-4.779-1.5-7.002-0.889-2.112-2.167-3.942-3.833-5.5-1.556-1.442-3.444-2.611-5.667-3.499s-4.556-1.335-7-1.335c-2.444 0-4.778 0.448-7 1.335s-4.166 2.057-5.833 3.499c-1.667 1.557-2.944 3.388-3.833 5.5-1 2.223-1.5 4.557-1.5 7.002v119.168h-33.5c-2.223 0-4.278 0.388-6.167 1.165-1.777 0.887-3.333 2.057-4.666 3.499-1.333 1.446-2.389 3.11-3.167 5.001-0.666 1.89-1 3.947-1 6.165zM581.833 348.834c-0.666-1.89-0.998-3.947-0.998-6.17 0-2.219 0.333-4.275 0.998-6.165 0.777-1.89 1.835-3.554 3.166-5.001 1.335-1.442 2.889-2.611 4.668-3.499 1.89-0.777 3.947-1.165 6.165-1.165h33.502v-119.168c0-2.445 0.499-4.779 1.502-7.002 0.887-2.112 2.163-3.942 3.831-5.5 1.668-1.442 3.61-2.611 5.833-3.499s4.557-1.335 7.002-1.335c2.445 0 4.779 0.448 6.997 1.335 2.223 0.887 4.113 2.057 5.67 3.499 1.664 1.557 2.944 3.388 3.831 5.5 0.998 2.223 1.502 4.557 1.502 7.002v119.168h34.33c2.223 0 4.224 0.388 6.003 1.165 1.886 0.887 3.499 2.057 4.83 3.499 1.335 1.446 2.334 3.11 3.004 5.001 0.777 1.89 1.165 3.947 1.165 6.165 0 2.223-0.388 4.279-1.165 6.17-0.67 1.89-1.668 3.554-3.004 5.001-1.331 1.442-2.944 2.611-4.83 3.499-1.779 0.887-3.78 1.331-6.003 1.331h-104c-2.219 0-4.275-0.444-6.165-1.331-1.779-0.887-3.332-2.057-4.668-3.499-1.331-1.446-2.389-3.11-3.166-5.001z" />
<glyph unicode="&#xe961;" glyph-name="TXT-EN" data-tags="TXT EN" d="M256 874.667h341.333l256-256v-426.667h-85.333v384h-213.333v213.333h-298.667v-682.667h341.333v-85.333h-341.76c-46.933 0-84.907 38.4-84.907 85.333v682.667c0 46.933 38.4 85.333 85.333 85.333zM834.291-43.584v162.082c0 9.724 2.291 16.738 6.874 21.043 4.587 4.305 11.738 6.46 21.461 6.46 4.723 0 9.028-1.041 12.915-3.127 3.891-1.941 7.083-5.069 9.583-9.374l81.25-131.251h0.832v121.25c0 7.501 1.877 13.124 5.628 16.875s9.097 5.628 16.043 5.628c6.805 0 12.083-1.877 15.834-5.628 3.887-3.75 5.833-9.374 5.833-16.875v-160.414c0-9.169-2.086-16.32-6.251-21.461-4.169-5.137-10.974-7.706-20.416-7.706-3.614 0-6.669 0.209-9.169 0.623-2.5 0.418-4.723 1.114-6.665 2.082-1.805 0.973-3.473 2.295-5.001 3.959-1.391 1.668-2.778 3.614-4.169 5.833l-80.414 127.919h-0.836v-117.918c0-7.501-1.941-13.124-5.833-16.875-3.75-3.75-9.028-5.623-15.834-5.623s-12.083 1.805-15.834 5.414c-3.887 3.891-5.833 9.583-5.833 17.084zM653.457-37.333v153.749c0 3.891 0.695 7.501 2.086 10.833 1.527 3.332 3.541 6.251 6.042 8.751s5.414 4.514 8.747 6.042c3.473 1.527 7.087 2.291 10.833 2.291h108.544c2.5 0 4.928-0.486 7.292-1.459 2.359-0.973 4.373-2.359 6.042-4.164s2.987-3.819 3.959-6.042c0.969-2.223 1.455-4.655 1.455-7.292 0-2.641-0.486-5.069-1.455-7.292-0.973-2.223-2.291-4.237-3.959-6.042-1.668-1.668-3.682-2.987-6.042-3.959-2.364-0.973-4.791-1.459-7.292-1.459h-91.46v-45.623h84.378c2.5 0 4.86-0.486 7.083-1.459s4.164-2.291 5.833-3.959c1.668-1.664 2.987-3.61 3.959-5.833s1.459-4.582 1.459-7.083c0-2.5-0.486-4.86-1.459-7.083s-2.291-4.169-3.959-5.833c-1.668-1.668-3.61-2.987-5.833-3.959s-4.582-1.459-7.083-1.459h-84.378v-51.251h92.292c2.5 0 4.864-0.486 7.083-1.455 2.223-0.973 4.169-2.295 5.837-3.959 1.664-1.668 2.982-3.61 3.955-5.833s1.459-4.655 1.459-7.292c0-2.5-0.486-4.932-1.459-7.292-0.973-2.223-2.291-4.169-3.955-5.833-1.668-1.668-3.614-2.987-5.837-3.959-2.219-0.973-4.582-1.459-7.083-1.459h-110.417c-3.61 0-7.083 0.695-10.415 2.082-3.196 1.391-6.042 3.337-8.542 5.833-2.359 2.5-4.237 5.35-5.623 8.542-1.391 3.196-2.086 6.601-2.086 10.21zM449.502 199.667c-1.003 2.223-1.502 4.501-1.502 6.831 0 2.445 0.388 4.834 1.165 7.168 0.892 2.445 2.057 4.779 3.503 7.002l38.165 56.998-38.665 54.332c-2.001 3.115-3.17 6.336-3.503 9.668s0.166 6.391 1.502 9.169c1.331 2.778 3.388 5.052 6.165 6.831 2.778 1.89 6.221 2.833 10.334 2.833 2.223 0 4.113-0.333 5.666-0.998 1.668-0.555 3.11-1.28 4.335-2.167 1.22-0.887 2.278-1.835 3.166-2.833s1.613-2.001 2.167-2.999l30.165-47.501 29.999 47.168c0.892 1.553 1.835 2.889 2.833 3.998 1.003 1.114 2.057 2.001 3.17 2.667 1.109 0.777 2.385 1.335 3.831 1.668 1.557 0.444 3.332 0.666 5.333 0.666 3.665 0 6.891-0.832 9.668-2.5 2.778-1.553 4.885-3.61 6.332-6.165s2.057-5.389 1.835-8.499c0-3.115-1.114-6.225-3.337-9.335l-39.164-56 39.164-57.668c1.779-2.662 3.059-5.218 3.836-7.663s1.054-4.779 0.832-7.002c-0.222-2.223-0.998-4.335-2.334-6.332-1.331-2.001-3.221-3.78-5.666-5.333-2.445-1.557-4.945-2.556-7.501-2.999-2.556-0.559-5.001-0.559-7.33 0-2.334 0.444-4.501 1.387-6.502 2.833-2.001 1.442-3.721 3.388-5.167 5.833l-30.831 50.001-29.167-48.337c-1.668-2.667-3.614-4.885-5.833-6.665-2.223-1.668-4.612-2.778-7.168-3.332-2.445-0.67-4.945-0.781-7.501-0.333-2.556 0.444-4.945 1.498-7.168 3.166-2.219 1.664-3.831 3.61-4.83 5.833zM309.167 342.665c0 2.223 0.334 4.279 1 6.17 0.778 1.89 1.833 3.554 3.167 5.001 1.333 1.442 2.889 2.611 4.666 3.499 1.889 0.887 3.945 1.331 6.167 1.331h104.002c2.219 0 4.22-0.444 5.999-1.331 1.89-0.887 3.499-2.057 4.834-3.499 1.331-1.446 2.334-3.11 2.999-5.001 0.777-1.89 1.165-3.947 1.165-6.17 0-2.219-0.388-4.275-1.165-6.165-0.666-1.89-1.668-3.554-2.999-5.001-1.335-1.442-2.944-2.611-4.834-3.499-1.779-0.777-3.78-1.165-5.999-1.165h-34.335v-119.168c0-2.445-0.5-4.779-1.5-7.002-0.889-2.112-2.167-3.942-3.833-5.5-1.556-1.442-3.444-2.611-5.667-3.499s-4.556-1.335-7-1.335c-2.444 0-4.778 0.448-7 1.335s-4.166 2.057-5.833 3.499c-1.667 1.557-2.944 3.388-3.833 5.5-1 2.223-1.5 4.557-1.5 7.002v119.168h-33.5c-2.223 0-4.278 0.388-6.167 1.165-1.777 0.887-3.333 2.057-4.666 3.499-1.333 1.446-2.389 3.11-3.167 5.001-0.666 1.89-1 3.947-1 6.165zM581.833 348.834c-0.666-1.89-0.998-3.947-0.998-6.17 0-2.219 0.333-4.275 0.998-6.165 0.777-1.89 1.835-3.554 3.166-5.001 1.335-1.442 2.889-2.611 4.668-3.499 1.89-0.777 3.947-1.165 6.165-1.165h33.502v-119.168c0-2.445 0.499-4.779 1.502-7.002 0.887-2.112 2.163-3.942 3.831-5.5 1.668-1.442 3.61-2.611 5.833-3.499s4.557-1.335 7.002-1.335c2.445 0 4.779 0.448 6.997 1.335 2.223 0.887 4.113 2.057 5.67 3.499 1.664 1.557 2.944 3.388 3.831 5.5 0.998 2.223 1.502 4.557 1.502 7.002v119.168h34.33c2.223 0 4.224 0.388 6.003 1.165 1.886 0.887 3.499 2.057 4.83 3.499 1.335 1.446 2.334 3.11 3.004 5.001 0.777 1.89 1.165 3.947 1.165 6.165 0 2.223-0.388 4.279-1.165 6.17-0.67 1.89-1.668 3.554-3.004 5.001-1.331 1.442-2.944 2.611-4.83 3.499-1.779 0.887-3.78 1.331-6.003 1.331h-104c-2.219 0-4.275-0.444-6.165-1.331-1.779-0.887-3.332-2.057-4.668-3.499-1.331-1.446-2.389-3.11-3.166-5.001z" />
<glyph unicode="&#xe962;" glyph-name="TXT-TH" data-tags="TXT TH" d="M256 874.667h341.333l256-256v-426.667h-85.333v384h-213.333v213.333h-298.667v-682.667h341.333v-85.333h-341.76c-46.933 0-84.907 38.4-84.907 85.333v682.667c0 46.933 38.4 85.333 85.333 85.333zM829.918-44.834v169.792c0 3.055 0.555 5.905 1.664 8.542 1.25 2.641 2.85 4.86 4.791 6.669 2.086 1.941 4.514 3.469 7.292 4.582 2.778 1.109 5.696 1.664 8.751 1.664s5.905-0.555 8.542-1.664c2.778-1.114 5.141-2.641 7.083-4.582 2.086-1.809 3.682-4.028 4.791-6.669 1.25-2.5 1.877-5.346 1.877-8.542v-63.539h85.414v63.539c0 3.055 0.559 5.905 1.668 8.542 1.25 2.641 2.846 4.86 4.791 6.669 2.082 1.941 4.446 3.469 7.083 4.582 2.778 1.109 5.696 1.664 8.751 1.664s5.973-0.555 8.751-1.664c2.778-1.114 5.137-2.641 7.083-4.582 2.082-1.809 3.678-4.028 4.791-6.669 1.25-2.5 1.873-5.346 1.873-8.542v-169.792c0-3.055-0.623-5.901-1.873-8.542-1.114-2.637-2.709-4.86-4.791-6.665-1.946-1.805-4.305-3.264-7.083-4.378-2.778-1.109-5.696-1.664-8.751-1.664s-5.973 0.555-8.751 1.664c-2.637 1.114-5.001 2.573-7.083 4.378-1.946 1.805-3.541 4.028-4.791 6.665-1.109 2.641-1.668 5.487-1.668 8.542v68.749h-85.414v-68.749c0-3.055-0.627-5.901-1.877-8.542-1.109-2.637-2.705-4.86-4.791-6.665-1.941-1.805-4.305-3.264-7.083-4.378-2.637-1.109-5.487-1.664-8.542-1.664s-5.973 0.555-8.751 1.664c-2.778 1.114-5.205 2.573-7.292 4.378-1.941 1.805-3.541 4.028-4.791 6.665-1.109 2.641-1.664 5.487-1.664 8.542zM641.583 124.335c0 2.778 0.418 5.346 1.25 7.706 0.973 2.364 2.291 4.446 3.959 6.251 1.664 1.805 3.61 3.264 5.833 4.378 2.359 1.109 4.932 1.664 7.71 1.664h129.997c2.778 0 5.278-0.555 7.501-1.664 2.364-1.114 4.378-2.573 6.042-4.378 1.668-1.805 2.918-3.887 3.75-6.251 0.973-2.359 1.459-4.928 1.459-7.706s-0.486-5.35-1.459-7.71c-0.832-2.359-2.082-4.446-3.75-6.251-1.664-1.805-3.678-3.264-6.042-4.373-2.223-0.973-4.723-1.459-7.501-1.459h-42.914v-148.958c0-3.055-0.627-5.973-1.877-8.751-1.109-2.637-2.705-4.932-4.791-6.874-1.941-1.805-4.305-3.264-7.083-4.378-2.778-1.109-5.696-1.664-8.751-1.664s-5.969 0.555-8.747 1.664c-2.778 1.114-5.21 2.573-7.292 4.378-2.086 1.941-3.682 4.237-4.791 6.874-1.25 2.778-1.877 5.696-1.877 8.751v148.958h-41.873c-2.778 0-5.35 0.486-7.71 1.459-2.223 1.109-4.169 2.569-5.833 4.373-1.668 1.805-2.987 3.891-3.959 6.251-0.832 2.359-1.25 4.932-1.25 7.71zM449.502 199.667c-1.003 2.223-1.502 4.501-1.502 6.831 0 2.445 0.388 4.834 1.165 7.168 0.892 2.445 2.057 4.779 3.503 7.002l38.165 56.998-38.665 54.332c-2.001 3.115-3.17 6.336-3.503 9.668s0.166 6.391 1.502 9.169c1.331 2.778 3.388 5.052 6.165 6.831 2.778 1.89 6.221 2.833 10.334 2.833 2.223 0 4.113-0.333 5.666-0.998 1.668-0.555 3.11-1.28 4.335-2.167 1.22-0.887 2.278-1.835 3.166-2.833s1.613-2.001 2.167-2.999l30.165-47.501 29.999 47.168c0.892 1.553 1.835 2.889 2.833 3.998 1.003 1.114 2.057 2.001 3.17 2.667 1.109 0.777 2.385 1.335 3.831 1.668 1.557 0.444 3.332 0.666 5.333 0.666 3.665 0 6.891-0.832 9.668-2.5 2.778-1.553 4.885-3.61 6.332-6.165s2.057-5.389 1.835-8.499c0-3.115-1.114-6.225-3.337-9.335l-39.164-56 39.164-57.668c1.779-2.662 3.059-5.218 3.836-7.663s1.054-4.779 0.832-7.002c-0.222-2.223-0.998-4.335-2.334-6.332-1.331-2.001-3.221-3.78-5.666-5.333-2.445-1.557-4.945-2.556-7.501-2.999-2.556-0.559-5.001-0.559-7.33 0-2.334 0.444-4.501 1.387-6.502 2.833-2.001 1.442-3.721 3.388-5.167 5.833l-30.831 50.001-29.167-48.337c-1.668-2.667-3.614-4.885-5.833-6.665-2.223-1.668-4.612-2.778-7.168-3.332-2.445-0.67-4.945-0.781-7.501-0.333-2.556 0.444-4.945 1.498-7.168 3.166-2.219 1.664-3.831 3.61-4.83 5.833zM309.167 342.665c0 2.223 0.334 4.279 1 6.17 0.778 1.89 1.833 3.554 3.167 5.001 1.333 1.442 2.889 2.611 4.666 3.499 1.889 0.887 3.945 1.331 6.167 1.331h104.002c2.219 0 4.22-0.444 5.999-1.331 1.89-0.887 3.499-2.057 4.834-3.499 1.331-1.446 2.334-3.11 2.999-5.001 0.777-1.89 1.165-3.947 1.165-6.17 0-2.219-0.388-4.275-1.165-6.165-0.666-1.89-1.668-3.554-2.999-5.001-1.335-1.442-2.944-2.611-4.834-3.499-1.779-0.777-3.78-1.165-5.999-1.165h-34.335v-119.168c0-2.445-0.5-4.779-1.5-7.002-0.889-2.112-2.167-3.942-3.833-5.5-1.556-1.442-3.444-2.611-5.667-3.499s-4.556-1.335-7-1.335c-2.444 0-4.778 0.448-7 1.335s-4.166 2.057-5.833 3.499c-1.667 1.557-2.944 3.388-3.833 5.5-1 2.223-1.5 4.557-1.5 7.002v119.168h-33.5c-2.223 0-4.278 0.388-6.167 1.165-1.777 0.887-3.333 2.057-4.666 3.499-1.333 1.446-2.389 3.11-3.167 5.001-0.666 1.89-1 3.947-1 6.165zM581.833 348.834c-0.666-1.89-0.998-3.947-0.998-6.17 0-2.219 0.333-4.275 0.998-6.165 0.777-1.89 1.835-3.554 3.166-5.001 1.335-1.442 2.889-2.611 4.668-3.499 1.89-0.777 3.947-1.165 6.165-1.165h33.502v-119.168c0-2.445 0.499-4.779 1.502-7.002 0.887-2.112 2.163-3.942 3.831-5.5 1.668-1.442 3.61-2.611 5.833-3.499s4.557-1.335 7.002-1.335c2.445 0 4.779 0.448 6.997 1.335 2.223 0.887 4.113 2.057 5.67 3.499 1.664 1.557 2.944 3.388 3.831 5.5 0.998 2.223 1.502 4.557 1.502 7.002v119.168h34.33c2.223 0 4.224 0.388 6.003 1.165 1.886 0.887 3.499 2.057 4.83 3.499 1.335 1.446 2.334 3.11 3.004 5.001 0.777 1.89 1.165 3.947 1.165 6.165 0 2.223-0.388 4.279-1.165 6.17-0.67 1.89-1.668 3.554-3.004 5.001-1.331 1.442-2.944 2.611-4.83 3.499-1.779 0.887-3.78 1.331-6.003 1.331h-104c-2.219 0-4.275-0.444-6.165-1.331-1.779-0.887-3.332-2.057-4.668-3.499-1.331-1.446-2.389-3.11-3.166-5.001z" />
<glyph unicode="&#xe963;" glyph-name="Table" data-tags="Table" d="M775.113 768h-533.335c-39.111 0-71.111-32-71.111-71.111v-497.776c0-39.113 32-71.113 71.111-71.113h533.335c39.108 0 71.108 32 71.108 71.113v497.776c0 39.111-32 71.111-71.108 71.111zM775.113 696.889v-106.667h-533.335v106.667h533.335zM597.333 199.113h-177.778v320h177.778v-320zM241.778 519.113h106.667v-320h-106.667v320zM668.446 199.113v320h106.667v-320h-106.667z" />
<glyph unicode="&#xe964;" glyph-name="Table-view" data-tags="Table view" d="M810.667 661.333h-426.667c-46.933 0-85.333-38.4-85.333-85.333v-426.667c0-46.933 38.4-85.333 85.333-85.333h426.667c46.933 0 85.333 38.4 85.333 85.333v426.667c0 46.933-38.4 85.333-85.333 85.333zM810.667 576v-85.333h-426.667v85.333h426.667zM554.667 320v85.333h85.333v-85.333h-85.333zM640 234.667v-85.333h-85.333v85.333h85.333zM469.333 320h-85.333v85.333h85.333v-85.333zM725.333 405.333h85.333v-85.333h-85.333v85.333zM384 234.667h85.333v-85.333h-85.333v85.333zM725.333 149.333v85.333h85.333v-85.333h-85.333zM256 234.667h-42.667c-46.933 0-85.333 38.4-85.333 85.333v426.667c0 46.933 38.4 85.333 85.333 85.333h426.667c46.933 0 85.333-38.4 85.333-85.333v-42.667h-85.333v42.667h-426.667v-426.667h42.667v-85.333z" />
<glyph unicode="&#xe965;" glyph-name="Terrain" data-tags="Terrain" d="M597.333 704l-160-213.333 121.6-162.133-68.267-51.2c-72.107 96-192 256-192 256l-256-341.333h938.667l-384 512z" />
<glyph unicode="&#xe966;" glyph-name="Thumb-up-filled" data-tags="Thumb up filled" d="M128 64h139.636v409.6h-139.636v-409.6zM896 439.467c0 37.547-31.42 68.267-69.82 68.267h-220.275l33.165 155.989 1.045 10.923c0 13.995-5.935 26.965-15.36 36.181l-37.001 35.84-229.704-224.939c-12.916-12.288-20.596-29.355-20.596-48.128v-341.333c0-37.547 31.418-68.267 69.818-68.267h314.182c28.975 0 53.76 17.067 64.23 41.643l105.429 240.64c3.14 7.851 4.885 16.043 4.885 24.917v68.267z" />
<glyph unicode="&#xe967;" glyph-name="Thumbnail" data-tags="Thumbnail" d="M170.667 618.667h170.667v170.667h-170.667v-170.667zM426.667 106.667h170.667v170.667h-170.667v-170.667zM170.667 106.667h170.667v170.667h-170.667v-170.667zM170.667 362.667h170.667v170.667h-170.667v-170.667zM426.667 362.667h170.667v170.667h-170.667v-170.667zM682.667 789.333v-170.667h170.667v170.667h-170.667zM426.667 618.667h170.667v170.667h-170.667v-170.667zM682.667 362.667h170.667v170.667h-170.667v-170.667zM682.667 106.667h170.667v170.667h-170.667v-170.667z" />
<glyph unicode="&#xe968;" glyph-name="Unchange" data-tags="Unchange" d="M170.667 448l256-256v512l-256-256zM853.333 448l-256 256v-512l256 256z" />
<glyph unicode="&#xe969;" glyph-name="Underline" data-tags="Underline" d="M512 234.667c141.227 0 256 114.773 256 256v341.333h-106.667v-341.333c0-82.347-66.987-149.333-149.333-149.333s-149.333 66.987-149.333 149.333v341.333h-106.667v-341.333c0-141.227 114.773-256 256-256zM213.333 149.333v-85.333h597.333v85.333h-597.333z" />
<glyph unicode="&#xe96a;" glyph-name="Up" data-tags="Up" d="M562.692 751.898l440.29-478.161c28.023-30.417 28.023-79.731 0-110.131-27.998-30.409-73.404-30.409-101.402 0l-389.589 423.096-389.575-423.087c-28.009-30.404-73.413-30.404-101.41 0-28.009 30.404-28.009 79.718 0 110.135l440.297 478.161c14.007 15.202 32.341 22.795 50.688 22.795 18.355 0 36.702-7.607 50.701-22.807z" />
<glyph unicode="&#xe96b;" glyph-name="Video" data-tags="Video" d="M896 832h-768c-47.36 0-85.333-37.973-85.333-85.333v-512c0-46.933 37.973-85.333 85.333-85.333h213.333v-85.333h341.333v85.333h213.333c46.933 0 84.907 38.4 84.907 85.333l0.427 512c0 47.36-38.4 85.333-85.333 85.333zM896 234.667h-768v512h768v-512zM682.667 490.667l-298.667-170.667v341.333l298.667-170.667z" />
<glyph unicode="&#xe96c;" glyph-name="Vpn-key" data-tags="Vpn key" d="M938.667 149.333h-256v170.667h-114.347c-48.64-103.253-153.6-170.667-269.653-170.667-164.693 0-298.667 133.973-298.667 298.667s133.973 298.667 298.667 298.667c116.053 0 220.587-67.413 269.653-170.667h455.68v-256h-85.333v-170.667zM768 234.667h85.333v170.667h85.333v85.333h-429.227l-9.813 28.587c-29.867 84.907-110.933 142.080-200.96 142.080-117.76 0-213.333-95.573-213.333-213.333s95.573-213.333 213.333-213.333c90.027 0 171.093 57.173 200.96 142.080l9.813 28.587h258.56v-170.667zM298.667 320c-70.4 0-128 57.6-128 128s57.6 128 128 128c70.4 0 128-57.6 128-128s-57.6-128-128-128zM298.667 490.667c-23.467 0-42.667-19.2-42.667-42.667s19.2-42.667 42.667-42.667c23.467 0 42.667 19.2 42.667 42.667s-19.2 42.667-42.667 42.667z" />
<glyph unicode="&#xe96d;" glyph-name="Warning" data-tags="Warning" d="M469.333 320h85.333v-85.333h-85.333v85.333zM469.333 661.333h85.333v-256h-85.333v256zM511.573 874.667c-235.52 0-426.24-191.147-426.24-426.667s190.72-426.667 426.24-426.667c235.947 0 427.093 191.147 427.093 426.667s-191.147 426.667-427.093 426.667zM512 106.667c-188.587 0-341.333 152.747-341.333 341.333s152.747 341.333 341.333 341.333c188.587 0 341.333-152.747 341.333-341.333s-152.747-341.333-341.333-341.333z" />
<glyph unicode="&#xe96e;" glyph-name="Web" data-tags="Web" d="M213.333 789.333c-23.564 0-42.667-19.103-42.667-42.667v-128h682.667v128c0 23.564-19.102 42.667-42.667 42.667h-597.333zM341.333 533.333h-170.667v-384c0-23.565 19.103-42.667 42.667-42.667h128v426.667zM426.667 106.667h384c23.565 0 42.667 19.102 42.667 42.667v384h-426.667v-426.667zM384 21.333h-170.667c-70.692 0-128 57.306-128 128v597.333c0 70.692 57.308 128 128 128h597.333c70.694 0 128-57.308 128-128v-597.333c0-70.694-57.306-128-128-128h-426.667z" />
<glyph unicode="&#xe96f;" glyph-name="XML" data-tags="XML" d="M256 874.667h341.333l256-256v-512c0-46.933-38.4-85.333-85.333-85.333h-512.427c-46.933 0-84.907 38.4-84.907 85.333v682.667c0 46.933 38.4 85.333 85.333 85.333zM256 106.667h512v469.333h-213.333v213.333h-298.667v-682.667zM280 199.667c-1 2.223-1.5 4.501-1.5 6.831 0 2.445 0.389 4.834 1.167 7.168 0.889 2.445 2.055 4.779 3.5 7.002l38.167 56.998-38.667 54.332c-2 3.115-3.167 6.336-3.5 9.668s0.167 6.391 1.5 9.169c1.334 2.778 3.389 5.052 6.167 6.831 2.778 1.89 6.222 2.833 10.333 2.833 2.223 0 4.111-0.333 5.667-0.998 1.667-0.555 3.111-1.28 4.333-2.167s2.278-1.835 3.167-2.833c0.889-0.998 1.611-2.001 2.167-2.999l30.167-47.501 30 47.168c0.889 1.553 1.833 2.889 2.833 3.998 1 1.114 2.056 2.001 3.167 2.667 1.111 0.777 2.389 1.335 3.833 1.668 1.556 0.444 3.334 0.666 5.333 0.666 3.667 0 6.889-0.832 9.667-2.5 2.778-1.553 4.889-3.61 6.333-6.165s2.056-5.389 1.833-8.499c0-3.115-1.111-6.225-3.333-9.335l-39.167-56 39.167-57.668c1.777-2.662 3.055-5.218 3.833-7.663s1.056-4.779 0.833-7.002c-0.222-2.223-1-4.335-2.333-6.332-1.334-2.001-3.223-3.78-5.667-5.333-2.444-1.557-4.944-2.556-7.5-2.999-2.555-0.559-5-0.559-7.333 0-2.333 0.444-4.5 1.387-6.5 2.833-2 1.442-3.722 3.388-5.167 5.833l-30.833 50.001-29.167-48.337c-1.667-2.667-3.611-4.885-5.833-6.665-2.222-1.668-4.611-2.778-7.167-3.332-2.444-0.67-4.944-0.781-7.5-0.333-2.556 0.444-4.945 1.498-7.167 3.166-2.222 1.664-3.833 3.61-4.833 5.833zM425.333 208.333v131.836c0 3.776 0.611 6.831 1.833 9.165 1.225 2.445 2.833 4.335 4.834 5.666 2.001 1.335 4.279 2.223 6.835 2.667 2.556 0.555 5.107 0.832 7.663 0.832h8.166c3.115 0 5.781-0.333 8.004-0.998 2.219-0.555 4.164-1.498 5.833-2.833 1.664-1.335 3.166-3.055 4.497-5.167 1.335-2.112 2.445-4.723 3.337-7.834l37.333-104.333h0.666l36.668 104.333c0.998 3.11 2.108 5.722 3.332 7.834 1.331 2.112 2.833 3.831 4.501 5.167 1.664 1.335 3.665 2.278 5.999 2.833 2.334 0.666 5.001 0.998 8 0.998h7.501c2.667 0 5.278-0.277 7.834-0.832 2.556-0.444 4.774-1.331 6.665-2.667 2.001-1.331 3.61-3.221 4.834-5.666 1.22-2.445 1.835-5.5 1.835-9.165v-131.836c0-2.334-0.337-4.612-1.003-6.831-0.555-2.112-1.553-4.002-2.999-5.67-1.331-1.664-3.11-2.999-5.333-3.998-2.112-0.998-4.779-1.502-8-1.502-3.11 0-5.777 0.503-8 1.502-2.112 0.998-3.887 2.334-5.333 3.998-1.442 1.668-2.445 3.558-2.999 5.67-0.555 2.219-0.832 4.497-0.832 6.831v83.669l1.165 18.662-3.831-16.832-34.334-92.834c-1.335-3.776-3.392-6.498-6.17-8.166-2.778-1.664-6.276-2.5-10.5-2.5-3.998 0-7.441 0.836-10.33 2.5-2.667 1.668-4.668 4.39-6.003 8.166l-34.33 93.001-3.836 17.003 1.165-19.17v-83.499c0-2.334-0.333-4.612-0.998-6.831-0.666-2.112-1.664-4.002-2.999-5.67-1.335-1.664-3.11-2.999-5.333-3.998s-4.89-1.502-8-1.502c-3.11 0-5.777 0.503-8 1.502s-3.998 2.334-5.333 3.998c-1.335 1.668-2.334 3.558-3 5.67-0.667 2.219-1 4.497-1 6.831zM632.333 341.833v-128.166c0-4.22 0.499-7.723 1.502-10.5 0.998-2.667 2.445-4.834 4.331-6.498 1.89-1.668 4.169-2.889 6.835-3.669 2.667-0.666 5.666-0.998 8.998-0.998h76.002c2.667 0 5.167 0.333 7.501 0.998 2.33 0.67 4.331 1.668 5.999 3.004 1.775 1.331 3.166 2.944 4.164 4.83 1.003 2.001 1.502 4.224 1.502 6.669 0 2.556-0.499 4.779-1.502 6.665-0.998 2.001-2.389 3.614-4.164 4.834-1.668 1.335-3.669 2.334-5.999 2.999-2.334 0.67-4.834 1.003-7.501 1.003h-61.333v118.831c0 2.778-0.444 5.278-1.335 7.501-0.887 2.223-2.112 4.169-3.665 5.833-1.557 1.668-3.443 2.944-5.666 3.836-2.112 0.887-4.612 1.331-7.501 1.331-2.778 0-5.278-0.444-7.501-1.331-2.223-0.892-4.164-2.167-5.833-3.836-1.557-1.664-2.778-3.665-3.665-5.999-0.781-2.223-1.169-4.668-1.169-7.334z" />
<glyph unicode="&#xe970;" glyph-name="Zoom-in" data-tags="Zoom-in" d="M627.627 362.667h33.707l212.907-213.333-63.573-63.573-213.333 212.907v33.707l-11.52 11.947c-48.64-41.813-111.787-66.987-180.48-66.987-153.173 0-277.333 124.16-277.333 277.333s124.16 277.333 277.333 277.333c153.173 0 277.333-124.16 277.333-277.333 0-68.693-25.173-131.84-66.987-180.48l11.947-11.52zM213.333 554.667c0-106.24 85.76-192 192-192s192 85.76 192 192c0 106.24-85.76 192-192 192s-192-85.76-192-192zM426.667 533.333h85.333v42.667h-85.333v85.333h-42.667v-85.333h-85.333v-42.667h85.333v-85.333h42.667v85.333z" />
<glyph unicode="&#xe971;" glyph-name="Zoom-out" data-tags="Zoom-out" d="M661.333 362.667h-33.707l-11.947 11.52c41.813 48.64 66.987 111.787 66.987 180.48 0 153.173-124.16 277.333-277.333 277.333s-277.333-124.16-277.333-277.333c0-153.173 124.16-277.333 277.333-277.333 68.693 0 131.84 25.173 180.48 66.987l11.52-11.947v-33.707l213.333-212.907 63.573 63.573-212.907 213.333zM405.333 362.667c-106.24 0-192 85.76-192 192s85.76 192 192 192c106.24 0 192-85.76 192-192s-85.76-192-192-192zM298.667 576h213.333v-42.667h-213.333v42.667z" />
<glyph unicode="&#xe972;" glyph-name="edit-filled" data-tags="edit filled" d="M128 224v-160h160l471.893 471.893-160 160-471.893-471.893zM883.627 659.627c16.64 16.64 16.64 43.52 0 60.16l-99.84 99.84c-16.64 16.64-43.52 16.64-60.16 0l-78.080-78.080 160-160 78.080 78.080z" />
</font>
</defs>
</svg>
