<svg width="24" height="24" viewBox="0 0 24 24" fill="none" xmlns="http://www.w3.org/2000/svg">
<path fill-rule="evenodd" clip-rule="evenodd" d="M10 12C12.21 12 14 10.21 14 8C14 5.79 12.21 4 10 4C7.79 4 6 5.79 6 8C6 10.21 7.79 12 10 12ZM10 6C11.1 6 12 6.9 12 8C12 9.1 11.1 10 10 10C8.9 10 8 9.1 8 8C8 6.9 8.9 6 10 6ZM4 18C4.22 17.28 7.31 16 10 16C10 15.3 10.13 14.63 10.35 14.01C7.62 13.91 2 15.27 2 18V20H11.54C11.02 19.42 10.61 18.75 10.35 18H4ZM20 16C20 16.74 19.79 17.43 19.43 18.02C20.4927 19.0767 20.6679 19.2531 20.9557 19.5428C21.1499 19.7383 21.3955 19.9855 22 20.59L20.59 22L18.02 19.43C17.43 19.78 16.74 20 16 20C13.79 20 12 18.21 12 16C12 13.79 13.79 12 16 12C18.21 12 20 13.79 20 16ZM14 16C14 17.1 14.9 18 16 18C17.1 18 18 17.1 18 16C18 14.9 17.1 14 16 14C14.9 14 14 14.9 14 16Z" fill="#231F20"/>
</svg>
