<svg width="24" height="24" viewBox="0 0 24 24" fill="none" xmlns="http://www.w3.org/2000/svg">
<path fill-rule="evenodd" clip-rule="evenodd" d="M12.1024 4.22132H9.04853C9.04884 4.1856 9.04951 4.14987 9.05018 4.11423C9.0511 4.06537 9.05201 4.01667 9.05201 3.96836C9.05201 3.91701 9.051 3.86535 9.04998 3.81358V3.81355C9.04825 3.72548 9.04652 3.63708 9.04976 3.54937C9.22541 3.53932 9.40392 3.54378 9.58096 3.5482C9.67814 3.55063 9.77488 3.55304 9.87045 3.55304H10.6031C10.6613 3.56653 10.7217 3.57367 10.7836 3.57367C11.2355 3.57367 11.5983 3.20054 11.6039 2.75335L11.6039 2.75243H11.6048V2.73181L11.6047 2.71858C11.6051 2.70644 11.6056 2.69431 11.6063 2.68217C11.6171 2.63233 11.6304 2.58334 11.6463 2.53499C11.6693 2.49066 11.6945 2.4476 11.7219 2.40576C11.7544 2.37004 11.7886 2.33608 11.8242 2.30365C11.8653 2.27688 11.9074 2.25218 11.9508 2.22954C11.9998 2.21352 12.0493 2.20016 12.0994 2.18918C12.148 2.18685 12.1965 2.18689 12.2451 2.18935C12.2933 2.19989 12.3408 2.21285 12.3875 2.22823C12.4321 2.25124 12.4753 2.27645 12.5173 2.30387C12.5534 2.33663 12.5878 2.37098 12.6205 2.40705C12.6476 2.44859 12.6726 2.49136 12.6954 2.53536C12.7111 2.58327 12.7242 2.63169 12.735 2.68085C12.7362 2.70495 12.7369 2.72909 12.7373 2.75335C12.7429 3.20054 13.1067 3.57367 13.5576 3.57367C13.6195 3.57367 13.6799 3.56653 13.7381 3.55305H14.4707C14.5667 3.55305 14.6637 3.55063 14.7611 3.5482C14.8719 3.54543 14.9832 3.54266 15.0939 3.54342C15.0688 3.61684 15.0551 3.69484 15.0551 3.77542C15.0551 3.82981 15.0563 3.88457 15.0575 3.93946C15.0595 4.03466 15.0616 4.13027 15.0575 4.225C14.8701 4.23579 14.6789 4.23109 14.4891 4.22642C14.3854 4.22386 14.2822 4.22132 14.1801 4.22132H12.1024ZM9.09231 1.91149H10.1311C10.2525 1.60632 10.4393 1.32801 10.6889 1.1193C11.1398 0.741483 11.7323 0.477109 12.3342 0.553983C12.6576 0.59523 12.9314 0.656166 13.2239 0.811791C13.4339 0.923367 13.6401 1.07617 13.7958 1.25805C13.9686 1.45926 14.1071 1.67743 14.2058 1.91149H14.9536C14.993 1.91149 15.0326 1.91113 15.0723 1.91078C15.2913 1.90883 15.5132 1.90685 15.7251 1.96399C16.2609 2.10747 16.6662 2.50891 16.8395 3.01039H17.2816C17.4536 3.01039 17.6258 3.00899 17.7982 3.0076H17.7982H17.7983H17.7983H17.7984H17.7984C18.1551 3.00472 18.5122 3.00183 18.8681 3.01126C19.4337 3.02612 20.0644 3.1424 20.4638 3.56033C20.8788 3.99486 20.9972 4.55705 21 5.12973L20.9998 5.14877V6.76882V10.4261V14.7393V18.3424V19.8698C20.9998 20.432 20.8823 20.9802 20.4893 21.4147C20.1074 21.8379 19.4886 21.9752 18.9285 21.9953C18.7866 22.0003 18.6447 21.9995 18.5028 21.9986C18.4482 21.9983 18.3937 21.9979 18.3391 21.9979H15.2681H10.8133H6.8442H5.62676C5.57294 21.9979 5.5189 21.9984 5.46476 21.999H5.46446H5.46417H5.46387H5.46357H5.46328C5.29351 22.0006 5.12278 22.0022 4.95469 21.9883C4.60765 21.9595 4.312 21.9009 3.99709 21.7627C3.72717 21.6438 3.51783 21.4427 3.34798 21.2145C3.06427 20.8351 3 20.3201 3 19.8681V19.4187V16.6419V12.4994V8.35679V5.58001V5.13061C3 4.68907 3.05876 4.15399 3.34798 3.78766C3.52334 3.56558 3.72164 3.35574 3.99709 3.24296C4.31752 3.11181 4.60305 3.04536 4.95469 3.02C5.33168 2.99305 5.71452 2.99915 6.09533 3.00521C6.258 3.0078 6.4203 3.01039 6.58162 3.01039H7.49913C7.64732 2.61986 7.91195 2.26065 8.30387 2.08586C8.56076 1.97149 8.80919 1.91149 9.09231 1.91149ZM19.3931 5.12947L19.3932 5.11865C19.3923 5.03239 19.389 4.94613 19.3811 4.85987C19.3683 4.7931 19.3518 4.72737 19.3301 4.66296C19.3231 4.65063 19.3159 4.63845 19.3084 4.62641L19.3026 4.62092C19.2894 4.61331 19.2759 4.60599 19.2624 4.59894C19.196 4.57888 19.1282 4.56344 19.0597 4.55132L19.0435 4.55005C18.6665 4.5231 18.2836 4.52919 17.9028 4.53526C17.7401 4.53785 17.5778 4.54043 17.4165 4.54043H16.9227C16.9153 4.62583 16.9023 4.71066 16.88 4.79427C16.8378 4.94989 16.7769 5.11208 16.6841 5.24427C16.5388 5.44959 16.4197 5.56772 16.2238 5.71772C15.8496 6.00286 15.4003 6.00234 14.9588 6.00183L14.9028 6.00178H10.777H9.20104L9.17361 6.0018C8.95771 6.00194 8.7312 6.0021 8.52885 5.92116C8.28604 5.82461 8.07041 5.72148 7.88479 5.52835C7.71083 5.34716 7.60706 5.16686 7.51433 4.94075C7.44415 4.81166 7.40127 4.67762 7.37514 4.54043H6.46509H5.49646L5.41514 4.54031C5.25148 4.53994 5.08793 4.53956 4.92516 4.55283C4.86089 4.56434 4.79756 4.57903 4.7354 4.59798C4.7211 4.60532 4.70698 4.61296 4.69304 4.62095L4.68825 4.62549C4.68019 4.63822 4.67244 4.65112 4.665 4.66417C4.64442 4.72563 4.62856 4.78832 4.61607 4.8517C4.60699 4.95347 4.60405 5.05559 4.60405 5.1577V7.00601V10.7665V15.0725V18.5592V19.569L4.60378 19.6701C4.60313 19.8308 4.60247 19.992 4.61662 20.1519C4.62913 20.215 4.645 20.2772 4.66556 20.3384C4.67332 20.3522 4.68139 20.3658 4.68979 20.3792L4.69908 20.3881C4.71229 20.3956 4.7257 20.4029 4.73929 20.4099C4.80458 20.4298 4.87113 20.4452 4.93872 20.4573C5.13148 20.4734 5.32754 20.4716 5.52197 20.4698L5.52245 20.4698C5.58316 20.4693 5.64371 20.4687 5.70395 20.4687H8.83281H13.2986H17.2317H18.4143C18.4562 20.4687 18.4981 20.4689 18.5401 20.4692H18.5401C18.7143 20.47 18.8888 20.4709 19.0621 20.4568C19.1282 20.4449 19.1932 20.4298 19.2571 20.4104C19.2651 20.4063 19.2731 20.402 19.281 20.3977L19.3007 20.3866L19.3059 20.3818C19.3147 20.3678 19.3232 20.3536 19.3313 20.3392C19.3524 20.2768 19.3685 20.213 19.3812 20.1483C19.3897 20.054 19.393 19.9595 19.393 19.8646V18.2008V14.5305V10.2182V6.6292V5.12975L19.3933 5.12973L19.3931 5.12947ZM19.3666 4.7389C19.3688 4.75324 19.3707 4.76757 19.3725 4.78191L19.3666 4.7389ZM19.1463 4.55971L19.1812 4.56404L19.164 4.56183L19.1463 4.55971ZM13.1755 8.83485H16.663C17.1102 8.83485 17.4833 9.20798 17.4833 9.65517C17.4833 10.1024 17.1102 10.4755 16.663 10.4755H15.6974H12.2099C11.7627 10.4755 11.3896 10.1024 11.3896 9.65517C11.3896 9.20798 11.7627 8.83485 12.2099 8.83485H13.1755ZM12.2104 17.0192H15.6978H16.6635C17.1106 17.0192 17.4838 16.6461 17.4838 16.1989C17.4838 15.7517 17.1106 15.3786 16.6635 15.3786H13.176H12.2104C11.7632 15.3786 11.3901 15.7517 11.3901 16.1989C11.3901 16.6461 11.7632 17.0192 12.2104 17.0192ZM7.75805 9.33337L8.85446 8.23695C9.1704 7.92102 9.69914 7.92102 10.0141 8.23695C10.3301 8.55289 10.3301 9.0807 10.0141 9.39663L8.33789 11.0729C8.02195 11.3888 7.49414 11.3888 7.17821 11.0729L6.23695 10.1316C5.92102 9.8157 5.92102 9.28789 6.23695 8.97195C6.55289 8.65602 7.0807 8.65602 7.39663 8.97195L7.75805 9.33337ZM6.96612 16.199L6.58265 16.5825C6.26672 16.8984 6.26672 17.4262 6.58265 17.7421C6.89859 18.0581 7.4264 18.0581 7.74233 17.7421L8.1258 17.3587L8.50927 17.7421C8.82521 18.0581 9.35301 18.0581 9.66895 17.7421C9.98489 17.4262 9.98489 16.8984 9.66895 16.5825L9.28548 16.199L9.66888 15.8156C9.98482 15.4997 9.98482 14.9718 9.66888 14.6559C9.35295 14.34 8.82514 14.34 8.50921 14.6559L8.1258 15.0393L7.7424 14.6559C7.42646 14.34 6.89865 14.34 6.58272 14.6559C6.26678 14.9718 6.26678 15.4997 6.58272 15.8156L6.96612 16.199Z" fill="#231F20"/>
</svg>
