<svg width="24" height="25" viewBox="0 0 24 25" fill="none" xmlns="http://www.w3.org/2000/svg">
<path fill-rule="evenodd" clip-rule="evenodd" d="M13.9609 5.49219L13.9687 3.39062L19.6016 1L19.5781 6.84766L17.6367 7.66797L17.6523 3.92578L13.9609 5.49219ZM10.4258 15.8789L10.4303 14.3765L16.1211 11.9609L16.1295 10.0234L20.4492 8.19141L20.4375 11.6289L10.4258 15.8789ZM9.66681 16.4055L9.67444 14.6973L5.10547 16.6367L5.11719 13.4531C5.12109 12.7148 5.68359 11.8789 6.36328 11.5898L16.1406 7.4375L16.133 9.20875L21.207 7.05469L21.1875 12.1289L21.1328 12.1523L14.0286 15.1673L14.0236 16.3237L19.1016 14.168L19.082 19.2422L19.0273 19.2656L7.55859 24.1328L7.56899 21.8099L3 23.75L3.01172 20.5703C3.01562 19.832 3.57031 18.9922 4.25781 18.6992L9.66681 16.4055ZM5.35547 16.2617L9.67564 14.4281L9.67969 13.5234C9.68359 12.6523 10.3398 11.6719 11.1406 11.3281L15.8847 9.31414L15.8906 7.80859L6.36328 11.8516C5.82031 12.082 5.36719 12.7578 5.36719 13.3477L5.35547 16.2617ZM15.875 11.7969L10.4311 14.1074L10.4336 13.2812C10.4375 12.8242 10.793 12.2891 11.2109 12.1094L15.8815 10.1286L15.875 11.7969ZM9.66406 17.0195L9.66561 16.6739L4.25781 18.9688C3.70703 19.2031 3.25781 19.875 3.25391 20.4688L3.24609 23.3828L7.57017 21.5466L7.57422 20.6406C7.57812 19.7695 8.23047 18.7812 9.03516 18.4414L13.7793 16.4274L13.7838 15.2712L9.66406 17.0195ZM14.0201 17.1441L18.3438 15.3086L18.332 18.7461L8.31641 22.9961L8.3232 21.4897L14.0117 19.0742L14.0201 17.1441ZM13.7761 17.2477L13.7695 18.9141L8.32439 21.2263L8.32812 20.3984C8.32812 19.9336 8.67969 19.4102 9.10547 19.2305L13.7761 17.2477Z" fill="#231F20"/>
</svg>
