<svg width="24" height="24" viewBox="0 0 24 24" fill="none" xmlns="http://www.w3.org/2000/svg">
<path fill-rule="evenodd" clip-rule="evenodd" d="M6 2H14L20 8V20C20 21.1 19.1 22 18 22H5.99C4.89 22 4 21.1 4 20V4C4 2.9 4.9 2 6 2ZM6 20H18V9H13V4H6V20ZM14.3672 15.5117C14.3307 15.6836 14.3125 15.8607 14.3125 16.043C14.3125 16.3789 14.3568 16.6745 14.4453 16.9297C14.5339 17.1849 14.6615 17.3984 14.8281 17.5703C14.9948 17.7396 15.1979 17.8685 15.4375 17.957C15.6771 18.043 15.9492 18.0859 16.2539 18.0859C16.3971 18.0859 16.5365 18.0703 16.6719 18.0391C16.8073 18.0104 16.9336 17.9701 17.0508 17.918C17.168 17.8659 17.2747 17.8047 17.3711 17.7344C17.4674 17.6615 17.5495 17.5833 17.6172 17.5C17.6849 17.4167 17.7344 17.3294 17.7656 17.2383C17.7891 17.1706 17.8008 17.1016 17.8008 17.0312C17.8008 17.0078 17.7995 16.9844 17.7969 16.9609C17.7917 16.9089 17.7773 16.862 17.7539 16.8203C17.7305 16.7786 17.7005 16.7422 17.6641 16.7109C17.6276 16.6797 17.5846 16.6562 17.5352 16.6406C17.4857 16.625 17.4323 16.6198 17.375 16.625C17.3073 16.6302 17.25 16.651 17.2031 16.6875C17.1562 16.724 17.1107 16.7695 17.0664 16.8242C17.0221 16.8789 16.9766 16.9388 16.9297 17.0039C16.8828 17.069 16.8281 17.1276 16.7656 17.1797C16.7057 17.2318 16.6341 17.276 16.5508 17.3125C16.4701 17.349 16.3711 17.3672 16.2539 17.3672C16.0612 17.3672 15.8971 17.332 15.7617 17.2617C15.6263 17.1888 15.5156 17.0924 15.4297 16.9727C15.3438 16.8503 15.2799 16.7096 15.2383 16.5508C15.1992 16.3893 15.1797 16.2201 15.1797 16.043C15.1797 15.832 15.2083 15.6445 15.2656 15.4805C15.3229 15.3138 15.3984 15.1745 15.4922 15.0625C15.5859 14.9479 15.6953 14.862 15.8203 14.8047C15.9479 14.7448 16.082 14.7148 16.2227 14.7148C16.3242 14.7148 16.4115 14.7253 16.4844 14.7461C16.5573 14.7643 16.6211 14.7904 16.6758 14.8242C16.7305 14.8581 16.7773 14.8958 16.8164 14.9375C16.8555 14.9792 16.8919 15.0221 16.9258 15.0664C16.9596 15.1107 16.9909 15.1536 17.0195 15.1953C17.0508 15.237 17.0833 15.2747 17.1172 15.3086C17.1536 15.3424 17.1953 15.3698 17.2422 15.3906C17.2891 15.4089 17.3451 15.418 17.4102 15.418C17.5326 15.4206 17.6302 15.3854 17.7031 15.3125C17.7708 15.2448 17.8047 15.1536 17.8047 15.0391V15.0156C17.8021 14.9479 17.7852 14.8763 17.7539 14.8008C17.7227 14.7253 17.6758 14.6497 17.6133 14.5742C17.5534 14.4987 17.4792 14.4258 17.3906 14.3555C17.3021 14.2852 17.1992 14.224 17.082 14.1719C16.9648 14.1198 16.8346 14.0781 16.6914 14.0469C16.5508 14.0156 16.3945 14 16.2227 14C16.0117 14 15.819 14.0247 15.6445 14.0742C15.4701 14.1237 15.3112 14.194 15.168 14.2852C15.0273 14.3737 14.9036 14.4818 14.7969 14.6094C14.6901 14.7344 14.6003 14.8724 14.5273 15.0234C14.457 15.1745 14.4036 15.3372 14.3672 15.5117ZM10.0508 16.0469C10.0508 15.8698 10.0677 15.6966 10.1016 15.5273C10.138 15.3581 10.1914 15.1979 10.2617 15.0469C10.3346 14.8958 10.4245 14.7565 10.5312 14.6289C10.6406 14.5013 10.7669 14.3919 10.9102 14.3008C11.0534 14.2096 11.2148 14.138 11.3945 14.0859C11.5742 14.0339 11.7708 14.0078 11.9844 14.0078C12.2031 14.0078 12.4023 14.0339 12.582 14.0859C12.7643 14.138 12.9271 14.2096 13.0703 14.3008C13.2161 14.3919 13.3438 14.5013 13.4531 14.6289C13.5625 14.7565 13.6523 14.8958 13.7227 15.0469C13.7956 15.1979 13.849 15.3581 13.8828 15.5273C13.9193 15.6966 13.9375 15.8698 13.9375 16.0469C13.9375 16.224 13.9193 16.3971 13.8828 16.5664C13.849 16.7357 13.7956 16.8958 13.7227 17.0469C13.6523 17.1953 13.5625 17.3333 13.4531 17.4609C13.3438 17.5859 13.2161 17.694 13.0703 17.7852C12.9271 17.8763 12.7643 17.9466 12.582 17.9961C12.4023 18.0456 12.2031 18.0703 11.9844 18.0703C11.7682 18.0703 11.5703 18.0456 11.3906 17.9961C11.2135 17.9466 11.0534 17.8763 10.9102 17.7852C10.7669 17.694 10.6406 17.5859 10.5312 17.4609C10.4245 17.3333 10.3346 17.1953 10.2617 17.0469C10.1914 16.8958 10.138 16.7357 10.1016 16.5664C10.0677 16.3971 10.0508 16.224 10.0508 16.0469ZM10.8984 16.0469C10.8984 16.1536 10.9076 16.2604 10.9258 16.3672C10.944 16.4714 10.9714 16.5716 11.0078 16.668C11.0443 16.7643 11.0911 16.8542 11.1484 16.9375C11.2083 17.0182 11.2786 17.0898 11.3594 17.1523C11.4401 17.2122 11.5326 17.2591 11.6367 17.293C11.7383 17.3268 11.8542 17.3438 11.9844 17.3438C12.1146 17.3438 12.2331 17.3268 12.3398 17.293C12.4466 17.2591 12.5417 17.2122 12.625 17.1523C12.7083 17.0898 12.7786 17.0182 12.8359 16.9375C12.8932 16.8542 12.9414 16.7643 12.9805 16.668C13.0195 16.5716 13.0469 16.4714 13.0625 16.3672C13.0807 16.263 13.0898 16.1562 13.0898 16.0469C13.0898 15.9401 13.0807 15.8346 13.0625 15.7305C13.0469 15.6237 13.0195 15.5221 12.9805 15.4258C12.9414 15.3294 12.8932 15.2396 12.8359 15.1562C12.7786 15.0729 12.7083 15.0013 12.625 14.9414C12.5417 14.8789 12.4479 14.8307 12.3438 14.7969C12.2344 14.7604 12.1146 14.7422 11.9844 14.7422C11.8542 14.7422 11.737 14.7604 11.6328 14.7969C11.5312 14.8307 11.4401 14.8789 11.3594 14.9414C11.2786 15.0013 11.2083 15.0729 11.1484 15.1562C11.0911 15.2396 11.0443 15.3294 11.0078 15.4258C10.9714 15.5221 10.944 15.6237 10.9258 15.7305C10.9076 15.8346 10.8984 15.9401 10.8984 16.0469ZM6.34375 17.4805V14.6172C6.34375 14.5182 6.35547 14.4362 6.37891 14.3711C6.40234 14.306 6.4362 14.2526 6.48047 14.2109C6.52474 14.1693 6.57812 14.1406 6.64062 14.125C6.70312 14.1094 6.77214 14.1016 6.84766 14.1016H7.90625C8.0625 14.1016 8.21615 14.1146 8.36719 14.1406C8.52083 14.1641 8.66406 14.2057 8.79688 14.2656C8.93229 14.3255 9.05599 14.4049 9.16797 14.5039C9.28255 14.6003 9.38021 14.7214 9.46094 14.8672C9.54427 15.0104 9.60938 15.1797 9.65625 15.375C9.70052 15.5677 9.72266 15.7917 9.72266 16.0469C9.72266 16.3568 9.68099 16.6328 9.59766 16.875C9.51693 17.1172 9.39844 17.3216 9.24219 17.4883C9.08594 17.6549 8.89453 17.7826 8.66797 17.8711C8.44141 17.957 8.18229 18 7.89062 18H6.84766C6.77214 18 6.70312 17.9922 6.64062 17.9766C6.57812 17.9583 6.52474 17.9297 6.48047 17.8906C6.4362 17.849 6.40234 17.7956 6.37891 17.7305C6.35547 17.6628 6.34375 17.5794 6.34375 17.4805ZM7.1875 17.3164H7.9375C8.05208 17.3164 8.15495 17.2995 8.24609 17.2656C8.33724 17.2292 8.41667 17.181 8.48438 17.1211C8.55469 17.0612 8.61328 16.9909 8.66016 16.9102C8.70964 16.8268 8.75 16.7383 8.78125 16.6445C8.8125 16.5508 8.83464 16.4531 8.84766 16.3516C8.86068 16.2474 8.86719 16.1458 8.86719 16.0469C8.86719 15.8542 8.84766 15.681 8.80859 15.5273C8.77214 15.3711 8.71484 15.2383 8.63672 15.1289C8.5612 15.0195 8.46484 14.9362 8.34766 14.8789C8.23047 14.819 8.09375 14.7891 7.9375 14.7891H7.1875V17.3164Z" fill="#231F20"/>
</svg>
