<svg width="24" height="24" viewBox="0 0 24 24" fill="none" xmlns="http://www.w3.org/2000/svg">
<path d="M21.9204 10.675L21.8438 10H21.229C17.4556 10 14.7658 10.9055 13.0344 12.6368C12.9719 12.6993 12.9157 12.7852 12.8555 12.8477C13.4649 13.6321 13.9203 14.4524 14.2602 15.2969C15.3352 13.6313 17.1446 12.0821 20.0142 11.2259C17.0018 13.1861 15.576 16.0767 15.0204 18.3377C15.1368 19.2518 15.179 20.2096 15.179 21.2167C15.179 21.3035 15.1712 21.3894 15.1602 21.4738C16.6173 20.9871 17.954 20.1457 19.0688 19.0292C21.2672 16.8324 22.3086 13.7674 21.9204 10.6752L21.9204 10.675Z" fill="#231F20"/>
<path d="M13.8 21.218C13.8 17.8516 13.3359 15.0508 10.921 12.6368C9.19055 10.9056 6.54521 10 2.77181 10H2.15697L2.07962 10.675C1.69134 13.7672 2.72884 16.8328 4.92642 19.0296C6.81314 20.9163 9.32322 21.9726 11.9944 21.9726C12.4132 21.9726 12.8046 21.9538 13.2194 21.9023L13.7991 21.8335L13.8 21.218ZM6.38521 17.604C4.92817 16.147 4.11721 14.2586 4.06481 12.2314C6.55161 12.3931 8.37661 13.0408 9.49441 14.1587C10.9764 15.6408 11.6202 17.2455 11.7662 19.9235C9.73341 19.8688 7.82941 19.0493 6.38501 17.6039L6.38521 17.604Z" fill="#231F20"/>
<path d="M21.3124 7.5594L19.7562 3.932C19.5733 3.50856 19.1741 3.48512 18.8694 3.88044L18.4366 4.44294C16.6929 2.96326 14.4398 1.96714 11.9788 1.96714C7.61002 1.9687 3.88822 4.79994 2.52962 8.59994H2.7718C3.51476 8.59994 4.2179 8.72963 4.8874 8.79291C6.10536 6.08511 8.8226 4.23971 11.9796 4.23971C13.9312 4.23971 15.7156 4.98815 17.0828 6.17955L17.0758 6.20142L16.632 6.78424C16.3265 7.18034 16.4515 7.56314 16.9086 7.63034L20.8126 8.20846C21.2704 8.27565 21.4954 7.98424 21.3126 7.55924L21.3124 7.5594Z" fill="#231F20"/>
</svg>
