<svg width="24" height="24" viewBox="0 0 24 24" fill="none" xmlns="http://www.w3.org/2000/svg">
<path d="M12 5.70757C15.79 5.70757 19.17 7.93212 20.82 11.4517C20.23 12.7258 19.4 13.8225 18.41 14.7102L19.82 16.1828C21.21 14.8982 22.31 13.2898 23 11.4517C21.27 6.86684 17 3.6188 12 3.6188C10.73 3.6188 9.51 3.82768 8.36 4.2141L10.01 5.93734C10.66 5.80157 11.32 5.70757 12 5.70757ZM10.93 6.89817L13 9.06005C13.57 9.32115 14.03 9.80157 14.28 10.3969L16.35 12.5587C16.43 12.2037 16.49 11.8277 16.49 11.4413C16.5 8.85117 14.48 6.75196 12 6.75196C11.63 6.75196 11.28 6.80418 10.93 6.89817ZM2.01 3.48303L4.69 6.28198C3.06 7.6188 1.77 9.39426 1 11.4517C2.73 16.0366 7 19.2846 12 19.2846C13.52 19.2846 14.98 18.9817 16.32 18.4282L19.74 22L21.15 20.5274L3.42 2L2.01 3.48303ZM9.51 11.3159L12.12 14.0418C12.08 14.0522 12.04 14.0627 12 14.0627C10.62 14.0627 9.5 12.893 9.5 11.4517C9.5 11.3995 9.51 11.3681 9.51 11.3159ZM6.11 7.76501L7.86 9.59269C7.63 10.1671 7.5 10.7937 7.5 11.4517C7.5 14.0418 9.52 16.1514 12 16.1514C12.63 16.1514 13.23 16.0157 13.77 15.7755L14.75 16.799C13.87 17.0496 12.95 17.1958 12 17.1958C8.21 17.1958 4.83 14.9713 3.18 11.4517C3.88 9.95822 4.9 8.72585 6.11 7.76501Z" fill="#231F20"/>
</svg>
