<svg width="24" height="24" viewBox="0 0 24 24" fill="none" xmlns="http://www.w3.org/2000/svg">
<path d="M15.0399 9.96L9.07992 4L8.13992 4.94L9.72659 6.52667L6.29325 9.96C5.89992 10.3533 5.89992 10.9867 6.29325 11.3733L9.95992 15.04C10.1533 15.2333 10.4133 15.3333 10.6666 15.3333C10.9199 15.3333 11.1799 15.2333 11.3733 15.04L15.0399 11.3733C15.4333 10.9867 15.4333 10.3533 15.0399 9.96ZM7.47325 10.6667L10.6666 7.47333L13.8599 10.6667H7.47325ZM16.6666 11.6667C16.6666 11.6667 15.3333 13.1133 15.3333 14C15.3333 14.7333 15.9333 15.3333 16.6666 15.3333C17.3999 15.3333 17.9999 14.7333 17.9999 14C17.9999 13.1133 16.6666 11.6667 16.6666 11.6667ZM5.33325 17.3333H18.6666V20H5.33325V17.3333Z" fill="#231F20"/>
</svg>
