<svg width="24" height="24" viewBox="0 0 24 24" fill="none" xmlns="http://www.w3.org/2000/svg">
<path d="M18.548 12.2751C17.1736 8.70329 12.2799 8.5107 13.4618 3.31938C13.5493 2.93419 13.1379 2.63654 12.8052 2.83789C9.62738 4.71132 7.3425 8.46693 9.2597 13.3869C9.41727 13.7896 8.94454 14.166 8.60312 13.9034C7.01859 12.704 6.85226 10.9794 6.99232 9.74506C7.04485 9.28983 6.44956 9.07097 6.19568 9.44741C5.60039 10.3579 4.99634 11.8286 4.99634 14.0434C5.329 18.9459 9.4698 20.4516 10.958 20.6442C13.0853 20.9156 15.3877 20.5216 17.0423 19.0071C18.8632 17.3176 19.5285 14.6212 18.548 12.2751ZM10.424 16.6785C11.6846 16.3721 12.3325 15.4616 12.5076 14.6562C12.7964 13.4044 11.6671 12.1788 12.4288 10.2003C12.7177 11.8373 15.2914 12.8616 15.2914 14.6475C15.3615 16.8623 12.9628 18.762 10.424 16.6785Z" fill="#231F20"/>
</svg>
