<svg width="24" height="24" viewBox="0 0 24 24" fill="none" xmlns="http://www.w3.org/2000/svg">
<path fill-rule="evenodd" clip-rule="evenodd" d="M6 2H14L20 8V20C20 21.1 19.1 22 18 22H5.99C4.89 22 4 21.1 4 20V4C4 2.9 4.9 2 6 2ZM6 20H18V9H13V4H6V20ZM7.00781 17.6406V14.4922C7.00781 14.4349 7.01823 14.3815 7.03906 14.332C7.0625 14.2826 7.09245 14.2409 7.12891 14.207C7.16797 14.1732 7.21354 14.1458 7.26562 14.125C7.31771 14.1042 7.3724 14.0938 7.42969 14.0938H8.77734C8.99609 14.0938 9.1862 14.1211 9.34766 14.1758C9.51172 14.2305 9.64844 14.3112 9.75781 14.418C9.86719 14.5221 9.94922 14.651 10.0039 14.8047C10.0586 14.9557 10.0859 15.1276 10.0859 15.3203C10.0859 15.513 10.0586 15.6836 10.0039 15.832C9.94922 15.9805 9.86719 16.1042 9.75781 16.2031C9.64844 16.3021 9.51172 16.3776 9.34766 16.4297C9.19141 16.4792 9.01172 16.5039 8.80859 16.5039H8.77734H7.84766V17.6406C7.84766 17.6979 7.83594 17.7513 7.8125 17.8008C7.79167 17.8503 7.76172 17.8919 7.72266 17.9258C7.6862 17.9596 7.64193 17.987 7.58984 18.0078C7.54036 18.0286 7.48698 18.0391 7.42969 18.0391C7.3724 18.0391 7.31771 18.0286 7.26562 18.0078C7.21354 17.987 7.16797 17.9596 7.12891 17.9258C7.09245 17.8919 7.0625 17.8503 7.03906 17.8008C7.01823 17.7513 7.00781 17.6979 7.00781 17.6406ZM7.84766 15.832H8.60938H8.64062C8.73698 15.832 8.82161 15.8216 8.89453 15.8008C8.97526 15.7773 9.04167 15.7435 9.09375 15.6992C9.14583 15.6523 9.1849 15.5977 9.21094 15.5352C9.23698 15.4701 9.25 15.3984 9.25 15.3203C9.25 15.2422 9.23698 15.1719 9.21094 15.1094C9.1849 15.0443 9.14583 14.9896 9.09375 14.9453C9.04167 14.8984 8.97526 14.8633 8.89453 14.8398C8.8138 14.8138 8.71875 14.8008 8.60938 14.8008H7.84766V15.832ZM10.6094 17.4805V14.6172C10.6094 14.5182 10.6211 14.4362 10.6445 14.3711C10.668 14.306 10.7018 14.2526 10.7461 14.2109C10.7904 14.1693 10.8438 14.1406 10.9062 14.125C10.9688 14.1094 11.0378 14.1016 11.1133 14.1016H12.1719C12.3281 14.1016 12.4818 14.1146 12.6328 14.1406C12.7865 14.1641 12.9297 14.2057 13.0625 14.2656C13.1979 14.3255 13.3216 14.4049 13.4336 14.5039C13.5482 14.6003 13.6458 14.7214 13.7266 14.8672C13.8099 15.0104 13.875 15.1797 13.9219 15.375C13.9661 15.5677 13.9883 15.7917 13.9883 16.0469C13.9883 16.3568 13.9466 16.6328 13.8633 16.875C13.7826 17.1172 13.6641 17.3216 13.5078 17.4883C13.3516 17.6549 13.1602 17.7826 12.9336 17.8711C12.707 17.957 12.4479 18 12.1562 18H11.1133C11.0378 18 10.9688 17.9922 10.9062 17.9766C10.8438 17.9583 10.7904 17.9297 10.7461 17.8906C10.7018 17.849 10.668 17.7956 10.6445 17.7305C10.6211 17.6628 10.6094 17.5794 10.6094 17.4805ZM11.4531 17.3164H12.2031C12.3177 17.3164 12.4206 17.2995 12.5117 17.2656C12.6029 17.2292 12.6823 17.181 12.75 17.1211C12.8203 17.0612 12.8789 16.9909 12.9258 16.9102C12.9753 16.8268 13.0156 16.7383 13.0469 16.6445C13.0781 16.5508 13.1003 16.4531 13.1133 16.3516C13.1263 16.2474 13.1328 16.1458 13.1328 16.0469C13.1328 15.8542 13.1133 15.681 13.0742 15.5273C13.0378 15.3711 12.9805 15.2383 12.9023 15.1289C12.8268 15.0195 12.7305 14.9362 12.6133 14.8789C12.4961 14.819 12.3594 14.7891 12.2031 14.7891H11.4531V17.3164ZM14.5156 14.6172V17.6406C14.5156 17.6979 14.526 17.7513 14.5469 17.8008C14.5703 17.8503 14.6003 17.8919 14.6367 17.9258C14.6758 17.9596 14.7214 17.987 14.7734 18.0078C14.8255 18.0286 14.8802 18.0391 14.9375 18.0391C14.9948 18.0391 15.0482 18.0286 15.0977 18.0078C15.1497 17.987 15.194 17.9596 15.2305 17.9258C15.2695 17.8919 15.2995 17.8503 15.3203 17.8008C15.3438 17.7513 15.3555 17.6979 15.3555 17.6406V16.3438H16.7031C16.75 16.3438 16.7943 16.3346 16.8359 16.3164C16.8776 16.2982 16.9141 16.2734 16.9453 16.2422C16.9766 16.2109 17.0013 16.1745 17.0195 16.1328C17.0378 16.0911 17.0469 16.0469 17.0469 16C17.0469 15.9531 17.0378 15.9089 17.0195 15.8672C17.0013 15.8255 16.9766 15.7891 16.9453 15.7578C16.9141 15.7266 16.8776 15.7018 16.8359 15.6836C16.7943 15.6654 16.75 15.6562 16.7031 15.6562H15.3555V14.8008H16.9414C16.9909 14.8008 17.0365 14.7917 17.0781 14.7734C17.1198 14.7552 17.1576 14.7305 17.1914 14.6992C17.2253 14.6654 17.2513 14.6276 17.2695 14.5859C17.2878 14.5443 17.2969 14.4987 17.2969 14.4492C17.2969 14.3997 17.2878 14.3542 17.2695 14.3125C17.2513 14.2708 17.2253 14.2331 17.1914 14.1992C17.1576 14.1654 17.1185 14.1393 17.0742 14.1211C17.0326 14.1029 16.9883 14.0938 16.9414 14.0938H15.0352C14.9648 14.0938 14.8971 14.1081 14.832 14.1367C14.7695 14.1654 14.7148 14.2031 14.668 14.25C14.6211 14.2969 14.5833 14.3516 14.5547 14.4141C14.5286 14.4766 14.5156 14.5443 14.5156 14.6172Z" fill="#231F20"/>
</svg>
