<svg width="24" height="24" viewBox="0 0 24 24" fill="none" xmlns="http://www.w3.org/2000/svg">
<path fill-rule="evenodd" clip-rule="evenodd" d="M7.78482 4.81372C7.78482 3.19068 9.10055 1.87494 10.7236 1.87494H11.4304V11.7524L9.29204 14.96L7.78482 13.9551V4.81372ZM6.64557 13.1956V12.6328V4.51798H5.93878C4.31574 4.51798 3 5.83372 3 7.45676V13.3517V13.9394L4.90449 12.0349L6.64557 13.1956ZM3 16.0607L5.09562 13.9651L6.64557 14.9984V16.6172C6.64557 18.2402 5.32984 19.556 3.70679 19.556H3V16.0607ZM7.78482 15.7579L9.70807 17.0401L11.4304 14.4566V19.2602C11.4304 20.8833 10.1147 22.199 8.49161 22.199H7.78482V15.7579ZM12.5696 12.7477V22.199H13.2764C14.8995 22.199 16.2152 20.8833 16.2152 19.2602V10.5448L14.7081 9.54009L12.5696 12.7477ZM17.3544 11.3043V19.556H18.0612C19.6843 19.556 21 18.2402 21 16.6172V10.3192L19.137 12.4927L17.3544 11.3043ZM21 8.01431L18.8631 10.5073L17.3544 9.50155V7.45676C17.3544 5.83372 18.6702 4.51798 20.2932 4.51798H21V8.01431ZM16.2152 8.74207L14.292 7.45996L12.5696 10.0436V4.81372C12.5696 3.19068 13.8854 1.87494 15.5084 1.87494H16.2152V8.74207Z" fill="#231F20"/>
</svg>
