<svg width="24" height="24" viewBox="0 0 24 24" fill="none" xmlns="http://www.w3.org/2000/svg">
<path fill-rule="evenodd" clip-rule="evenodd" d="M21.8925 10.4161C21.1314 5.64563 16.998 2 12.0132 2C7.02838 2 2.89502 5.64563 2.13397 10.4161C2.0816 10.7444 2.04517 11.078 2.02557 11.4161H2.75372C2.85376 11.4161 2.94818 11.3907 3.03223 11.3461C3.18854 11.2628 3.30878 11.1127 3.36182 10.9343C3.8858 9.17102 5.51886 7.88513 7.45227 7.88513C9.12323 7.88513 10.5698 8.84558 11.27 10.2446C11.5902 10.8844 12.178 11.4161 12.8934 11.4161H13.0139H20.999H21.3963H22.0009C21.9813 11.078 21.9449 10.7444 21.8925 10.4161ZM12.013 2.93224C16.444 2.93224 20.128 6.13317 20.8781 10.3484H12.8932C12.7041 10.3484 12.3929 10.1865 12.164 9.72924C11.3009 8.00487 9.51602 6.81737 7.452 6.81737C6.01358 6.81737 4.71066 7.39366 3.76065 8.32762C5.15182 5.15148 8.32346 2.93224 12.013 2.93224ZM12.0004 22.0095C17.4274 22.0095 21.8452 17.6884 22.0009 12.2991H21.1002C20.783 12.2991 20.5272 12.5521 20.4745 12.865C20.1352 14.882 18.3806 16.4186 16.2671 16.4186C14.4517 16.4186 12.901 15.2848 12.2847 13.6866C11.9994 12.9465 11.3738 12.2991 10.5807 12.2991H2C2.15566 17.6884 6.57342 22.0095 12.0004 22.0095Z" fill="#231F20"/>
</svg>
