<svg width="24" height="24" viewBox="0 0 24 24" fill="none" xmlns="http://www.w3.org/2000/svg">
<path fill-rule="evenodd" clip-rule="evenodd" d="M20.8528 10.4161C20.1027 6.20093 16.4187 3 11.9877 3C8.29816 3 5.12653 5.21924 3.73535 8.39539C4.68536 7.46143 5.98828 6.88513 7.4267 6.88513C9.49072 6.88513 11.2756 8.07263 12.1387 9.797C12.3676 10.2543 12.6788 10.4161 12.8679 10.4161H20.8528ZM21.8669 10.4161C21.1058 5.64563 16.9725 2 11.9877 2C7.00281 2 2.86945 5.64563 2.1084 10.4161C2.05603 10.7444 2.01959 11.078 2 11.4161H2.72815C2.82819 11.4161 2.92261 11.3907 3.00665 11.3461C3.16296 11.2628 3.2832 11.1127 3.33624 10.9343C3.86023 9.17102 5.49329 7.88513 7.4267 7.88513C9.09766 7.88513 10.5443 8.84558 11.2444 10.2446C11.5646 10.8844 12.1525 11.4161 12.8679 11.4161H20.9734H21.9753C21.9557 11.078 21.9193 10.7444 21.8669 10.4161ZM12.0004 22.0095C17.4274 22.0095 21.8452 17.6884 22.0009 12.2991H21.1002C20.783 12.2991 20.5272 12.5521 20.4745 12.865C20.1352 14.882 18.3806 16.4186 16.2671 16.4186C14.4517 16.4186 12.901 15.2848 12.2847 13.6866C11.9994 12.9465 11.3738 12.2991 10.5807 12.2991H2C2.15566 17.6884 6.57342 22.0095 12.0004 22.0095Z" fill="#231F20"/>
</svg>
