<svg width="24" height="24" viewBox="0 0 24 24" fill="none" xmlns="http://www.w3.org/2000/svg">
<path d="M10.0001 13C10.5501 13 11.0001 13.45 11.0001 14C11.0001 14.55 10.5501 15 10.0001 15C9.45007 15 9.00007 14.55 9.00007 14C9.00007 13.45 9.45007 13 10.0001 13ZM10.0001 11C8.34007 11 7.00007 12.34 7.00007 14C7.00007 15.66 8.34007 17 10.0001 17C11.6601 17 13.0001 15.66 13.0001 14C13.0001 12.34 11.6601 11 10.0001 11ZM18.5001 9L19.5901 6.59L22.0001 5.5L19.5901 4.41L18.5001 2L17.4101 4.41L15.0001 5.5L17.4101 6.59L18.5001 9ZM21.2801 12.72L20.5001 11L19.7201 12.72L18.0001 13.5L19.7201 14.28L20.5001 16L21.2801 14.28L23.0001 13.5L21.2801 12.72ZM16.2501 14C16.2501 13.88 16.2501 13.75 16.2401 13.63L18.1801 12.16L15.6801 7.83L13.4401 8.77C13.2401 8.64 13.0201 8.51 12.8001 8.4L12.5001 6H7.50007L7.20007 8.41C6.98007 8.52 6.77007 8.65 6.56007 8.78L4.32007 7.83L1.82007 12.16L3.76007 13.63C3.75007 13.75 3.75007 13.88 3.75007 14C3.75007 14.12 3.75007 14.25 3.76007 14.37L1.82007 15.84L4.32007 20.17L6.56007 19.23C6.76007 19.36 6.98007 19.49 7.20007 19.6L7.50007 22H12.5001L12.8001 19.59C13.0201 19.48 13.2301 19.36 13.4401 19.22L15.6801 20.16L18.1801 15.83L16.2401 14.36C16.2501 14.25 16.2501 14.12 16.2501 14ZM14.8301 17.64L13.1001 16.91C12.5401 17.51 11.8001 17.95 10.9701 18.14L10.7301 20H9.27007L9.04007 18.14C8.21007 17.95 7.47007 17.51 6.91007 16.91L5.18007 17.64L4.45007 16.37L5.94007 15.24C5.82007 14.85 5.76007 14.44 5.76007 14.01C5.76007 13.58 5.82007 13.17 5.94007 12.78L4.45007 11.65L5.18007 10.38L6.91007 11.11C7.47007 10.51 8.21007 10.07 9.04007 9.88L9.27007 8H10.7401L10.9701 9.86C11.8001 10.05 12.5401 10.49 13.1001 11.09L14.8301 10.36L15.5601 11.63L14.0701 12.76C14.1901 13.15 14.2501 13.56 14.2501 13.99C14.2501 14.42 14.1901 14.83 14.0701 15.22L15.5601 16.35L14.8301 17.64Z" fill="black"/>
</svg>
