<svg width="24" height="24" viewBox="0 0 24 24" fill="none" xmlns="http://www.w3.org/2000/svg">
<path d="M4.36364 13.0909C5.56364 13.0909 6.54545 12.1091 6.54545 10.9091C6.54545 9.70909 5.56364 8.72727 4.36364 8.72727C3.16364 8.72727 2.18182 9.70909 2.18182 10.9091C2.18182 12.1091 3.16364 13.0909 4.36364 13.0909ZM5.59636 14.2909C5.19273 14.2255 4.78909 14.1818 4.36364 14.1818C3.28364 14.1818 2.25818 14.4109 1.33091 14.8145C0.523636 15.1636 0 15.9491 0 16.8327V18.5455H4.90909V16.7891C4.90909 15.8836 5.16 15.0327 5.59636 14.2909ZM19.6364 13.0909C20.8364 13.0909 21.8182 12.1091 21.8182 10.9091C21.8182 9.70909 20.8364 8.72727 19.6364 8.72727C18.4364 8.72727 17.4545 9.70909 17.4545 10.9091C17.4545 12.1091 18.4364 13.0909 19.6364 13.0909ZM24 16.8327C24 15.9491 23.4764 15.1636 22.6691 14.8145C21.7418 14.4109 20.7164 14.1818 19.6364 14.1818C19.2109 14.1818 18.8073 14.2255 18.4036 14.2909C18.84 15.0327 19.0909 15.8836 19.0909 16.7891V18.5455H24V16.8327ZM16.6255 13.8C15.3491 13.2327 13.7782 12.8182 12 12.8182C10.2218 12.8182 8.65091 13.2436 7.37455 13.8C6.19636 14.3236 5.45455 15.5018 5.45455 16.7891V18.5455H18.5455V16.7891C18.5455 15.5018 17.8036 14.3236 16.6255 13.8ZM7.71273 16.3636C7.81091 16.1127 7.85455 15.9382 8.70545 15.6109C9.76364 15.1964 10.8764 15 12 15C13.1236 15 14.2364 15.1964 15.2945 15.6109C16.1345 15.9382 16.1782 16.1127 16.2873 16.3636H7.71273ZM12 7.63636C12.6 7.63636 13.0909 8.12727 13.0909 8.72727C13.0909 9.32727 12.6 9.81818 12 9.81818C11.4 9.81818 10.9091 9.32727 10.9091 8.72727C10.9091 8.12727 11.4 7.63636 12 7.63636ZM12 5.45454C10.1891 5.45454 8.72727 6.91636 8.72727 8.72727C8.72727 10.5382 10.1891 12 12 12C13.8109 12 15.2727 10.5382 15.2727 8.72727C15.2727 6.91636 13.8109 5.45454 12 5.45454Z" fill="#231F20"/>
</svg>
