<svg width="24" height="24" viewBox="0 0 24 24" fill="none" xmlns="http://www.w3.org/2000/svg">
<path fill-rule="evenodd" clip-rule="evenodd" d="M6 2H14L20 8V20C20 21.1 19.1 22 18 22H5.99C4.89 22 4 21.1 4 20V4C4 2.9 4.9 2 6 2ZM6 20H18V9H13V4H6V20ZM10.5352 17.8203C10.5117 17.7682 10.5 17.7148 10.5 17.6602C10.5 17.6029 10.5091 17.5469 10.5273 17.4922C10.5482 17.4349 10.5755 17.3802 10.6094 17.3281L11.5039 15.9922L10.5977 14.7188C10.5508 14.6458 10.5234 14.5703 10.5156 14.4922C10.5078 14.4141 10.5195 14.3424 10.5508 14.2773C10.582 14.2122 10.6302 14.1589 10.6953 14.1172C10.7604 14.0729 10.8411 14.0508 10.9375 14.0508C10.9896 14.0508 11.0339 14.0586 11.0703 14.0742C11.1094 14.0872 11.1432 14.1042 11.1719 14.125C11.2005 14.1458 11.2253 14.168 11.2461 14.1914C11.2669 14.2148 11.2839 14.2383 11.2969 14.2617L12.0039 15.375L12.707 14.2695C12.7279 14.2331 12.75 14.2018 12.7734 14.1758C12.7969 14.1497 12.8216 14.1289 12.8477 14.1133C12.8737 14.0951 12.9036 14.082 12.9375 14.0742C12.974 14.0638 13.0156 14.0586 13.0625 14.0586C13.1484 14.0586 13.224 14.0781 13.2891 14.1172C13.3542 14.1536 13.4036 14.2018 13.4375 14.2617C13.4714 14.3216 13.4857 14.388 13.4805 14.4609C13.4805 14.5339 13.4544 14.6068 13.4023 14.6797L12.4844 15.9922L13.4023 17.3438C13.444 17.4062 13.474 17.4661 13.4922 17.5234C13.5104 17.5807 13.5169 17.6354 13.5117 17.6875C13.5065 17.7396 13.4883 17.7891 13.457 17.8359C13.4258 17.8828 13.3815 17.9245 13.3242 17.9609C13.2669 17.9974 13.2083 18.0208 13.1484 18.0312C13.0885 18.0443 13.0312 18.0443 12.9766 18.0312C12.9219 18.0208 12.8711 17.9987 12.8242 17.9648C12.7773 17.931 12.737 17.8854 12.7031 17.8281L11.9805 16.6562L11.2969 17.7891C11.2578 17.8516 11.2122 17.9036 11.1602 17.9453C11.1081 17.9844 11.0521 18.0104 10.9922 18.0234C10.9349 18.0391 10.8763 18.0417 10.8164 18.0312C10.7565 18.0208 10.7005 17.9961 10.6484 17.957C10.5964 17.918 10.5586 17.8724 10.5352 17.8203ZM7.24609 14.4688C7.24609 14.4167 7.25391 14.3685 7.26953 14.3242C7.28776 14.2799 7.3125 14.2409 7.34375 14.207C7.375 14.1732 7.41146 14.1458 7.45312 14.125C7.4974 14.1042 7.54557 14.0938 7.59766 14.0938H10.0352C10.0872 14.0938 10.1341 14.1042 10.1758 14.125C10.2201 14.1458 10.2578 14.1732 10.2891 14.207C10.3203 14.2409 10.3438 14.2799 10.3594 14.3242C10.3776 14.3685 10.3867 14.4167 10.3867 14.4688C10.3867 14.5208 10.3776 14.569 10.3594 14.6133C10.3438 14.6576 10.3203 14.6966 10.2891 14.7305C10.2578 14.7643 10.2201 14.7917 10.1758 14.8125C10.1341 14.8307 10.0872 14.8398 10.0352 14.8398H9.23047V17.6328C9.23047 17.6901 9.21875 17.7448 9.19531 17.7969C9.17448 17.8464 9.14453 17.8893 9.10547 17.9258C9.06901 17.9596 9.02474 17.987 8.97266 18.0078C8.92057 18.0286 8.86589 18.0391 8.80859 18.0391C8.7513 18.0391 8.69661 18.0286 8.64453 18.0078C8.59245 17.987 8.54688 17.9596 8.50781 17.9258C8.46875 17.8893 8.4388 17.8464 8.41797 17.7969C8.39453 17.7448 8.38281 17.6901 8.38281 17.6328V14.8398H7.59766C7.54557 14.8398 7.4974 14.8307 7.45312 14.8125C7.41146 14.7917 7.375 14.7643 7.34375 14.7305C7.3125 14.6966 7.28776 14.6576 7.26953 14.6133C7.25391 14.569 7.24609 14.5208 7.24609 14.4688ZM13.6367 14.3242C13.6211 14.3685 13.6133 14.4167 13.6133 14.4688C13.6133 14.5208 13.6211 14.569 13.6367 14.6133C13.6549 14.6576 13.6797 14.6966 13.7109 14.7305C13.7422 14.7643 13.7786 14.7917 13.8203 14.8125C13.8646 14.8307 13.9128 14.8398 13.9648 14.8398H14.75V17.6328C14.75 17.6901 14.7617 17.7448 14.7852 17.7969C14.806 17.8464 14.8359 17.8893 14.875 17.9258C14.9141 17.9596 14.9596 17.987 15.0117 18.0078C15.0638 18.0286 15.1185 18.0391 15.1758 18.0391C15.2331 18.0391 15.2878 18.0286 15.3398 18.0078C15.3919 17.987 15.4362 17.9596 15.4727 17.9258C15.5117 17.8893 15.5417 17.8464 15.5625 17.7969C15.5859 17.7448 15.5977 17.6901 15.5977 17.6328V14.8398H16.4023C16.4544 14.8398 16.5013 14.8307 16.543 14.8125C16.5872 14.7917 16.625 14.7643 16.6562 14.7305C16.6875 14.6966 16.7109 14.6576 16.7266 14.6133C16.7448 14.569 16.7539 14.5208 16.7539 14.4688C16.7539 14.4167 16.7448 14.3685 16.7266 14.3242C16.7109 14.2799 16.6875 14.2409 16.6562 14.207C16.625 14.1732 16.5872 14.1458 16.543 14.125C16.5013 14.1042 16.4544 14.0938 16.4023 14.0938H13.9648C13.9128 14.0938 13.8646 14.1042 13.8203 14.125C13.7786 14.1458 13.7422 14.1732 13.7109 14.207C13.6797 14.2409 13.6549 14.2799 13.6367 14.3242Z" fill="#231F20"/>
</svg>
