<svg width="24" height="24" viewBox="0 0 24 24" fill="none" xmlns="http://www.w3.org/2000/svg">
<path fill-rule="evenodd" clip-rule="evenodd" d="M6 2H14L20 8V20C20 21.1 19.1 22 18 22H5.99C4.89 22 4 21.1 4 20V4C4 2.9 4.9 2 6 2ZM6 20H18V9H13V4H6V20ZM6.5625 17.8203C6.53906 17.7682 6.52734 17.7148 6.52734 17.6602C6.52734 17.6029 6.53646 17.5469 6.55469 17.4922C6.57552 17.4349 6.60286 17.3802 6.63672 17.3281L7.53125 15.9922L6.625 14.7188C6.57812 14.6458 6.55078 14.5703 6.54297 14.4922C6.53516 14.4141 6.54688 14.3424 6.57812 14.2773C6.60938 14.2122 6.65755 14.1589 6.72266 14.1172C6.78776 14.0729 6.86849 14.0508 6.96484 14.0508C7.01693 14.0508 7.0612 14.0586 7.09766 14.0742C7.13672 14.0872 7.17057 14.1042 7.19922 14.125C7.22786 14.1458 7.2526 14.168 7.27344 14.1914C7.29427 14.2148 7.3112 14.2383 7.32422 14.2617L8.03125 15.375L8.73438 14.2695C8.75521 14.2331 8.77734 14.2018 8.80078 14.1758C8.82422 14.1497 8.84896 14.1289 8.875 14.1133C8.90104 14.0951 8.93099 14.082 8.96484 14.0742C9.0013 14.0638 9.04297 14.0586 9.08984 14.0586C9.17578 14.0586 9.2513 14.0781 9.31641 14.1172C9.38151 14.1536 9.43099 14.2018 9.46484 14.2617C9.4987 14.3216 9.51302 14.388 9.50781 14.4609C9.50781 14.5339 9.48177 14.6068 9.42969 14.6797L8.51172 15.9922L9.42969 17.3438C9.47135 17.4062 9.5013 17.4661 9.51953 17.5234C9.53776 17.5807 9.54427 17.6354 9.53906 17.6875C9.53385 17.7396 9.51562 17.7891 9.48438 17.8359C9.45312 17.8828 9.40885 17.9245 9.35156 17.9609C9.29427 17.9974 9.23568 18.0208 9.17578 18.0312C9.11589 18.0443 9.05859 18.0443 9.00391 18.0312C8.94922 18.0208 8.89844 17.9987 8.85156 17.9648C8.80469 17.931 8.76432 17.8854 8.73047 17.8281L8.00781 16.6562L7.32422 17.7891C7.28516 17.8516 7.23958 17.9036 7.1875 17.9453C7.13542 17.9844 7.07943 18.0104 7.01953 18.0234C6.96224 18.0391 6.90365 18.0417 6.84375 18.0312C6.78385 18.0208 6.72786 17.9961 6.67578 17.957C6.6237 17.918 6.58594 17.8724 6.5625 17.8203ZM9.96875 17.6172V14.5273C9.96875 14.4388 9.98307 14.3672 10.0117 14.3125C10.0404 14.2552 10.0781 14.2109 10.125 14.1797C10.1719 14.1484 10.2253 14.1276 10.2852 14.1172C10.3451 14.1042 10.4049 14.0977 10.4648 14.0977H10.6562C10.7292 14.0977 10.7917 14.1055 10.8438 14.1211C10.8958 14.1341 10.9414 14.1562 10.9805 14.1875C11.0195 14.2188 11.0547 14.2591 11.0859 14.3086C11.1172 14.3581 11.1432 14.4193 11.1641 14.4922L12.0391 16.9375H12.0547L12.9141 14.4922C12.9375 14.4193 12.9635 14.3581 12.9922 14.3086C13.0234 14.2591 13.0586 14.2188 13.0977 14.1875C13.1367 14.1562 13.1836 14.1341 13.2383 14.1211C13.293 14.1055 13.3555 14.0977 13.4258 14.0977H13.6016C13.6641 14.0977 13.7253 14.1042 13.7852 14.1172C13.8451 14.1276 13.8971 14.1484 13.9414 14.1797C13.9883 14.2109 14.026 14.2552 14.0547 14.3125C14.0833 14.3698 14.0977 14.4414 14.0977 14.5273V17.6172C14.0977 17.6719 14.0898 17.7253 14.0742 17.7773C14.0612 17.8268 14.0378 17.8711 14.0039 17.9102C13.9727 17.9492 13.931 17.9805 13.8789 18.0039C13.8294 18.0273 13.7669 18.0391 13.6914 18.0391C13.6185 18.0391 13.556 18.0273 13.5039 18.0039C13.4544 17.9805 13.4128 17.9492 13.3789 17.9102C13.3451 17.8711 13.3216 17.8268 13.3086 17.7773C13.2956 17.7253 13.2891 17.6719 13.2891 17.6172V15.6562L13.3164 15.2188L13.2266 15.6133L12.4219 17.7891C12.3906 17.8776 12.3424 17.9414 12.2773 17.9805C12.2122 18.0195 12.1302 18.0391 12.0312 18.0391C11.9375 18.0391 11.8568 18.0195 11.7891 17.9805C11.7266 17.9414 11.6797 17.8776 11.6484 17.7891L10.8438 15.6094L10.7539 15.2109L10.7812 15.6602V17.6172C10.7812 17.6719 10.7734 17.7253 10.7578 17.7773C10.7422 17.8268 10.7188 17.8711 10.6875 17.9102C10.6562 17.9492 10.6146 17.9805 10.5625 18.0039C10.5104 18.0273 10.4479 18.0391 10.375 18.0391C10.3021 18.0391 10.2396 18.0273 10.1875 18.0039C10.1354 17.9805 10.0938 17.9492 10.0625 17.9102C10.0312 17.8711 10.0078 17.8268 9.99219 17.7773C9.97656 17.7253 9.96875 17.6719 9.96875 17.6172ZM14.8203 14.4883V17.4922C14.8203 17.5911 14.832 17.6732 14.8555 17.7383C14.8789 17.8008 14.9128 17.8516 14.957 17.8906C15.0013 17.9297 15.0547 17.9583 15.1172 17.9766C15.1797 17.9922 15.25 18 15.3281 18H17.1094C17.1719 18 17.2305 17.9922 17.2852 17.9766C17.3398 17.9609 17.3867 17.9375 17.4258 17.9062C17.4674 17.875 17.5 17.8372 17.5234 17.793C17.5469 17.7461 17.5586 17.694 17.5586 17.6367C17.5586 17.5768 17.5469 17.5247 17.5234 17.4805C17.5 17.4336 17.4674 17.3958 17.4258 17.3672C17.3867 17.3359 17.3398 17.3125 17.2852 17.2969C17.2305 17.2812 17.1719 17.2734 17.1094 17.2734H15.6719V14.4883C15.6719 14.4232 15.6615 14.3646 15.6406 14.3125C15.6198 14.2604 15.5911 14.2148 15.5547 14.1758C15.5182 14.1367 15.474 14.1068 15.4219 14.0859C15.3724 14.0651 15.3138 14.0547 15.2461 14.0547C15.181 14.0547 15.1224 14.0651 15.0703 14.0859C15.0182 14.1068 14.9727 14.1367 14.9336 14.1758C14.8971 14.2148 14.8685 14.2617 14.8477 14.3164C14.8294 14.3685 14.8203 14.4258 14.8203 14.4883Z" fill="#231F20"/>
</svg>
